<svg xmlns="http://www.w3.org/2000/svg" width="16.719" height="16.719" viewBox="0 0 16.719 16.719">
  <path id="路径_1002" data-name="路径 1002" d="M33.592,22.153h1.541a2.419,2.419,0,0,1,2.419,2.422V35.13a2.42,2.42,0,0,1-2.419,2.422H23.252a2.419,2.419,0,0,1-2.419-2.422V24.575a2.42,2.42,0,0,1,2.419-2.422h1.541v-.66a.66.66,0,0,1,1.32,0v.66h6.16v-.66a.66.66,0,0,1,1.32,0Zm0,1.32v.66a.66.66,0,0,1-1.32,0v-.66h-6.16v.66a.66.66,0,0,1-1.32,0v-.66H23.252a1.1,1.1,0,0,0-1.1,1.1h0V35.13a1.1,1.1,0,0,0,1.1,1.1H35.133a1.1,1.1,0,0,0,1.1-1.1h0V24.575a1.1,1.1,0,0,0-1.1-1.1H33.592Zm-.22,4.62a.66.66,0,0,1,0,1.32h-8.36a.66.66,0,0,1,0-1.32Zm-2.64,3.3a.66.66,0,0,1,0,1.32h-5.72a.66.66,0,0,1,0-1.32Z" transform="translate(-20.833 -20.833)" fill="#626364"/>
</svg>
