<svg width="44" height="44" viewBox="0 0 44 44" fill="none" xmlns="http://www.w3.org/2000/svg">
<rect width="44" height="44" rx="22" fill="#2B3139"/>
<path d="M19.8067 21.2984C21.4538 21.2984 22.7891 19.9631 22.7891 18.316C22.7891 16.6688 21.4538 15.3335 19.8067 15.3335C18.1595 15.3335 16.8242 16.6688 16.8242 18.316C16.8242 19.9631 18.1595 21.2984 19.8067 21.2984Z" stroke="#F8F8F8" stroke-width="1.66667" stroke-linecap="round" stroke-linejoin="round"/>
<path d="M27.2638 19.0615V23.5352M15.334 28.7545V27.2633C15.334 26.4723 15.6482 25.7137 16.2075 25.1544C16.7668 24.595 17.5254 24.2808 18.3164 24.2808H21.2989C22.0899 24.2808 22.8485 24.595 23.4078 25.1544C23.9671 25.7137 24.2814 26.4723 24.2814 27.2633V28.7545H15.334ZM25.027 21.2984H29.5007H25.027Z" stroke="#F8F8F8" stroke-width="1.66667" stroke-linecap="round" stroke-linejoin="round"/>
</svg>
