<?xml version="1.0" encoding="utf-8"?>
<!-- Generator: Adobe Illustrator 23.1.1, SVG Export Plug-In . SVG Version: 6.00 Build 0)  -->
<svg version="1.1" id="图层_1" xmlns="http://www.w3.org/2000/svg" xmlns:xlink="http://www.w3.org/1999/xlink" x="0px" y="0px"
	 viewBox="0 0 15.5 18.1" style="enable-background:new 0 0 15.5 18.1;" xml:space="preserve">
<style type="text/css">
	.st0{fill:#626364;}
</style>
<g id="组_205" transform="translate(-20.102 -219.624)">
	<path class="st0" d="M22,237.7c-0.3,0-0.5-0.1-0.8-0.2c-0.6-0.3-1-0.8-1.1-1.4l0-14.8c0-0.9,0.8-1.7,1.7-1.7c0.1,0,0.1,0,0.2,0
		l11.8,0c0.9-0.1,1.7,0.6,1.8,1.5c0,0.1,0,0.1,0,0.2V236c0,0.6-0.4,1.2-0.9,1.5c-0.1,0.1-0.4,0.2-0.8,0.2l-0.1,0
		c-0.3,0-0.7-0.1-1-0.3L28,234l-4.8,3.4C22.8,237.6,22.4,237.7,22,237.7z M21.8,220.9c-0.1,0-0.2,0-0.3,0.1
		c-0.1,0.1-0.1,0.2-0.1,0.3V236c0,0.1,0.1,0.3,0.3,0.3c0.2,0.1,0.5,0.1,0.7-0.1l5.6-3.9l5.6,3.9c0.1,0,0.2,0.1,0.3,0.1l0.2-0.1
		c0.1,0,0.3-0.2,0.3-0.3l0-14.7c0-0.3-0.3-0.4-0.5-0.4l-11.9,0L21.8,220.9C21.8,220.9,21.8,220.9,21.8,220.9z"/>
	<path class="st0" d="M31,227.4h-6.2c-0.4,0-0.6-0.3-0.6-0.6s0.3-0.6,0.6-0.6H31c0.4,0,0.7,0.3,0.7,0.6S31.4,227.4,31,227.4z"/>
	<path class="st0" d="M27.9,230.5c-0.4,0-0.6-0.3-0.6-0.7v-6.2c0-0.4,0.3-0.6,0.6-0.6s0.6,0.3,0.6,0.6v6.2
		C28.5,230.2,28.3,230.5,27.9,230.5z"/>
</g>
</svg>
