<?xml version="1.0" encoding="utf-8"?>
<!-- Generator: Adobe Illustrator 23.1.1, SVG Export Plug-In . SVG Version: 6.00 Build 0)  -->
<svg version="1.1" id="图层_1" xmlns="http://www.w3.org/2000/svg" xmlns:xlink="http://www.w3.org/1999/xlink" x="0px" y="0px"
	 viewBox="0 0 16.2 17.3" style="enable-background:new 0 0 16.2 17.3;" xml:space="preserve">
<style type="text/css">
	.st0{fill:#626364;}
</style>
<path class="st0" d="M16.2,17.3H0l0.1-0.7c0.2-2.8,1.8-5.2,4.2-6.5C3.8,9.7,3.4,9.2,3.1,8.6c-0.8-1.3-1-2.9-0.5-4.4
	c0.4-1.5,1.4-2.7,2.7-3.5c1.3-0.8,2.9-1,4.4-0.5c1.5,0.4,2.7,1.4,3.5,2.7c0.8,1.3,1,2.9,0.5,4.4c-0.3,1.1-0.9,2.1-1.7,2.8
	c2.4,1.3,4,3.7,4.2,6.5L16.2,17.3z M1.4,16h13.3c-0.4-2.3-2.1-4.3-4.3-5.1l-1.3-0.5l1.2-0.7c1-0.6,1.8-1.5,2.1-2.7
	c0.3-1.2,0.2-2.4-0.4-3.4c-0.6-1-1.5-1.8-2.7-2.1C8.1,1.1,6.9,1.3,5.9,1.9c-1,0.6-1.8,1.5-2.1,2.7S3.6,6.9,4.2,8
	c0.4,0.7,1,1.3,1.7,1.7l1.2,0.7l-1.3,0.5C3.5,11.7,1.9,13.6,1.4,16z"/>
</svg>
