<?xml version="1.0" encoding="UTF-8" standalone="no"?>
<svg
   xmlns:dc="http://purl.org/dc/elements/1.1/"
   xmlns:cc="http://creativecommons.org/ns#"
   xmlns:rdf="http://www.w3.org/1999/02/22-rdf-syntax-ns#"
   xmlns:svg="http://www.w3.org/2000/svg"
   xmlns="http://www.w3.org/2000/svg"
   xmlns:sodipodi="http://sodipodi.sourceforge.net/DTD/sodipodi-0.dtd"
   xmlns:inkscape="http://www.inkscape.org/namespaces/inkscape"
   width="36"
   height="36"
   viewBox="0 0 36 36"
   version="1.1"
   id="svg842"
   sodipodi:docname="archive.svg"
   inkscape:version="1.0.2 (e86c8708, 2021-01-15)">
  <metadata
     id="metadata846">
    <rdf:RDF>
      <cc:Work
         rdf:about="">
        <dc:format>image/svg+xml</dc:format>
        <dc:type
           rdf:resource="http://purl.org/dc/dcmitype/StillImage" />
      </cc:Work>
    </rdf:RDF>
  </metadata>
  <sodipodi:namedview
     pagecolor="#ffffff"
     bordercolor="#666666"
     borderopacity="1"
     objecttolerance="10"
     gridtolerance="10"
     guidetolerance="10"
     inkscape:pageopacity="0"
     inkscape:pageshadow="2"
     inkscape:window-width="1751"
     inkscape:window-height="1067"
     id="namedview844"
     showgrid="false"
     inkscape:zoom="19.777778"
     inkscape:cx="18"
     inkscape:cy="18"
     inkscape:window-x="41"
     inkscape:window-y="25"
     inkscape:window-maximized="1"
     inkscape:current-layer="归档"
     inkscape:document-rotation="0"
     showguides="false" />
  <defs
     id="defs835">
    <style
       id="style833">
      .cls-1 {
        fill: #f6a14a;
      }

      .cls-2 {
        fill: #fff;
      }
    </style>
  </defs>
  <g
     id="归档"
     transform="translate(-2.317,-6.577)">
    <path
       id="默认头像1"
       class="cls-1"
       d="M 18,0 A 18,18 0 1 1 0,18 18,18 0 0 1 18,0 Z"
       transform="translate(2.317,6.577)"
       style="fill-opacity:1;stroke-width:1.0015748;stroke-miterlimit:4;stroke-dasharray:none;fill:none" />
    <g
       id="组_172"
       data-name="组 172"
       transform="matrix(1.4161982,0,0,1.3616558,-27.087953,-21.464394)"
       style="fill:#f6a14a;fill-opacity:1">
      <path
         id="路径_971"
         data-name="路径 971"
         class="cls-2"
         d="m 97.346,91.669 a 5.683,5.683 0 1 0 5.683,5.683 5.671,5.671 0 0 0 -5.683,-5.683 z m 0,9.616 a 3.934,3.934 0 1 1 3.934,-3.934 3.918,3.918 0 0 1 -3.934,3.934 z"
         transform="translate(-59.67,-59.675)"
         style="fill:#f6a14a;fill-opacity:1" />
      <path
         id="路径_972"
         data-name="路径 972"
         class="cls-2"
         d="m 38.113,35.491 h -1.748 v 3.5 h 3.5 V 37.239 H 38.113 Z M 25,31.119 h 9.179 a 7.959,7.959 0 0 1 3.5,-0.874 7.451,7.451 0 0 1 3.06,0.7 V 29.371 H 25 V 31.12 Z M 25,25 v 1.749 H 40.736 V 25 Z m 0,10.491 h 5.595 a 6.329,6.329 0 0 1 0.787,-1.749 H 25 Z m 0,2.623 v 1.749 h 5.595 a 5.629,5.629 0 0 1 -0.262,-1.749 z"
         style="fill:#f6a14a;fill-opacity:1" />
    </g>
  </g>
</svg>
