<?xml version="1.0" standalone="no"?><!DOCTYPE svg PUBLIC "-//W3C//DTD SVG 1.1//EN" "http://www.w3.org/Graphics/SVG/1.1/DTD/svg11.dtd"><svg t="1658835886255" class="icon" viewBox="0 0 1024 1024" version="1.1" xmlns="http://www.w3.org/2000/svg" p-id="2949" xmlns:xlink="http://www.w3.org/1999/xlink" width="200" height="200"><defs><style type="text/css">@font-face { font-family: feedback-iconfont; src: url("//at.alicdn.com/t/font_1031158_u69w8yhxdu.woff2?t=1630033759944") format("woff2"), url("//at.alicdn.com/t/font_1031158_u69w8yhxdu.woff?t=1630033759944") format("woff"), url("//at.alicdn.com/t/font_1031158_u69w8yhxdu.ttf?t=1630033759944") format("truetype"); }
</style></defs><path d="M512 64a448 448 0 1 1 0 896A448 448 0 0 1 512 64z m0 64a384 384 0 1 0 0 768A384 384 0 0 0 512 128z m24.832 576v64h-64v-64h64z m-23.68-448c45.056 0 81.664 11.968 108.416 37.312 26.048 23.936 39.424 57.024 39.424 99.264 0 31.68-9.152 59.136-26.048 82.368-7.04 8.448-26.752 26.752-57.728 54.208a141.312 141.312 0 0 0-32.384 38.016 100.8 100.8 0 0 0-13.376 52.096v16.192h-56.96v-16.192c0-23.232 4.16-43.648 13.312-61.248 9.152-21.12 33.088-47.872 71.104-81.664 11.264-11.264 19.008-19.712 23.936-25.344 13.44-17.6 20.48-35.904 20.48-55.616 0-28.16-7.808-49.984-23.296-65.472-16.896-16.896-40.128-24.64-69.696-24.64-34.496 0-60.544 11.264-78.08 34.496-14.848 19.712-22.592 46.464-22.592 80.96h-56.32c0-49.28 14.08-88.704 41.6-118.272C423.68 271.488 463.104 256 513.088 256z" p-id="2950"></path></svg>