<svg width="24" height="24" viewBox="0 0 24 24" fill="none" xmlns="http://www.w3.org/2000/svg">
  <path fill-rule="evenodd" clip-rule="evenodd" d="M12.0002 9.5C10.6195 9.5 9.50016 10.6193 9.50016 12C9.50016 13.3807 10.6195 14.5 12.0002 14.5C13.3809 14.5 14.5002 13.3807 14.5002 12C14.5002 10.6193 13.3809 9.5 12.0002 9.5ZM7.8335 12C7.8335 9.69882 9.69898 7.83334 12.0002 7.83334C14.3013 7.83334 16.1668 9.69882 16.1668 12C16.1668 14.3012 14.3013 16.1667 12.0002 16.1667C9.69898 16.1667 7.8335 14.3012 7.8335 12Z" fill="#848E9C"/>
  <path fill-rule="evenodd" clip-rule="evenodd" d="M9.17919 4.149C10.8641 3.54285 12.6995 3.49556 14.4134 4.01413C16.1273 4.53269 17.6286 5.58954 18.6949 7.0281C19.7612 8.46666 20.3357 10.2104 20.3334 12.0011L19.5001 12H20.3334V12.0011V13.25C20.3334 14.0235 20.0261 14.7654 19.4791 15.3124C18.9322 15.8594 18.1903 16.1667 17.4167 16.1667C16.6432 16.1667 15.9013 15.8594 15.3544 15.3124C14.8074 14.7654 14.5001 14.0235 14.5001 13.25V12C14.5001 11.5398 14.8732 11.1667 15.3334 11.1667C15.7937 11.1667 16.1667 11.5398 16.1667 12V13.25C16.1667 13.5815 16.2984 13.8995 16.5329 14.1339C16.7673 14.3683 17.0852 14.5 17.4167 14.5C17.7483 14.5 18.0662 14.3683 18.3006 14.1339C18.5351 13.8995 18.6667 13.5815 18.6667 13.25V11.9989C18.6686 10.5664 18.209 9.1714 17.3559 8.02055C16.5029 6.8697 15.3019 6.02423 13.9307 5.60937C12.5596 5.19452 11.0913 5.23235 9.74337 5.71727C8.39542 6.20219 7.23952 7.1084 6.4469 8.30165C5.65428 9.49491 5.2671 10.9117 5.34271 12.3423C5.41833 13.7728 5.95272 15.1409 6.86671 16.2439C7.78071 17.347 9.02571 18.1263 10.4173 18.4664C11.8088 18.8065 13.2729 18.6894 14.5927 18.1323C15.0167 17.9533 15.5055 18.1519 15.6845 18.5759C15.8635 18.9999 15.6648 19.4888 15.2408 19.6677C13.5911 20.3641 11.761 20.5106 10.0216 20.0854C8.28211 19.6603 6.72587 18.6861 5.58337 17.3073C4.44087 15.9285 3.77289 14.2184 3.67837 12.4302C3.58385 10.6421 4.06783 8.87104 5.0586 7.37947C6.04938 5.88791 7.49425 4.75515 9.17919 4.149Z" fill="#848E9C"/>
</svg>
