<?xml version="1.0" encoding="utf-8"?>
<!-- Generator: Adobe Illustrator 23.1.1, SVG Export Plug-In . SVG Version: 6.00 Build 0)  -->
<svg version="1.1" id="图层_1" xmlns="http://www.w3.org/2000/svg" xmlns:xlink="http://www.w3.org/1999/xlink" x="0px" y="0px"
	 viewBox="0 0 12.7 15.5" style="enable-background:new 0 0 12.7 15.5;" xml:space="preserve">
<style type="text/css">
	.st0{fill:#231815;}
</style>
<path class="st0" d="M6.3,15.5c-1.2,0-2.3-0.7-2.8-1.8H1.2c-0.2,0-0.4,0-0.6-0.2c-0.6-0.3-0.8-1.1-0.4-1.6l1.1-2V6.1
	c0.1-1.9,1.3-3.6,3-4.4c0.1-0.4,0.3-0.8,0.6-1.1C5.3,0.2,5.9,0,6.4,0c1,0,1.8,0.7,2,1.7c1.7,0.8,2.9,2.5,3,4.4l0,3.9l1,1.8
	c0.2,0.2,0.3,0.5,0.3,0.8c0,0.7-0.5,1.2-1.2,1.2c0,0,0,0,0,0H9.1c-0.4,0.9-1.2,1.5-2.1,1.7C6.8,15.5,6.5,15.5,6.3,15.5z M4.1,12.2
	h0.6l0.1,0.6c0.2,0.8,1,1.3,1.8,1.2c0.6-0.1,1-0.6,1.2-1.2l0.1-0.6h3l-1.1-1.9V6.1c-0.1-1.4-1-2.7-2.4-3.2L6.9,2.7l0-0.6
	c0-0.3-0.3-0.6-0.6-0.6C6.2,1.5,6,1.6,5.9,1.7C5.8,1.8,5.7,1.9,5.7,2.1l0,0.6L5.2,2.9C3.8,3.4,2.9,4.6,2.8,6.1l0,4.2l-1.1,1.9H4.1z
	 M11.2,12.5c0,0.1,0,0.1,0.1,0.2l0.5-0.6L11.2,12.5z M1.5,12.7L1.5,12.7C1.5,12.7,1.5,12.7,1.5,12.7z M1.2,12.2
	C1.2,12.2,1.2,12.2,1.2,12.2L1.2,12.2C1.2,12.2,1.2,12.2,1.2,12.2z M11.5,12.2L11.5,12.2L11.5,12.2L11.5,12.2z"/>
</svg>
