<svg width="180" height="180" viewBox="0 0 180 180" fill="none" xmlns="http://www.w3.org/2000/svg">
  <rect width="180" height="180" fill="white"/>
  <path fill-rule="evenodd" clip-rule="evenodd" d="M141.566 80.2835C141.588 79.5252 141.6 78.7641 141.6 78.0002C141.6 73.7056 141.236 69.496 140.537 65.4004C140.407 66.1644 140.265 66.9244 140.112 67.6803C140.942 71.7695 141.436 75.9806 141.566 80.2835ZM46.2354 86.0713C55.1141 103.8 70.8674 117.489 89.9999 123.642C109.117 117.494 124.861 103.822 133.743 86.1138C136.117 86.7247 138.531 87.2346 140.981 87.6384C137.249 116.493 116.986 140.163 89.9999 148.842C63.0027 140.159 42.734 116.473 39.0138 87.6025C41.4583 87.196 43.8671 86.684 46.2354 86.0713ZM39.8878 67.6787C39.7345 66.9233 39.5926 66.1639 39.4624 65.4004C38.7638 69.4959 38.3999 73.7056 38.3999 78.0002C38.3999 78.7606 38.4113 79.5182 38.434 80.273C38.5636 75.9732 39.0582 71.7651 39.8878 67.6787Z" fill="url(#paint0_linear_281_2357)"/>
  <path fill-rule="evenodd" clip-rule="evenodd" d="M38.7573 81.7072C38.5209 79.2935 38.3999 76.8459 38.3999 74.3701C38.3999 66.329 39.676 58.5859 42.0367 51.3322C60.3386 48.0943 76.8502 39.6712 89.9994 27.6349C103.149 39.6714 119.661 48.0946 137.963 51.3324C140.324 58.586 141.6 66.329 141.6 74.3701C141.6 76.8476 141.479 79.2969 141.242 81.7122C120.712 78.3809 102.679 67.6085 89.9976 52.2524C77.3169 67.6058 59.2846 78.3763 38.7573 81.7072Z" fill="url(#paint1_linear_281_2357)"/>
  <g style="mix-blend-mode:overlay" opacity="0.5">
    <rect x="38.3999" y="21.5996" width="51.6" height="138" fill="#1E2329"/>
  </g>
  <defs>
    <linearGradient id="paint0_linear_281_2357" x1="141.781" y1="143.4" x2="36.1503" y2="140.224" gradientUnits="userSpaceOnUse">
      <stop stop-color="#00BDB6"/>
      <stop offset="1" stop-color="#4DE7DC"/>
    </linearGradient>
    <linearGradient id="paint1_linear_281_2357" x1="141.781" y1="78.1853" x2="36.2818" y2="73.291" gradientUnits="userSpaceOnUse">
      <stop stop-color="#1773EB"/>
      <stop offset="1" stop-color="#4DA0FF"/>
    </linearGradient>
  </defs>
</svg>
