<svg width="24" height="24" viewBox="0 0 24 24" fill="none" xmlns="http://www.w3.org/2000/svg">
  <path fill-rule="evenodd" clip-rule="evenodd" d="M6.26474 5.33499C6.01817 5.33499 5.7817 5.43294 5.60734 5.6073C5.43811 5.77653 5.34086 6.00428 5.33529 6.24299C5.5385 9.4705 6.91226 12.5134 9.19944 14.8006C11.4866 17.0878 14.5295 18.4615 17.757 18.6647C17.9957 18.6592 18.2235 18.5619 18.3927 18.3927C18.5671 18.2183 18.665 17.9819 18.665 17.7353V14.7712L15.4384 13.4805L14.4808 15.0767C14.2572 15.4493 13.7852 15.5881 13.3954 15.3959C11.3145 14.3697 9.63036 12.6855 8.6041 10.6046C8.41189 10.2149 8.55074 9.74286 8.92338 9.51928L10.5195 8.56162L9.22883 5.33499H6.26474ZM4.42648 4.42643C4.91401 3.93889 5.57526 3.66499 6.26474 3.66499H9.79416C10.1356 3.66499 10.4426 3.87287 10.5694 4.18988L12.3341 8.60165C12.4863 8.98217 12.3399 9.41691 11.9885 9.62776L10.4705 10.5385C11.2117 11.762 12.238 12.7884 13.4615 13.5295L14.3723 12.0116C14.5831 11.6601 15.0179 11.5137 15.3984 11.6659L19.8102 13.4306C20.1272 13.5574 20.335 13.8644 20.335 14.2059V17.7353C20.335 18.4248 20.0611 19.086 19.5736 19.5736C19.0861 20.0611 18.4248 20.335 17.7353 20.335C17.7184 20.335 17.7015 20.3345 17.6847 20.3335C14.0393 20.1119 10.601 18.5639 8.01857 15.9815C5.43613 13.399 3.88811 9.96074 3.66658 6.31535C3.66555 6.29849 3.66504 6.28159 3.66504 6.2647C3.66504 5.57521 3.93894 4.91397 4.42648 4.42643Z" fill="#848E9C"/>
</svg>
