<svg width="15" height="12" viewBox="0 0 15 12" fill="none" xmlns="http://www.w3.org/2000/svg">
<path fill-rule="evenodd" clip-rule="evenodd" d="M1.16671 0.166748C1.62694 0.166748 2.00004 0.539844 2.00004 1.00008V1.00841C2.00004 1.46865 1.62694 1.84175 1.16671 1.84175C0.70647 1.84175 0.333374 1.46865 0.333374 1.00841V1.00008C0.333374 0.539844 0.70647 0.166748 1.16671 0.166748ZM3.66671 1.00008C3.66671 0.539844 4.0398 0.166748 4.50004 0.166748H13.6667C14.1269 0.166748 14.5 0.539844 14.5 1.00008C14.5 1.46032 14.1269 1.83341 13.6667 1.83341H4.50004C4.0398 1.83341 3.66671 1.46032 3.66671 1.00008ZM1.16671 5.16675C1.62694 5.16675 2.00004 5.53984 2.00004 6.00008V6.00841C2.00004 6.46865 1.62694 6.84175 1.16671 6.84175C0.70647 6.84175 0.333374 6.46865 0.333374 6.00841V6.00008C0.333374 5.53984 0.70647 5.16675 1.16671 5.16675ZM3.66671 6.00008C3.66671 5.53984 4.0398 5.16675 4.50004 5.16675H13.6667C14.1269 5.16675 14.5 5.53984 14.5 6.00008C14.5 6.46032 14.1269 6.83341 13.6667 6.83341H4.50004C4.0398 6.83341 3.66671 6.46032 3.66671 6.00008ZM1.16671 10.1667C1.62694 10.1667 2.00004 10.5398 2.00004 11.0001V11.0084C2.00004 11.4687 1.62694 11.8417 1.16671 11.8417C0.70647 11.8417 0.333374 11.4687 0.333374 11.0084V11.0001C0.333374 10.5398 0.70647 10.1667 1.16671 10.1667ZM3.66671 11.0001C3.66671 10.5398 4.0398 10.1667 4.50004 10.1667H13.6667C14.1269 10.1667 14.5 10.5398 14.5 11.0001C14.5 11.4603 14.1269 11.8334 13.6667 11.8334H4.50004C4.0398 11.8334 3.66671 11.4603 3.66671 11.0001Z" fill="#B7BDC6"/>
</svg>
