<?xml version="1.0" standalone="no"?><!DOCTYPE svg PUBLIC "-//W3C//DTD SVG 1.1//EN" "http://www.w3.org/Graphics/SVG/1.1/DTD/svg11.dtd"><svg t="1626757636341" class="icon" viewBox="0 0 1024 1024" version="1.1" xmlns="http://www.w3.org/2000/svg" p-id="5106" xmlns:xlink="http://www.w3.org/1999/xlink" width="200" height="200"><defs><style type="text/css"></style></defs><path d="M686.4 918.4H112.8c-57.6 0-106.4-52-106.4-117.6V316c0-63.2 47.2-117.6 106.4-117.6h573.6c57.6 0 106.4 52 106.4 117.6v488c0 62.4-47.2 114.4-106.4 114.4zM114.4 260.8c-26.4 0-47.2 24.8-47.2 52v488c0 28.8 22.4 52 47.2 52H688c26.4 0 47.2-24.8 47.2-52V316c0-28.8-22.4-52-47.2-52H114.4v-3.2z" p-id="5107"></path><path d="M950.4 808c-10.4 0-22.4-2.4-32.8-9.6l-2.4-2.4-168-131.2c-8-7.2-12-15.2-12-24.8V456c0-11.2 4-20.8 12-24.8l168-131.2 2.4-2.4c20.8-13.6 44.8-11.2 65.6 0 20.8 13.6 32.8 36 32.8 63.2v374.4c0 27.2-12 49.6-32.8 63.2-10.4 7.2-22.4 9.6-32.8 9.6z m-4-64c4 2.4 6.4 0 8 0s4-4 4-9.6V360.8c0-4-2.4-7.2-4-9.6-2.4 0-4-2.4-8 0l-153.6 120v151.2L946.4 744zM651.2 796H501.6c-16 0-28.8-13.6-28.8-32s12-32 28.8-32h149.6c16 0 28.8 13.6 28.8 32 0 16-12 32-28.8 32z" p-id="5108"></path></svg>