<svg width="36" height="44" viewBox="0 0 36 44" fill="none" xmlns="http://www.w3.org/2000/svg">
  <g clip-path="url(#clip0_247_269)">
    <path d="M36 0H0V44H36V0Z" fill="#2B3139"/>
    <path d="M27.8333 16.1665H16.1667C15.2462 16.1665 14.5 16.9127 14.5 17.8332V26.1665C14.5 27.087 15.2462 27.8332 16.1667 27.8332H27.8333C28.7538 27.8332 29.5 27.087 29.5 26.1665V17.8332C29.5 16.9127 28.7538 16.1665 27.8333 16.1665Z" stroke="#F5F5F5" stroke-width="1.66667" stroke-linecap="round" stroke-linejoin="round"/>
    <path d="M17.5 21.9999C17.5001 21.5264 17.6166 21.061 17.8382 20.6486C18.0597 20.2363 18.3789 19.891 18.7647 19.6462C19.1505 19.4013 19.59 19.2653 20.0405 19.2511C20.4911 19.237 20.9375 19.3452 21.3365 19.5654C21.4324 19.613 21.5181 19.6806 21.5885 19.764C21.6589 19.8474 21.7124 19.9449 21.7459 20.0506C21.7795 20.1564 21.7922 20.2681 21.7835 20.3792C21.7748 20.4903 21.7447 20.5983 21.6952 20.6968C21.6456 20.7954 21.5776 20.8823 21.4952 20.9525C21.4127 21.0227 21.3177 21.0746 21.2156 21.1051C21.1136 21.1356 21.0067 21.1441 20.9015 21.13C20.7962 21.116 20.6948 21.0797 20.6033 21.0233C20.4537 20.9414 20.2874 20.899 20.1188 20.8995C19.841 20.8995 19.5745 21.0155 19.3781 21.2218C19.1816 21.4282 19.0713 21.708 19.0713 21.9999C19.0713 22.2917 19.1816 22.5716 19.3781 22.7779C19.5745 22.9843 19.841 23.1002 20.1188 23.1002C20.2874 23.1008 20.4537 23.0583 20.6033 22.9764C20.7862 22.8855 20.9955 22.8723 21.1875 22.9394C21.3795 23.0066 21.5394 23.149 21.6339 23.3369C21.7285 23.5249 21.7503 23.7439 21.6949 23.9483C21.6395 24.1528 21.5111 24.3269 21.3365 24.4344C20.9375 24.6546 20.4911 24.7628 20.0405 24.7486C19.59 24.7345 19.1505 24.5984 18.7647 24.3536C18.3789 24.1088 18.0597 23.7635 17.8382 23.3511C17.6166 22.9388 17.5001 22.4734 17.5 21.9999ZM22.2138 21.9999C22.214 21.5264 22.3305 21.061 22.552 20.6486C22.7736 20.2363 23.0927 19.891 23.4785 19.6462C23.8643 19.4013 24.3038 19.2653 24.7543 19.2511C25.2049 19.237 25.6513 19.3452 26.0504 19.5654C26.1463 19.613 26.232 19.6806 26.3023 19.764C26.3727 19.8474 26.4263 19.9449 26.4598 20.0506C26.4933 20.1564 26.5061 20.2681 26.4973 20.3792C26.4886 20.4903 26.4586 20.5983 26.409 20.6968C26.3595 20.7954 26.2914 20.8823 26.209 20.9525C26.1266 21.0227 26.0315 21.0746 25.9294 21.1051C25.8274 21.1356 25.7206 21.1441 25.6153 21.13C25.5101 21.116 25.4086 21.0797 25.3171 21.0233C25.1675 20.9414 25.0013 20.899 24.8326 20.8995C24.5548 20.8995 24.2884 21.0155 24.0919 21.2218C23.8955 21.4282 23.7851 21.708 23.7851 21.9999C23.7851 22.2917 23.8955 22.5716 24.0919 22.7779C24.2884 22.9843 24.5548 23.1002 24.8326 23.1002C25.0013 23.1008 25.1675 23.0583 25.3171 22.9764C25.5 22.8855 25.7093 22.8723 25.9013 22.9394C26.0933 23.0066 26.2532 23.149 26.3478 23.3369C26.4423 23.5249 26.4641 23.7439 26.4087 23.9483C26.3533 24.1528 26.225 24.3269 26.0504 24.4344C25.6513 24.6546 25.2049 24.7628 24.7543 24.7486C24.3038 24.7345 23.8643 24.5984 23.4785 24.3536C23.0927 24.1088 22.7736 23.7635 22.552 23.3511C22.3305 22.9388 22.214 22.4734 22.2138 21.9999Z" fill="#F5F5F5"/>
  </g>
  <defs>
    <clipPath id="clip0_247_269">
      <rect width="36" height="44" fill="white"/>
    </clipPath>
  </defs>
</svg>
