<?xml version="1.0" standalone="no"?><!DOCTYPE svg PUBLIC "-//W3C//DTD SVG 1.1//EN" "http://www.w3.org/Graphics/SVG/1.1/DTD/svg11.dtd"><svg t="1651461967680" class="icon" viewBox="0 0 1024 1024" version="1.1" xmlns="http://www.w3.org/2000/svg" p-id="2076" width="16" height="16" xmlns:xlink="http://www.w3.org/1999/xlink"><defs><style type="text/css">@font-face { font-family: feedback-iconfont; src: url("//at.alicdn.com/t/font_1031158_u69w8yhxdu.woff2?t=1630033759944") format("woff2"), url("//at.alicdn.com/t/font_1031158_u69w8yhxdu.woff?t=1630033759944") format("woff"), url("//at.alicdn.com/t/font_1031158_u69w8yhxdu.ttf?t=1630033759944") format("truetype"); }
</style></defs><path d="M516.032 66.496a447.488 447.488 0 0 0-446.976 446.976c0 246.528 200.512 446.976 446.976 446.976s446.976-200.512 446.976-446.976a447.488 447.488 0 0 0-446.976-446.976z m0 830.016c-211.2 0-382.976-171.84-382.976-382.976S304.896 130.56 516.032 130.56s382.976 171.84 382.976 382.976-171.84 382.976-382.976 382.976z" p-id="2077"></path><path d="M700.032 481.472H548.032V329.472a32 32 0 0 0-64 0v152H332.032a32 32 0 0 0 0 64h152v152a32 32 0 0 0 64 0V545.472h152a32 32 0 0 0 0-64z" p-id="2078"></path></svg>