<?xml version="1.0" encoding="utf-8"?>
<!-- Generator: Adobe Illustrator 23.1.1, SVG Export Plug-In . SVG Version: 6.00 Build 0)  -->
<svg version="1.1" id="图层_1" xmlns="http://www.w3.org/2000/svg" xmlns:xlink="http://www.w3.org/1999/xlink" x="0px" y="0px"
	 viewBox="0 0 8 8" style="enable-background:new 0 0 8 8;" xml:space="preserve">
<style type="text/css">
	.st0{fill:#AEAFB0;}
</style>
<path class="st0" d="M4,0C1.8,0,0,1.8,0,4s1.8,4,4,4s4-1.8,4-4S6.2,0,4,0z M6.3,3.1L3.7,5.5c-0.1,0.1-0.3,0.1-0.4,0L2,4.2
	C1.9,4.1,1.9,3.9,2,3.8c0.1-0.1,0.3-0.1,0.4,0L3.5,5l2.4-2.3c0.1-0.1,0.2-0.1,0.3,0C6.4,2.8,6.4,3,6.3,3.1z"/>
</svg>
