<svg xmlns="http://www.w3.org/2000/svg" width="16" height="16" viewBox="0 0 16 16">
  <defs>
    <style>
      .cls-1 {
        fill: #333;
      }
    </style>
  </defs>
  <path id="关闭图标" class="cls-1" d="M16.364,17.3l6.118-6.121a1.075,1.075,0,0,0,0-1.522l-.034-.034a1.078,1.078,0,0,0-1.53,0l-6.11,6.13L8.69,9.618a1.078,1.078,0,0,0-1.53,0l-.034.034a1.07,1.07,0,0,0-.009,1.53L13.236,17.3,7.118,23.426a1.075,1.075,0,0,0,0,1.522l.034.034a1.078,1.078,0,0,0,1.53,0L14.8,18.86l6.118,6.121a1.078,1.078,0,0,0,1.53,0l.034-.034a1.08,1.08,0,0,0,0-1.53Z" transform="translate(-6.8 -9.3)"/>
</svg>
