<svg width="16" height="16" viewBox="0 0 16 16" fill="none" xmlns="http://www.w3.org/2000/svg">
<path fill-rule="evenodd" clip-rule="evenodd" d="M5.33301 3.33333C5.1562 3.33333 4.98663 3.40357 4.8616 3.5286C4.73658 3.65362 4.66634 3.82319 4.66634 4V12C4.66634 12.1768 4.73658 12.3464 4.8616 12.4714C4.98663 12.5964 5.1562 12.6667 5.33301 12.6667H11.9997C12.1765 12.6667 12.3461 12.5964 12.4711 12.4714C12.5961 12.3464 12.6663 12.1768 12.6663 12V4C12.6663 3.82319 12.5961 3.65362 12.4711 3.5286C12.3461 3.40357 12.1765 3.33333 11.9997 3.33333H5.33301ZM3.91879 2.58579C4.29387 2.21071 4.80257 2 5.33301 2H11.9997C12.5301 2 13.0388 2.21071 13.4139 2.58579C13.789 2.96086 13.9997 3.46957 13.9997 4V12C13.9997 12.5304 13.789 13.0391 13.4139 13.4142C13.0388 13.7893 12.5301 14 11.9997 14H5.33301C4.80257 14 4.29387 13.7893 3.91879 13.4142C3.54372 13.0391 3.33301 12.5304 3.33301 12V4C3.33301 3.46957 3.54372 2.96086 3.91879 2.58579ZM5.99967 10.6667C5.99967 10.2985 6.29815 10 6.66634 10H10.6663C11.0345 10 11.333 10.2985 11.333 10.6667C11.333 11.0349 11.0345 11.3333 10.6663 11.3333H6.66634C6.29815 11.3333 5.99967 11.0349 5.99967 10.6667Z" fill="#474D57"/>
<path fill-rule="evenodd" clip-rule="evenodd" d="M8.66602 6.66634C8.29783 6.66634 7.99935 6.96482 7.99935 7.33301C7.99935 7.7012 8.29783 7.99967 8.66602 7.99967C9.03421 7.99967 9.33268 7.7012 9.33268 7.33301C9.33268 6.96482 9.03421 6.66634 8.66602 6.66634ZM6.66602 7.33301C6.66602 6.22844 7.56145 5.33301 8.66602 5.33301C9.77059 5.33301 10.666 6.22844 10.666 7.33301C10.666 8.43758 9.77059 9.33301 8.66602 9.33301C7.56145 9.33301 6.66602 8.43758 6.66602 7.33301Z" fill="#474D57"/>
<path fill-rule="evenodd" clip-rule="evenodd" d="M2 5.33366C2 4.96547 2.29848 4.66699 2.66667 4.66699H4.66667C5.03486 4.66699 5.33333 4.96547 5.33333 5.33366C5.33333 5.70185 5.03486 6.00033 4.66667 6.00033H2.66667C2.29848 6.00033 2 5.70185 2 5.33366ZM2 8.00033C2 7.63214 2.29848 7.33366 2.66667 7.33366H4.66667C5.03486 7.33366 5.33333 7.63214 5.33333 8.00033C5.33333 8.36852 5.03486 8.66699 4.66667 8.66699H2.66667C2.29848 8.66699 2 8.36852 2 8.00033ZM2 10.667C2 10.2988 2.29848 10.0003 2.66667 10.0003H4.66667C5.03486 10.0003 5.33333 10.2988 5.33333 10.667C5.33333 11.0352 5.03486 11.3337 4.66667 11.3337H2.66667C2.29848 11.3337 2 11.0352 2 10.667Z" fill="#474D57"/>
</svg>
