<?xml version="1.0" encoding="UTF-8" standalone="no"?>
<svg
   xmlns:dc="http://purl.org/dc/elements/1.1/"
   xmlns:cc="http://creativecommons.org/ns#"
   xmlns:rdf="http://www.w3.org/1999/02/22-rdf-syntax-ns#"
   xmlns:svg="http://www.w3.org/2000/svg"
   xmlns="http://www.w3.org/2000/svg"
   xmlns:sodipodi="http://sodipodi.sourceforge.net/DTD/sodipodi-0.dtd"
   xmlns:inkscape="http://www.inkscape.org/namespaces/inkscape"
   version="1.1"
   id="Capa_1"
   x="0px"
   y="0px"
   viewBox="0 0 330 330"
   style="enable-background:new 0 0 330 330;"
   xml:space="preserve"
   sodipodi:docname="copy.svg"
   inkscape:version="1.0.2 (e86c8708, 2021-01-15)"><metadata
   id="metadata878"><rdf:RDF><cc:Work
       rdf:about=""><dc:format>image/svg+xml</dc:format><dc:type
         rdf:resource="http://purl.org/dc/dcmitype/StillImage" /></cc:Work></rdf:RDF></metadata><defs
   id="defs876" /><sodipodi:namedview
   pagecolor="#ffffff"
   bordercolor="#666666"
   borderopacity="1"
   objecttolerance="10"
   gridtolerance="10"
   guidetolerance="10"
   inkscape:pageopacity="0"
   inkscape:pageshadow="2"
   inkscape:window-width="1746"
   inkscape:window-height="1067"
   id="namedview874"
   showgrid="false"
   inkscape:zoom="1.0263363"
   inkscape:cx="165.38035"
   inkscape:cy="186.8433"
   inkscape:window-x="46"
   inkscape:window-y="25"
   inkscape:window-maximized="1"
   inkscape:current-layer="Capa_1" />
<g
   id="g841"
   style="opacity:1"
   transform="matrix(0.72413793,0,0,0.75757576,45.517242,40)">
	<path
   d="m 35,270 h 45 v 45 c 0,8.284 6.716,15 15,15 h 200 c 8.284,0 15,-6.716 15,-15 V 75 c 0,-8.284 -6.716,-15 -15,-15 H 250 V 15 C 250,6.716 243.284,0 235,0 H 35 C 26.716,0 20,6.716 20,15 v 240 c 0,8.284 6.716,15 15,15 z m 245,30 H 110 V 90 H 280 Z M 50,30 H 220 V 60 H 95 C 86.716,60 80,66.716 80,75 V 240 H 50 Z"
   id="path833" />
	<path
   d="m 155,120 c -8.284,0 -15,6.716 -15,15 0,8.284 6.716,15 15,15 h 80 c 8.284,0 15,-6.716 15,-15 0,-8.284 -6.716,-15 -15,-15 z"
   id="path835" />
	<path
   d="m 235,180 h -80 c -8.284,0 -15,6.716 -15,15 0,8.284 6.716,15 15,15 h 80 c 8.284,0 15,-6.716 15,-15 0,-8.284 -6.716,-15 -15,-15 z"
   id="path837" />
	<path
   d="m 235,240 h -80 c -8.284,0 -15,6.716 -15,15 0,8.284 6.716,15 15,15 h 80 c 8.284,0 15,-6.716 15,-15 0,-8.284 -6.716,-15 -15,-15 z"
   id="path839" />
</g>
<g
   id="g843"
   style="opacity:1"
   transform="matrix(0.83275863,0,0,0.92226614,1.8448273,-2.1739129)">
</g>
<g
   id="g845"
   style="opacity:1"
   transform="matrix(0.83275863,0,0,0.92226614,1.8448273,-2.1739129)">
</g>
<g
   id="g847"
   style="opacity:1"
   transform="matrix(0.83275863,0,0,0.92226614,1.8448273,-2.1739129)">
</g>
<g
   id="g849"
   style="opacity:1"
   transform="matrix(0.83275863,0,0,0.92226614,1.8448273,-2.1739129)">
</g>
<g
   id="g851"
   style="opacity:1"
   transform="matrix(0.83275863,0,0,0.92226614,1.8448273,-2.1739129)">
</g>
<g
   id="g853"
   style="opacity:1"
   transform="matrix(0.83275863,0,0,0.92226614,1.8448273,-2.1739129)">
</g>
<g
   id="g855"
   style="opacity:1"
   transform="matrix(0.83275863,0,0,0.92226614,1.8448273,-2.1739129)">
</g>
<g
   id="g857"
   style="opacity:1"
   transform="matrix(0.83275863,0,0,0.92226614,1.8448273,-2.1739129)">
</g>
<g
   id="g859"
   style="opacity:1"
   transform="matrix(0.83275863,0,0,0.92226614,1.8448273,-2.1739129)">
</g>
<g
   id="g861"
   style="opacity:1"
   transform="matrix(0.83275863,0,0,0.92226614,1.8448273,-2.1739129)">
</g>
<g
   id="g863"
   style="opacity:1"
   transform="matrix(0.83275863,0,0,0.92226614,1.8448273,-2.1739129)">
</g>
<g
   id="g865"
   style="opacity:1"
   transform="matrix(0.83275863,0,0,0.92226614,1.8448273,-2.1739129)">
</g>
<g
   id="g867"
   style="opacity:1"
   transform="matrix(0.83275863,0,0,0.92226614,1.8448273,-2.1739129)">
</g>
<g
   id="g869"
   style="opacity:1"
   transform="matrix(0.83275863,0,0,0.92226614,1.8448273,-2.1739129)">
</g>
<g
   id="g871"
   style="opacity:1"
   transform="matrix(0.83275863,0,0,0.92226614,1.8448273,-2.1739129)">
</g>
</svg>
