<svg width="24" height="24" viewBox="0 0 24 24" fill="none" xmlns="http://www.w3.org/2000/svg">
  <path fill-rule="evenodd" clip-rule="evenodd" d="M6.06548 6.06556C6.53433 5.59672 7.17021 5.33333 7.83325 5.33333H9.49992C9.96016 5.33333 10.3333 5.70642 10.3333 6.16666C10.3333 6.6269 9.96016 6.99999 9.49992 6.99999H7.83325C7.61224 6.99999 7.40028 7.08779 7.244 7.24407C7.08772 7.40035 6.99992 7.61231 6.99992 7.83333V17.8333C6.99992 18.0543 7.08772 18.2663 7.244 18.4226C7.40028 18.5789 7.61224 18.6667 7.83325 18.6667H16.1666C16.3876 18.6667 16.5996 18.5789 16.7558 18.4226C16.9121 18.2663 16.9999 18.0543 16.9999 17.8333V7.83333C16.9999 7.61231 16.9121 7.40035 16.7558 7.24407C16.5996 7.08779 16.3876 6.99999 16.1666 6.99999H14.4999C14.0397 6.99999 13.6666 6.6269 13.6666 6.16666C13.6666 5.70642 14.0397 5.33333 14.4999 5.33333H16.1666C16.8296 5.33333 17.4655 5.59672 17.9344 6.06556C18.4032 6.5344 18.6666 7.17029 18.6666 7.83333V17.8333C18.6666 18.4964 18.4032 19.1323 17.9344 19.6011C17.4655 20.0699 16.8296 20.3333 16.1666 20.3333H7.83325C7.17021 20.3333 6.53433 20.0699 6.06548 19.6011C5.59664 19.1323 5.33325 18.4964 5.33325 17.8333V7.83333C5.33325 7.17029 5.59664 6.5344 6.06548 6.06556Z" fill="#848E9C"/>
  <path fill-rule="evenodd" clip-rule="evenodd" d="M11.1665 5.33333C10.7063 5.33333 10.3332 5.70643 10.3332 6.16666C10.3332 6.6269 10.7063 7 11.1665 7H12.8332C13.2934 7 13.6665 6.6269 13.6665 6.16666C13.6665 5.70643 13.2934 5.33333 12.8332 5.33333H11.1665ZM8.6665 6.16666C8.6665 4.78595 9.78579 3.66666 11.1665 3.66666H12.8332C14.2139 3.66666 15.3332 4.78595 15.3332 6.16666C15.3332 7.54738 14.2139 8.66666 12.8332 8.66666H11.1665C9.78579 8.66666 8.6665 7.54738 8.6665 6.16666Z" fill="#848E9C"/>
  <path fill-rule="evenodd" clip-rule="evenodd" d="M15.0891 11.4107C15.4145 11.7362 15.4145 12.2638 15.0891 12.5893L11.7558 15.9226C11.4303 16.248 10.9027 16.248 10.5772 15.9226L8.91058 14.2559C8.58514 13.9305 8.58514 13.4028 8.91058 13.0774C9.23602 12.752 9.76366 12.752 10.0891 13.0774L11.1665 14.1548L13.9106 11.4107C14.236 11.0853 14.7637 11.0853 15.0891 11.4107Z" fill="#848E9C"/>
</svg>
