<svg width="24" height="24" viewBox="0 0 24 24" fill="none" xmlns="http://www.w3.org/2000/svg">
  <path fill-rule="evenodd" clip-rule="evenodd" d="M3.66675 12.8333C3.66675 11.9129 4.41294 11.1667 5.33341 11.1667H8.66675C9.58722 11.1667 10.3334 11.9129 10.3334 12.8333V17.8333C10.3334 18.7538 9.58722 19.5 8.66675 19.5H5.33341C4.41294 19.5 3.66675 18.7538 3.66675 17.8333V12.8333ZM8.66675 12.8333H5.33341V17.8333H8.66675V12.8333Z" fill="#848E9C"/>
  <path fill-rule="evenodd" clip-rule="evenodd" d="M8.66675 9.5C8.66675 8.57953 9.41294 7.83334 10.3334 7.83334H13.6667C14.5872 7.83334 15.3334 8.57953 15.3334 9.5V17.8333C15.3334 18.7538 14.5872 19.5 13.6667 19.5H10.3334C9.41294 19.5 8.66675 18.7538 8.66675 17.8333V9.5ZM13.6667 9.5H10.3334V17.8333H13.6667V9.5Z" fill="#848E9C"/>
  <path fill-rule="evenodd" clip-rule="evenodd" d="M13.6667 6.16667C13.6667 5.24619 14.4129 4.5 15.3334 4.5H18.6667C19.5872 4.5 20.3334 5.24619 20.3334 6.16667V17.8333C20.3334 18.7538 19.5872 19.5 18.6667 19.5H15.3334C14.4129 19.5 13.6667 18.7538 13.6667 17.8333V6.16667ZM18.6667 6.16667H15.3334V17.8333H18.6667V6.16667Z" fill="#848E9C"/>
  <path fill-rule="evenodd" clip-rule="evenodd" d="M4.5 18.6667C4.5 18.2064 4.8731 17.8333 5.33333 17.8333H17C17.4602 17.8333 17.8333 18.2064 17.8333 18.6667C17.8333 19.1269 17.4602 19.5 17 19.5H5.33333C4.8731 19.5 4.5 19.1269 4.5 18.6667Z" fill="#848E9C"/>
</svg>
