<svg width="24" height="24" viewBox="0 0 24 24" fill="none" xmlns="http://www.w3.org/2000/svg">
  <g clip-path="url(#clip0_20_1233)">
    <path fill-rule="evenodd" clip-rule="evenodd" d="M7 6.99999C6.53976 6.99999 6.16667 7.37309 6.16667 7.83333V17.8333C6.16667 18.2936 6.53976 18.6667 7 18.6667H17C17.4602 18.6667 17.8333 18.2936 17.8333 17.8333V7.83333C17.8333 7.37309 17.4602 6.99999 17 6.99999H7ZM4.5 7.83333C4.5 6.45262 5.61929 5.33333 7 5.33333H17C18.3807 5.33333 19.5 6.45262 19.5 7.83333V17.8333C19.5 19.214 18.3807 20.3333 17 20.3333H7C5.61929 20.3333 4.5 19.214 4.5 17.8333V7.83333Z" fill="#848E9C"/>
    <path fill-rule="evenodd" clip-rule="evenodd" d="M8.66667 3.66666C9.1269 3.66666 9.5 4.03976 9.5 4.5V7.83333C9.5 8.29357 9.1269 8.66666 8.66667 8.66666C8.20643 8.66666 7.83333 8.29357 7.83333 7.83333V4.5C7.83333 4.03976 8.20643 3.66666 8.66667 3.66666ZM15.3333 3.66666C15.7936 3.66666 16.1667 4.03976 16.1667 4.5V7.83333C16.1667 8.29357 15.7936 8.66666 15.3333 8.66666C14.8731 8.66666 14.5 8.29357 14.5 7.83333V4.5C14.5 4.03976 14.8731 3.66666 15.3333 3.66666ZM4.5 11.1667C4.5 10.7064 4.8731 10.3333 5.33333 10.3333H18.6667C19.1269 10.3333 19.5 10.7064 19.5 11.1667C19.5 11.6269 19.1269 12 18.6667 12H5.33333C4.8731 12 4.5 11.6269 4.5 11.1667ZM12 12.8333C12.4602 12.8333 12.8333 13.2064 12.8333 13.6667V14.5H13.6667C14.1269 14.5 14.5 14.8731 14.5 15.3333C14.5 15.7936 14.1269 16.1667 13.6667 16.1667H12.8333V17C12.8333 17.4602 12.4602 17.8333 12 17.8333C11.5398 17.8333 11.1667 17.4602 11.1667 17V16.1667H10.3333C9.8731 16.1667 9.5 15.7936 9.5 15.3333C9.5 14.8731 9.8731 14.5 10.3333 14.5H11.1667V13.6667C11.1667 13.2064 11.5398 12.8333 12 12.8333Z" fill="#848E9C"/>
  </g>
  <defs>
    <clipPath id="clip0_20_1233">
      <rect width="20" height="20" fill="white" transform="translate(2 2)"/>
    </clipPath>
  </defs>
</svg>
