<svg id="下载" xmlns="http://www.w3.org/2000/svg" width="12.528" height="12.528" viewBox="0 0 12.528 12.528">
  <defs>
    <style>
      .cls-1 {
        fill: rgba(255,255,255,0);
      }

      .cls-2 {
        fill: #333;
      }
    </style>
  </defs>
  <rect id="矩形_122" data-name="矩形 122" class="cls-1" width="12.528" height="12.528" transform="translate(0 0)"/>
  <g id="组_150" data-name="组 150" transform="translate(2.131 1.746)">
    <path id="路径_934" data-name="路径 934" class="cls-2" d="M43.306,87.346v3.113A1.037,1.037,0,0,1,42.268,91.5H35.627a1.037,1.037,0,0,1-1.037-1.037V87.346a1.037,1.037,0,0,1,1.037-1.037h.91a.612.612,0,0,1,.6.449,1.868,1.868,0,0,0,3.626,0,.61.61,0,0,1,.6-.449h.761A1.078,1.078,0,0,1,43.306,87.346Z" transform="translate(-34.59 -82.532)"/>
    <path id="路径_935" data-name="路径 935" class="cls-2" d="M71.338,38.729l-1.555-1.552a.416.416,0,0,1,.293-.71H70.8v-1.56a.416.416,0,0,1,.415-.415h.83a.415.415,0,0,1,.415.415v1.56h.725a.416.416,0,0,1,.293.71l-1.555,1.552A.415.415,0,0,1,71.338,38.729Z" transform="translate(-67.273 -34.492)"/>
  </g>
</svg>
