<svg width="18" height="18" viewBox="0 0 18 18" fill="none" xmlns="http://www.w3.org/2000/svg">
  <path fill-rule="evenodd" clip-rule="evenodd" d="M9 3.375C9.34518 3.375 9.625 3.65482 9.625 4V9.99112L11.6831 7.93306C11.9271 7.68898 12.3229 7.68898 12.5669 7.93306C12.811 8.17714 12.811 8.57286 12.5669 8.81694L9.44194 11.9419C9.19786 12.186 8.80214 12.186 8.55806 11.9419L5.43306 8.81694C5.18898 8.57286 5.18898 8.17714 5.43306 7.93306C5.67714 7.68898 6.07286 7.68898 6.31694 7.93306L8.375 9.99112V4C8.375 3.65482 8.65482 3.375 9 3.375ZM4 11.5C4.34518 11.5 4.625 11.7798 4.625 12.125V13.375C4.625 13.5408 4.69085 13.6997 4.80806 13.8169C4.92527 13.9342 5.08424 14 5.25 14H12.75C12.9158 14 13.0747 13.9342 13.1919 13.8169C13.3092 13.6997 13.375 13.5408 13.375 13.375V12.125C13.375 11.7798 13.6548 11.5 14 11.5C14.3452 11.5 14.625 11.7798 14.625 12.125V13.375C14.625 13.8723 14.4275 14.3492 14.0758 14.7008C13.7242 15.0525 13.2473 15.25 12.75 15.25H5.25C4.75272 15.25 4.27581 15.0525 3.92417 14.7008C3.57254 14.3492 3.375 13.8723 3.375 13.375V12.125C3.375 11.7798 3.65482 11.5 4 11.5Z" fill="#474D57"/>
</svg>
