<svg width="19" height="18" viewBox="0 0 19 18" fill="none" xmlns="http://www.w3.org/2000/svg">
  <path fill-rule="evenodd" clip-rule="evenodd" d="M3.86401 9C3.86401 8.30964 4.42366 7.75 5.11401 7.75C5.80437 7.75 6.36401 8.30964 6.36401 9C6.36401 9.69036 5.80437 10.25 5.11401 10.25C4.42366 10.25 3.86401 9.69036 3.86401 9Z" fill="#474D57"/>
  <path fill-rule="evenodd" clip-rule="evenodd" d="M8.23901 9C8.23901 8.30964 8.79866 7.75 9.48901 7.75C10.1794 7.75 10.739 8.30964 10.739 9C10.739 9.69036 10.1794 10.25 9.48901 10.25C8.79866 10.25 8.23901 9.69036 8.23901 9Z" fill="#474D57"/>
  <path fill-rule="evenodd" clip-rule="evenodd" d="M12.614 9C12.614 8.30964 13.1737 7.75 13.864 7.75C14.5544 7.75 15.114 8.30964 15.114 9C15.114 9.69036 14.5544 10.25 13.864 10.25C13.1737 10.25 12.614 9.69036 12.614 9Z" fill="#474D57"/>
</svg>
