<svg width="98" height="98" viewBox="0 0 98 98" fill="none" xmlns="http://www.w3.org/2000/svg">
  <g filter="url(#filter0_iiiiif_681_6910)">
    <path opacity="0.7" fill-rule="evenodd" clip-rule="evenodd" d="M49 89C71.0914 89 89 71.0914 89 49C89 26.9086 71.0914 9 49 9C26.9086 9 9 26.9086 9 49C9 71.0914 26.9086 89 49 89ZM34 38.1984L44.6066 48.6946L34 59.1907L38.2426 63.3891L48.8492 52.893L59.4558 63.3891L63.6985 59.1907L53.0919 48.6946L63.6985 38.1984L59.4558 34L48.8492 44.4961L38.2426 34L34 38.1984Z" fill="url(#paint0_linear_681_6910)"/>
    <path fill-rule="evenodd" clip-rule="evenodd" d="M48.9997 19.9468C32.9543 19.9468 19.947 32.9541 19.947 48.9994C19.947 65.0447 32.9543 78.052 48.9997 78.052C65.045 78.052 78.0523 65.0447 78.0523 48.9994C78.0523 32.9541 65.045 19.9468 48.9997 19.9468ZM44.5983 48.6934L33.9724 38.1783L38.2228 33.9722L48.8486 44.4874L59.4745 33.9722L63.7248 38.1783L53.099 48.6934L63.7248 59.2086L59.4745 63.4147L48.8486 52.8995L38.2228 63.4147L33.9724 59.2086L44.5983 48.6934Z" fill="url(#paint1_linear_681_6910)" fill-opacity="0.7"/>
    <rect x="38.4397" y="34.0239" width="35.712" height="5.952" transform="rotate(45 38.4397 34.0239)" fill="white"/>
    <rect x="63.677" y="38.2324" width="35.712" height="5.952" transform="rotate(135 63.677 38.2324)" fill="white"/>
  </g>
  <defs>
    <filter id="filter0_iiiiif_681_6910" x="-5.05004" y="-5.05004" width="108.1" height="108.1" filterUnits="userSpaceOnUse" color-interpolation-filters="sRGB">
      <feFlood flood-opacity="0" result="BackgroundImageFix"/>
      <feBlend mode="normal" in="SourceGraphic" in2="BackgroundImageFix" result="shape"/>
      <feColorMatrix in="SourceAlpha" type="matrix" values="0 0 0 0 0 0 0 0 0 0 0 0 0 0 0 0 0 0 127 0" result="hardAlpha"/>
      <feOffset dx="-6.05004" dy="6.05004"/>
      <feGaussianBlur stdDeviation="4.03336"/>
      <feComposite in2="hardAlpha" operator="arithmetic" k2="-1" k3="1"/>
      <feColorMatrix type="matrix" values="0 0 0 0 1 0 0 0 0 1 0 0 0 0 1 0 0 0 0.24 0"/>
      <feBlend mode="overlay" in2="shape" result="effect1_innerShadow_681_6910"/>
      <feColorMatrix in="SourceAlpha" type="matrix" values="0 0 0 0 0 0 0 0 0 0 0 0 0 0 0 0 0 0 127 0" result="hardAlpha"/>
      <feOffset dx="-6.05004" dy="6.05004"/>
      <feGaussianBlur stdDeviation="6.05004"/>
      <feComposite in2="hardAlpha" operator="arithmetic" k2="-1" k3="1"/>
      <feColorMatrix type="matrix" values="0 0 0 0 1 0 0 0 0 1 0 0 0 0 1 0 0 0 0.48 0"/>
      <feBlend mode="overlay" in2="effect1_innerShadow_681_6910" result="effect2_innerShadow_681_6910"/>
      <feColorMatrix in="SourceAlpha" type="matrix" values="0 0 0 0 0 0 0 0 0 0 0 0 0 0 0 0 0 0 127 0" result="hardAlpha"/>
      <feOffset dy="-2.01668"/>
      <feGaussianBlur stdDeviation="6.05004"/>
      <feComposite in2="hardAlpha" operator="arithmetic" k2="-1" k3="1"/>
      <feColorMatrix type="matrix" values="0 0 0 0 1 0 0 0 0 1 0 0 0 0 1 0 0 0 0.48 0"/>
      <feBlend mode="overlay" in2="effect2_innerShadow_681_6910" result="effect3_innerShadow_681_6910"/>
      <feColorMatrix in="SourceAlpha" type="matrix" values="0 0 0 0 0 0 0 0 0 0 0 0 0 0 0 0 0 0 127 0" result="hardAlpha"/>
      <feOffset dy="-2.01668"/>
      <feGaussianBlur stdDeviation="3.02502"/>
      <feComposite in2="hardAlpha" operator="arithmetic" k2="-1" k3="1"/>
      <feColorMatrix type="matrix" values="0 0 0 0 0 0 0 0 0 0 0 0 0 0 0 0 0 0 0.32 0"/>
      <feBlend mode="overlay" in2="effect3_innerShadow_681_6910" result="effect4_innerShadow_681_6910"/>
      <feColorMatrix in="SourceAlpha" type="matrix" values="0 0 0 0 0 0 0 0 0 0 0 0 0 0 0 0 0 0 127 0" result="hardAlpha"/>
      <feOffset dx="6.05004" dy="-6.05004"/>
      <feGaussianBlur stdDeviation="16.1334"/>
      <feComposite in2="hardAlpha" operator="arithmetic" k2="-1" k3="1"/>
      <feColorMatrix type="matrix" values="0 0 0 0 0 0 0 0 0 0 0 0 0 0 0 0 0 0 0.64 0"/>
      <feBlend mode="overlay" in2="effect4_innerShadow_681_6910" result="effect5_innerShadow_681_6910"/>
      <feGaussianBlur stdDeviation="0.201668" result="effect6_foregroundBlur_681_6910"/>
    </filter>
    <linearGradient id="paint0_linear_681_6910" x1="15.7839" y1="71.4639" x2="161.896" y2="-46.4241" gradientUnits="userSpaceOnUse">
      <stop stop-color="#F84135"/>
      <stop offset="1" stop-color="#FD6B62"/>
    </linearGradient>
    <linearGradient id="paint1_linear_681_6910" x1="34.6617" y1="64.3793" x2="185.559" y2="22.5435" gradientUnits="userSpaceOnUse">
      <stop stop-color="#D90D00"/>
      <stop offset="0.864055" stop-color="#FC5045" stop-opacity="0"/>
    </linearGradient>
  </defs>
</svg>
