<?xml version="1.0" standalone="no"?><!DOCTYPE svg PUBLIC "-//W3C//DTD SVG 1.1//EN" "http://www.w3.org/Graphics/SVG/1.1/DTD/svg11.dtd"><svg t="1650506484256" class="icon" viewBox="0 0 1024 1024" version="1.1" xmlns="http://www.w3.org/2000/svg" p-id="3954" width="16" height="16" xmlns:xlink="http://www.w3.org/1999/xlink"><defs><style type="text/css">@font-face { font-family: feedback-iconfont; src: url("//at.alicdn.com/t/font_1031158_u69w8yhxdu.woff2?t=1630033759944") format("woff2"), url("//at.alicdn.com/t/font_1031158_u69w8yhxdu.woff?t=1630033759944") format("woff"), url("//at.alicdn.com/t/font_1031158_u69w8yhxdu.ttf?t=1630033759944") format("truetype"); }
</style></defs><path d="M869.808 129.518c17.789 0 32.893 6.188 45.268 18.563 12.396 12.418 18.584 27.5 18.584 45.289v48.598c0 17.789-6.188 32.871-18.584 45.289-12.375 12.375-27.479 18.584-45.268 18.584h-707.18c-17.811 0-32.893-6.209-45.289-18.584-12.396-12.418-18.584-27.5-18.584-45.289V193.37c0-17.789 6.188-32.871 18.584-45.289 12.396-12.375 27.479-18.563 45.289-18.563h707.18z m0 298.31c17.789 0 32.893 6.209 45.268 18.584 12.396 12.375 18.584 27.479 18.584 45.289v48.598c0 17.789-6.188 32.871-18.584 45.246-12.375 12.418-27.479 18.605-45.268 18.605h-707.18c-17.811 0-32.893-6.188-45.289-18.605-12.396-12.375-18.584-27.457-18.584-45.246v-48.598c0-17.811 6.188-32.914 18.584-45.289s27.479-18.584 45.289-18.584h707.18z m0 298.311c17.789 0 32.893 6.188 45.268 18.605 12.396 12.375 18.584 27.479 18.584 45.246v48.619c0 17.789-6.188 32.893-18.584 45.268-12.375 12.375-27.479 18.605-45.268 18.605h-707.18c-17.811 0-32.893-6.23-45.289-18.605s-18.584-27.479-18.584-45.268V789.99c0-17.768 6.188-32.871 18.584-45.246 12.396-12.418 27.479-18.605 45.289-18.605h707.18z m0 0" fill="#595A5A" p-id="3955"></path></svg>