<svg xmlns="http://www.w3.org/2000/svg" width="50" height="50" viewBox="0 0 50 50">
  <defs>
    <style>
      .cls-1, .cls-2 {
        fill: none;
      }

      .cls-3, .cls-4 {
        stroke: none;
      }

      .cls-4 {
        fill: #fff;
      }
    </style>
  </defs>
  <g id="转发" transform="translate(-71.634 1.543)">
    <circle id="椭圆_26" data-name="椭圆 26" class="cls-1" cx="25" cy="25" r="25" transform="translate(71.634 -1.543)"/>
    <g id="路径_936" data-name="路径 936" class="cls-2" transform="translate(85.158 -0.296)">
      <path class="cls-3" d="M24.367,22.965l-8.5,7.793a.381.381,0,0,1-.638-.281V26.2a.191.191,0,0,0-.19-.19H7.615a5.33,5.33,0,0,0-5.33,5.33v2.344a.381.381,0,0,1-.723.167,14.827,14.827,0,0,1-1.48-5.328L0,27.536A8.376,8.376,0,0,1,8.376,19.16h6.663a.191.191,0,0,0,.19-.19V14.4a.38.38,0,0,1,.654-.264Z"/>
      <path class="cls-4" d="M 16.22951126098633 15.93549728393555 L 16.22951126098633 18.96984481811523 C 16.22951126098633 19.62618637084961 15.69549083709717 20.16015625 15.03908061981201 20.16015625 L 8.37623119354248 20.16015625 C 6.405950546264648 20.16015625 4.553651809692383 20.92743492126465 3.160490036010742 22.32070541381836 C 1.776634216308594 23.7044620513916 1.010332107543945 25.5413761138916 1.000104904174805 27.49683952331543 L 1.07744026184082 28.4432258605957 C 1.130495071411133 29.07961845397949 1.226655960083008 29.70773315429688 1.365228652954102 30.32502365112305 C 1.574733734130859 29.01911163330078 2.186376571655273 27.81704330444336 3.138410568237305 26.86728668212891 C 4.333890914916992 25.67181587219238 5.923620223999023 25.0134449005127 7.614761352539062 25.0134449005127 L 15.03908061981201 25.0134449005127 C 15.69549083709717 25.0134449005127 16.22951126098633 25.54746627807617 16.22951126098633 26.20386505126953 L 16.22951126098633 29.0694637298584 L 22.93706893920898 22.91963386535645 L 16.22951126098633 15.93549728393555 M 15.61366271972656 14.01432800292969 C 15.70928573608398 14.01432800292969 15.80645942687988 14.05066299438477 15.88389110565186 14.13197708129883 L 24.36722183227539 22.96509552001953 L 15.86720085144043 30.75834655761719 C 15.79109859466553 30.82782554626465 15.70074081420898 30.85896492004395 15.61233711242676 30.85896492004395 C 15.41612720489502 30.85896492004395 15.22951126098633 30.70559692382812 15.22951126098633 30.47763633728027 L 15.22951126098633 26.20386505126953 C 15.22951126098633 26.09908485412598 15.14386081695557 26.0134449005127 15.03908061981201 26.0134449005127 L 7.614761352539062 26.0134449005127 C 6.141761779785156 26.0134449005127 4.809240341186523 26.61067581176758 3.845510482788086 27.57439613342285 C 2.879350662231445 28.53824615478516 2.284431457519531 29.87076568603516 2.284431457519531 31.34376525878906 L 2.284431457519531 33.68765640258789 C 2.284431457519531 33.92733001708984 2.093162536621094 34.06844711303711 1.900163650512695 34.06844711303711 C 1.767341613769531 34.06844711303711 1.633722305297852 34.00166702270508 1.56096076965332 33.85420608520508 C 0.7400302886962891 32.19089508056641 0.2356300354003906 30.38235664367676 0.08090019226074219 28.52630615234375 L 0 27.53639602661133 C 0 25.22345542907715 0.937530517578125 23.12933540344238 2.453411102294922 21.61357498168945 C 3.969181060791016 20.09768486022949 6.063291549682617 19.16015625 8.37623119354248 19.16015625 L 15.03908061981201 19.16015625 C 15.14386081695557 19.16015625 15.22951126098633 19.07450485229492 15.22951126098633 18.96984481811523 L 15.22951126098633 14.39612579345703 C 15.22951126098633 14.16610336303711 15.41829776763916 14.01432800292969 15.61366271972656 14.01432800292969 Z"/>
    </g>
  </g>
</svg>
