<svg width="64" height="56" viewBox="0 0 64 56" fill="none" xmlns="http://www.w3.org/2000/svg">
  <g filter="url(#filter0_d_2444_40332)">
    <path fill-rule="evenodd" clip-rule="evenodd" d="M49.8528 45.4928C58.26 44.4612 58.2594 39.8873 58.2586 33.6827L58.2586 33.5022C58.2586 27.7237 54.6041 22.8269 49.552 21.1427C53.2166 19.8703 55.8542 16.3148 55.8542 12.1277C55.8542 6.87239 52.3246 2.17673 46.5733 2.61209C45.7128 2.61209 44.8797 2.73216 44.089 2.95684C45.4716 5.12028 46.2731 7.69108 46.2731 10.4491C46.2731 13.7659 45.114 16.8095 43.1819 19.1997C48.1773 22.5816 51.4555 28.3204 51.4555 34.8211L51.4555 34.9625V34.9626C51.4557 36.972 51.4558 39.108 51.1842 41.0536C50.9789 42.5245 50.6 44.0519 49.8528 45.4928Z" fill="#E5E7EA"/>
    <path fill-rule="evenodd" clip-rule="evenodd" d="M51.8047 45.0647C60.0002 44.0291 60.0002 39.7202 60.0002 33.5021C60.0002 27.7238 56.3459 22.827 51.294 21.1427C54.9584 19.8702 57.5958 16.3148 57.5958 12.1279C57.5958 6.87251 53.4406 2.61221 48.3149 2.61221C47.4545 2.61221 46.6214 2.73226 45.8307 2.95691C47.2134 5.12033 48.0148 7.69108 48.0148 10.449C48.0148 13.7658 46.8557 16.8094 44.9236 19.1996C49.919 22.5816 53.1972 28.3203 53.1972 34.821L53.1972 34.9624V34.9626C53.1974 36.9719 53.1975 39.1079 52.9259 41.0536C52.7408 42.3796 52.4146 43.7516 51.8047 45.0647Z" fill="#F8FAFF"/>
    <path fill-rule="evenodd" clip-rule="evenodd" d="M13.8851 45.224C4.00005 44.577 4.00005 40.1212 4.00005 33.5023C4.00005 27.7239 7.65448 22.8271 12.7065 21.1429C9.04194 19.8704 6.40438 16.315 6.40438 12.1279C6.40438 6.87257 10.5596 2.61227 15.6853 2.61227C16.5456 2.61227 17.3785 2.73228 18.169 2.95686C16.7864 5.12028 15.985 7.69106 15.985 10.449C15.985 13.7658 17.144 16.8094 19.0762 19.1996C14.0807 22.5816 10.8025 28.3203 10.8025 34.821L10.8025 34.9624V34.9626C10.8024 36.9719 10.8022 39.1079 11.0738 41.0536C11.2647 42.421 11.664 42.8148 12.3498 43.4913C12.6867 43.8237 13.0929 44.2244 13.5775 44.8423C13.6775 44.9698 13.78 45.0971 13.8851 45.224Z" fill="#E5E7EA"/>
    <path fill-rule="evenodd" clip-rule="evenodd" d="M13.9368 45.0649C5.74118 44.0293 5.74119 39.7203 5.74119 33.5022C5.74119 27.7239 9.39559 22.8271 14.4475 21.1428C10.7831 19.8703 8.14558 16.3149 8.14558 12.1279C8.14558 6.87257 12.3008 2.61227 17.4265 2.61227C18.2869 2.61227 19.12 2.73232 19.9107 2.95699C18.5281 5.1204 17.7267 7.69114 17.7267 10.4491C17.7267 13.7659 18.8857 16.8095 20.8179 19.1997C15.8224 22.5816 12.5442 28.3204 12.5442 34.8211L12.5442 34.9625V34.9626C12.5441 36.972 12.5439 39.108 12.8155 41.0536C13.0007 42.3797 13.3268 43.7517 13.9368 45.0649Z" fill="#F8FAFF"/>
    <path fill-rule="evenodd" clip-rule="evenodd" d="M35.2802 19.985C38.9188 18.351 41.4528 14.6957 41.4528 10.4486C41.4528 4.67803 36.7748 3.05176e-05 31.0042 3.05176e-05C25.2336 3.05176e-05 20.5556 4.67803 20.5556 10.4486C20.5556 14.8207 23.241 18.5657 27.0523 20.124C20.7699 22.0127 16.1898 27.8779 16.1898 34.8206C16.1898 43.2899 16.1898 47.7602 31.4126 47.7602C46.6353 47.7602 46.6353 43.2899 46.6353 34.8206C46.6353 27.6977 41.8144 21.709 35.2802 19.985Z" fill="#E5E7EA"/>
    <path fill-rule="evenodd" clip-rule="evenodd" d="M37.0219 19.985C40.6605 18.351 43.1945 14.6957 43.1945 10.4486C43.1945 4.67803 38.5165 3.05176e-05 32.7459 3.05176e-05C26.9753 3.05176e-05 22.2973 4.67803 22.2973 10.4486C22.2973 14.8207 24.9827 18.5657 28.794 20.124C22.5116 22.0127 17.9315 27.8779 17.9315 34.8206C17.9315 43.2899 17.9315 47.7602 33.1543 47.7602C48.377 47.7602 48.377 43.2899 48.377 34.8206C48.377 27.6977 43.5561 21.709 37.0219 19.985Z" fill="#F8FAFF"/>
  </g>
  <defs>
    <filter id="filter0_d_2444_40332" x="-6.10352e-05" y="3.05176e-05" width="64.0004" height="55.7602" filterUnits="userSpaceOnUse" color-interpolation-filters="sRGB">
      <feFlood flood-opacity="0" result="BackgroundImageFix"/>
      <feColorMatrix in="SourceAlpha" type="matrix" values="0 0 0 0 0 0 0 0 0 0 0 0 0 0 0 0 0 0 127 0" result="hardAlpha"/>
      <feOffset dy="4"/>
      <feGaussianBlur stdDeviation="2"/>
      <feComposite in2="hardAlpha" operator="out"/>
      <feColorMatrix type="matrix" values="0 0 0 0 0 0 0 0 0 0 0 0 0 0 0 0 0 0 0.1 0"/>
      <feBlend mode="normal" in2="BackgroundImageFix" result="effect1_dropShadow_2444_40332"/>
      <feBlend mode="normal" in="SourceGraphic" in2="effect1_dropShadow_2444_40332" result="shape"/>
    </filter>
  </defs>
</svg>
