<svg width="24" height="24" viewBox="0 0 24 24" fill="none" xmlns="http://www.w3.org/2000/svg">
  <path fill-rule="evenodd" clip-rule="evenodd" d="M9.49992 5.33334C8.11921 5.33334 6.99992 6.45263 6.99992 7.83334C6.99992 9.21405 8.11921 10.3333 9.49992 10.3333C10.8806 10.3333 11.9999 9.21405 11.9999 7.83334C11.9999 6.45263 10.8806 5.33334 9.49992 5.33334ZM5.33325 7.83334C5.33325 5.53215 7.19873 3.66667 9.49992 3.66667C11.8011 3.66667 13.6666 5.53215 13.6666 7.83334C13.6666 10.1345 11.8011 12 9.49992 12C7.19873 12 5.33325 10.1345 5.33325 7.83334Z" fill="#474D57"/>
  <path fill-rule="evenodd" clip-rule="evenodd" d="M17.8334 7.83333C18.2937 7.83333 18.6667 8.20642 18.6667 8.66666V10.3333H20.3334C20.7937 10.3333 21.1667 10.7064 21.1667 11.1667C21.1667 11.6269 20.7937 12 20.3334 12H18.6667V13.6667C18.6667 14.1269 18.2937 14.5 17.8334 14.5C17.3732 14.5 17.0001 14.1269 17.0001 13.6667V12H15.3334C14.8732 12 14.5001 11.6269 14.5001 11.1667C14.5001 10.7064 14.8732 10.3333 15.3334 10.3333H17.0001V8.66666C17.0001 8.20642 17.3732 7.83333 17.8334 7.83333ZM7.83341 15.3333C7.17037 15.3333 6.53449 15.5967 6.06565 16.0656C5.59681 16.5344 5.33341 17.1703 5.33341 17.8333V18.6667H13.6667V17.8333C13.6667 17.1703 13.4034 16.5344 12.9345 16.0656C12.4657 15.5967 11.8298 15.3333 11.1667 15.3333H7.83341ZM4.88714 14.8871C5.66854 14.1056 6.72835 13.6667 7.83341 13.6667H11.1667C12.2718 13.6667 13.3316 14.1056 14.113 14.8871C14.8944 15.6685 15.3334 16.7283 15.3334 17.8333V19.5C15.3334 19.9602 14.9603 20.3333 14.5001 20.3333H4.50008C4.03984 20.3333 3.66675 19.9602 3.66675 19.5V17.8333C3.66675 16.7283 4.10573 15.6685 4.88714 14.8871Z" fill="#474D57"/>
</svg>
