<svg width="20" height="20" viewBox="0 0 20 20" fill="none" xmlns="http://www.w3.org/2000/svg">
  <path d="M2.5 15.8333C3.64014 15.1751 4.93347 14.8285 6.25 14.8285C7.56652 14.8285 8.85986 15.1751 10 15.8333C11.1401 15.1751 12.4335 14.8285 13.75 14.8285C15.0665 14.8285 16.3599 15.1751 17.5 15.8333M2.5 5C3.64014 4.34174 4.93347 3.99519 6.25 3.99519C7.56652 3.99519 8.85986 4.34174 10 5C11.1401 4.34174 12.4335 3.99519 13.75 3.99519C15.0665 3.99519 16.3599 4.34174 17.5 5M2.5 5V15.8333M10 5V15.8333M17.5 5V15.8333" stroke="#474D57" stroke-width="1.66667" stroke-linecap="round" stroke-linejoin="round"/>
</svg>
