<svg xmlns="http://www.w3.org/2000/svg" width="17.655" height="17.654" viewBox="0 0 17.655 17.654">
  <g id="组_191" data-name="组 191" transform="translate(-8.443 -8.456)">
    <path id="路径_1018" data-name="路径 1018" d="M25.928,15.5a8.733,8.733,0,0,0-.514-1.659,8.483,8.483,0,0,0-.8-1.5.8.8,0,1,0-1.366.846c.011.018.024.036.036.054a7.531,7.531,0,0,1,.667,1.205,7.559,7.559,0,0,1,0,5.628A7.406,7.406,0,0,1,23.28,21.3,7.236,7.236,0,0,1,10.606,14.47a7.414,7.414,0,0,1,.667-1.229,7.232,7.232,0,0,1,10.039-1.956.8.8,0,1,0,.954-1.293c-.018-.013-.035-.025-.054-.037a8.633,8.633,0,0,0-1.5-.8,8.733,8.733,0,0,0-1.659-.514,8.84,8.84,0,0,0-3.559,0,8.731,8.731,0,0,0-1.659.514,8.632,8.632,0,0,0-1.5.8,8.721,8.721,0,0,0-2.386,2.386,8.483,8.483,0,0,0-.8,1.5,8.838,8.838,0,0,0,0,6.878,8.484,8.484,0,0,0,.8,1.5,8.721,8.721,0,0,0,2.386,2.386,8.633,8.633,0,0,0,1.5.8,8.838,8.838,0,0,0,6.878,0,8.633,8.633,0,0,0,1.5-.8A8.721,8.721,0,0,0,24.6,22.223a8.483,8.483,0,0,0,.8-1.5,8.838,8.838,0,0,0,.514-5.223Z" transform="translate(0 0)" fill="#626364"/>
    <path id="路径_1019" data-name="路径 1019" d="M84.94,47.291V42.47a.8.8,0,0,0-1.607,0v5.624a.8.8,0,0,0,.8.8h5.624a.8.8,0,0,0,0-1.607Z" transform="translate(-67.669 -30.009)" fill="#626364"/>
  </g>
</svg>
