<?xml version="1.0" encoding="utf-8"?>
<!-- Generator: Adobe Illustrator 23.1.1, SVG Export Plug-In . SVG Version: 6.00 Build 0)  -->
<svg version="1.1" id="图层_1" xmlns="http://www.w3.org/2000/svg" xmlns:xlink="http://www.w3.org/1999/xlink" x="0px" y="0px"
	 viewBox="0 0 200 200" style="enable-background:new 0 0 200 200;" xml:space="preserve">
<style type="text/css">
	.st0{fill:#0982DB;}
	.st1{opacity:0.25;enable-background:new    ;}
	.st2{fill:#FFFFFF;}
</style>
<g>
	<path class="st0" d="M48.8-1h64.8l56.5,60.3V179c0,11-9,19.9-19.9,19.9H48.8c-11,0-19.9-9-19.9-19.9V19C28.9,8,37.8-1,48.8-1z"/>
	<path class="st1" d="M113.6-1l56.5,60.3l-41-0.3c-9.4,0-15.6-6.2-15.6-15.6L113.6-1L113.6-1z"/>
</g>
<path class="st2" d="M103.2,120.7v27.2h13.6v6.8h-34v-6.8h13.6v-27.2H69.2c-1.9,0-3.1-1.5-2.7-3.3L72,90.1c0.4-1.8,2.2-3.3,4.1-3.3
	h47.5c1.9,0,3.7,1.5,4.1,3.3l5.5,27.3c0.4,1.8-0.9,3.3-2.7,3.3H103.2z"/>
</svg>
