<svg width="16" height="16" viewBox="0 0 16 16" fill="none" xmlns="http://www.w3.org/2000/svg">
<rect width="16" height="16" rx="8" fill="#056FFA"/>
<path d="M12.2278 7.38902C12.3304 7.49561 12.3933 7.64031 12.4013 7.79547L11.9218 10.2842C11.8633 10.5394 11.7586 10.733 11.6453 10.8506C11.5346 10.9655 11.4379 10.9888 11.3709 10.9829C11.3592 10.9818 11.3474 10.9813 11.3357 10.9813H7.91379C7.63585 10.9813 7.36614 10.8668 7.16488 10.6579C6.96312 10.4485 6.84727 10.1614 6.84727 9.85896V7.17898C7.32727 7.09368 7.77204 6.85637 8.11799 6.49724C8.55797 6.04052 8.80263 5.42414 8.80263 4.78444V4.27699C8.80263 4.10918 8.86699 3.95112 8.97706 3.83685C9.08665 3.72309 9.23203 3.66208 9.38031 3.66208C9.5286 3.66208 9.67398 3.72309 9.78356 3.83685C9.89364 3.95112 9.958 4.10918 9.958 4.27699V6.81425C9.958 7.03517 10.1371 7.21425 10.358 7.21425H11.8245C11.9728 7.21425 12.1182 7.27526 12.2278 7.38902Z" fill="white" stroke="white" stroke-width="0.8" stroke-linecap="round" stroke-linejoin="round"/>
<path d="M4.75654 7.21424V10.8739C4.75654 10.9071 4.74368 10.9361 4.72528 10.9552C4.70737 10.9738 4.68633 10.9813 4.6677 10.9813H3.69001C3.67138 10.9813 3.65034 10.9738 3.63243 10.9552C3.61403 10.9361 3.60117 10.9071 3.60117 10.8739V7.32169C3.60117 7.28847 3.61402 7.25948 3.63243 7.24038C3.65034 7.22179 3.67138 7.21424 3.69001 7.21424H4.75654Z" fill="white" stroke="white" stroke-width="0.8" stroke-linecap="round" stroke-linejoin="round"/>
</svg>
