<svg width="20" height="20" viewBox="0 0 20 20" fill="none" xmlns="http://www.w3.org/2000/svg">
<path d="M5.76471 8.76052V16.2583C5.76471 16.5068 5.66555 16.7452 5.48904 16.921C5.31254 17.0967 5.07315 17.1955 4.82353 17.1955H2.94118C2.69156 17.1955 2.45217 17.0967 2.27566 16.921C2.09916 16.7452 2 16.5068 2 16.2583V9.69774C2 9.44917 2.09916 9.21079 2.27566 9.03503C2.45217 8.85926 2.69156 8.76052 2.94118 8.76052H5.76471ZM5.76471 8.76052C6.76317 8.76052 7.72074 8.36555 8.42675 7.6625C9.13277 6.95945 9.52941 6.00591 9.52941 5.01165V4.07443C9.52941 3.5773 9.72773 3.10053 10.0807 2.74901C10.4338 2.39748 10.9125 2.2 11.4118 2.2C11.911 2.2 12.3898 2.39748 12.7428 2.74901C13.0958 3.10053 13.2941 3.5773 13.2941 4.07443V8.76052H16.1176C16.6169 8.76052 17.0957 8.95801 17.4487 9.30953C17.8017 9.66106 18 10.1378 18 10.635L17.0588 15.321C16.9235 15.896 16.6667 16.3897 16.3272 16.7278C15.9877 17.0659 15.5838 17.23 15.1765 17.1955H8.58824C7.83939 17.1955 7.12121 16.8993 6.5917 16.372C6.06218 15.8447 5.76471 15.1295 5.76471 14.3838" stroke="#474D57" stroke-width="2" stroke-linecap="round" stroke-linejoin="round"/>
</svg>
