<svg width="1024" height="1024" viewBox="0 0 1024 1024" fill="none" xmlns="http://www.w3.org/2000/svg">
<path fill-rule="evenodd" clip-rule="evenodd" d="M746.051 532.038C745.855 627.545 746.073 685.829 746.705 706.889C747.668 738.986 744.151 770.682 766.134 801.974C766.18 802.041 766.134 802.134 766.053 802.134H549.808C447.662 802.134 364.856 720.863 364.856 620.611C364.856 618.895 364.881 617.18 364.93 615.465C368.405 495.212 370.143 430.435 370.143 421.132C370.143 407.83 366.591 384.21 359.486 350.272C359.473 350.21 359.52 350.15 359.583 350.15H561.099C663.245 350.15 746.051 431.42 746.051 531.673C746.051 531.794 746.051 531.916 746.051 532.038Z" fill="url(#paint0_linear_910_21438)"/>
<path fill-rule="evenodd" clip-rule="evenodd" d="M721.047 440.47V321.771C721.047 266.595 669.767 221.867 606.51 221.867H364.921C295.339 221.867 238.931 271.068 238.931 331.761V598.049C238.931 598.157 239.08 598.185 239.124 598.086C261.181 548.765 297.123 521.891 346.952 517.463C352.845 516.939 359.776 516.654 367.746 516.608C369.344 459.267 370.144 427.441 370.144 421.132C370.144 407.814 366.583 384.154 359.461 350.15H561.099C629.372 350.15 689.004 386.456 721.047 440.47Z" fill="url(#paint1_linear_910_21438)"/>
<path d="M470.18 513.036C490.911 513.036 507.716 496.238 507.716 475.516C507.716 454.795 490.911 437.997 470.18 437.997C449.45 437.997 432.645 454.795 432.645 475.516C432.645 496.238 449.45 513.036 470.18 513.036Z" fill="white"/>
<path fill-rule="evenodd" clip-rule="evenodd" d="M460.864 665.322C443.92 637.083 439.64 607.064 440.722 588.217L500.91 591.671C500.437 599.927 502.57 617.654 512.56 634.304C521.84 649.77 538.449 665.395 569.93 671.524L558.409 730.701C509.364 721.153 478.518 694.745 460.864 665.322Z" fill="white"/>
<defs>
<linearGradient id="paint0_linear_910_21438" x1="385.99" y1="802.927" x2="398.488" y2="340.217" gradientUnits="userSpaceOnUse">
<stop stop-color="#1773EB"/>
<stop offset="1" stop-color="#4DA0FF"/>
</linearGradient>
<linearGradient id="paint1_linear_910_21438" x1="353.478" y1="687.619" x2="319.208" y2="275.012" gradientUnits="userSpaceOnUse">
<stop stop-color="#00BDB6"/>
<stop offset="1" stop-color="#4DE7DC"/>
</linearGradient>
</defs>
</svg>
