<svg width="19" height="18" viewBox="0 0 19 18" fill="none" xmlns="http://www.w3.org/2000/svg">
  <path d="M15.063 8.25724L11.6346 4.73223C11.5286 4.62196 11.3899 4.54589 11.2374 4.51441C11.0872 4.48446 10.931 4.50146 10.7916 4.56295C10.6481 4.62672 10.5278 4.73034 10.446 4.8605C10.362 4.99339 10.3164 5.14939 10.3164 5.30828V7.08204C8.76837 7.20742 7.28757 7.78982 6.04557 8.76163C4.80356 9.73345 3.85196 11.0542 3.30236 12.5692C3.29161 12.601 3.29057 12.635 3.29936 12.6674C3.30768 12.6994 3.32588 12.7282 3.35156 12.75C3.37591 12.7709 3.40685 12.7833 3.43939 12.7852C3.47193 12.787 3.50419 12.7783 3.53096 12.7604C5.58117 11.4546 7.91637 10.7134 10.3164 10.607V12.3583C10.3164 12.5177 10.3614 12.6732 10.446 12.8061C10.5306 12.9389 10.6512 13.0424 10.7916 13.1036C10.9326 13.1654 11.088 13.1822 11.2374 13.1521C11.3874 13.1221 11.5254 13.0464 11.6346 12.9343L15.063 9.4099C15.1362 9.33421 15.1938 9.24465 15.2334 9.14528C15.3135 8.94443 15.3135 8.72213 15.2334 8.52128C15.1946 8.42358 15.1368 8.33395 15.063 8.25724Z" stroke="#474D57" stroke-width="1.20301"/>
</svg>
