<svg xmlns="http://www.w3.org/2000/svg" width="24" height="24" viewBox="0 0 24 24">
  <defs>
    <style>
      .cls-1 {
        fill: rgba(255,255,255,0);
      }

      .cls-2 {
        fill: #676767;
      }
    </style>
  </defs>
  <g id="撤回" transform="translate(-10.138 -5.3)">
    <rect id="矩形_124" data-name="矩形 124" class="cls-1" width="24" height="24" transform="translate(10.138 5.3)"/>
    <path id="路径_955" data-name="路径 955" class="cls-2" d="M34.025,22.478H30.268V19.525a1.159,1.159,0,0,0-1.852-.929L22.9,22.707a1.158,1.158,0,0,0,0,1.857l5.516,4.111a1.159,1.159,0,0,0,1.852-.929V24.794h3.757a3.475,3.475,0,1,1,0,6.95H27.07a1.159,1.159,0,1,0-.09,2.317q.045,0,.09,0h6.955a5.791,5.791,0,1,0,0-11.583" transform="translate(-8.644 -8.552)"/>
  </g>
</svg>
