<svg width="14" height="14" viewBox="0 0 14 14" fill="none" xmlns="http://www.w3.org/2000/svg">
<path d="M8.75085 2.91675C8.75085 1.95025 7.96735 1.16675 7.00085 1.16675C6.03436 1.16675 5.25085 1.95025 5.25085 2.91675L5.25085 5.83342C5.25085 6.79991 6.03436 7.58342 7.00085 7.58342C7.96735 7.58342 8.75085 6.79991 8.75085 5.83342L8.75085 2.91675Z" fill="#01BC6A" stroke="#01BC6A" stroke-width="1.1" stroke-linecap="round" stroke-linejoin="round"/>
<path d="M7.00057 9.91683L7.00057 12.2502L7.00057 9.91683Z" fill="#01BC6A"/>
<path d="M2.91724 5.8335C2.91724 6.91646 3.34744 7.95508 4.11322 8.72085C4.87899 9.48662 5.9176 9.91683 7.00057 9.91683M7.00057 9.91683C8.08354 9.91683 9.12215 9.48662 9.88792 8.72085C10.6537 7.95508 11.0839 6.91646 11.0839 5.8335M7.00057 9.91683L7.00057 12.2502M4.66724 12.2502L9.3339 12.2502" stroke="#01BC6A" stroke-width="1.1" stroke-linecap="round" stroke-linejoin="round"/>
</svg>
