<svg width="16" height="16" viewBox="0 0 16 16" fill="none" xmlns="http://www.w3.org/2000/svg">
<path d="M10 3.3335C10 2.22893 9.10457 1.3335 8 1.3335C6.89543 1.3335 6 2.22893 6 3.3335V6.66683C6 7.7714 6.89543 8.66683 8 8.66683C9.10457 8.66683 10 7.7714 10 6.66683V3.3335Z" stroke="#01BC6A" stroke-width="1.33333" stroke-linecap="round" stroke-linejoin="round"/>
<path d="M3.33398 6.66699C3.33398 7.90467 3.82565 9.09165 4.70082 9.96682C5.57599 10.842 6.76297 11.3337 8.00065 11.3337M8.00065 11.3337C9.23833 11.3337 10.4253 10.842 11.3005 9.96682C12.1757 9.09165 12.6673 7.90467 12.6673 6.66699M8.00065 11.3337V14.0003M5.33398 14.0003H10.6673" stroke="#01BC6A" stroke-width="1.33333" stroke-linecap="round" stroke-linejoin="round"/>
</svg>