<svg width="24" height="24" viewBox="0 0 24 24" fill="none" xmlns="http://www.w3.org/2000/svg">
  <path fill-rule="evenodd" clip-rule="evenodd" d="M12.0001 4.49999C11.0796 4.49999 10.3334 5.24619 10.3334 6.16666V10.3333C10.3334 11.2538 11.0796 12 12.0001 12C12.9206 12 13.6667 11.2538 13.6667 10.3333V6.16666C13.6667 5.24619 12.9206 4.49999 12.0001 4.49999ZM8.66675 6.16666C8.66675 4.32571 10.1591 2.83333 12.0001 2.83333C13.841 2.83333 15.3334 4.32571 15.3334 6.16666V10.3333C15.3334 12.1743 13.841 13.6667 12.0001 13.6667C10.1591 13.6667 8.66675 12.1743 8.66675 10.3333V6.16666Z" fill="#848E9C"/>
  <path fill-rule="evenodd" clip-rule="evenodd" d="M6.16659 9.5C6.62682 9.5 6.99992 9.8731 6.99992 10.3333C6.99992 11.6594 7.5267 12.9312 8.46438 13.8689C9.40207 14.8065 10.6738 15.3333 11.9999 15.3333C13.326 15.3333 14.5978 14.8065 15.5355 13.8689C16.4731 12.9312 16.9999 11.6594 16.9999 10.3333C16.9999 9.8731 17.373 9.5 17.8333 9.5C18.2935 9.5 18.6666 9.8731 18.6666 10.3333C18.6666 12.1014 17.9642 13.7971 16.714 15.0474C15.6618 16.0996 14.2941 16.7637 12.8333 16.9477V18.6667H15.3333C15.7935 18.6667 16.1666 19.0398 16.1666 19.5C16.1666 19.9602 15.7935 20.3333 15.3333 20.3333H8.66658C8.20635 20.3333 7.83325 19.9602 7.83325 19.5C7.83325 19.0398 8.20635 18.6667 8.66658 18.6667H11.1666V16.9477C9.70575 16.7637 8.33806 16.0996 7.28587 15.0474C6.03563 13.7971 5.33325 12.1014 5.33325 10.3333C5.33325 9.8731 5.70635 9.5 6.16659 9.5Z" fill="#848E9C"/>
</svg>
