<svg width="36" height="44" viewBox="0 0 36 44" fill="none" xmlns="http://www.w3.org/2000/svg">
<rect width="36" height="44" fill="#2B3139"/>
<path d="M24.4961 16.167C24.4961 14.7863 23.3768 13.667 21.9961 13.667C20.6154 13.667 19.4961 14.7863 19.4961 16.167V20.3337C19.4961 21.7144 20.6154 22.8337 21.9961 22.8337C23.3768 22.8337 24.4961 21.7144 24.4961 20.3337V16.167Z" stroke="#EAECEF" stroke-width="1.66667" stroke-linecap="round" stroke-linejoin="round"/>
<path d="M16.1641 20.3335C16.1641 21.8806 16.7786 23.3643 17.8726 24.4583C18.9666 25.5522 20.4503 26.1668 21.9974 26.1668M21.9974 26.1668C23.5445 26.1668 25.0282 25.5522 26.1222 24.4583C27.2161 23.3643 27.8307 21.8806 27.8307 20.3335M21.9974 26.1668V29.5002M18.6641 29.5002H25.3307" stroke="#EAECEF" stroke-width="1.66667" stroke-linecap="round" stroke-linejoin="round"/>
<path d="M24.5 16.1665C24.5 14.7858 23.3807 13.6665 22 13.6665C20.6193 13.6665 19.5 14.7858 19.5 16.1665V20.3332C19.5 21.7139 20.6193 22.8332 22 22.8332C23.3807 22.8332 24.5 21.7139 24.5 20.3332V16.1665Z" stroke="#EAECEF" stroke-width="1.66667" stroke-linecap="round" stroke-linejoin="round"/>
<path d="M16.166 20.333C16.166 21.8801 16.7806 23.3638 17.8746 24.4578C18.9685 25.5518 20.4523 26.1663 21.9993 26.1663M21.9993 26.1663C23.5464 26.1663 25.0302 25.5518 26.1241 24.4578C27.2181 23.3638 27.8327 21.8801 27.8327 20.333M21.9993 26.1663V29.4997M18.666 29.4997H25.3327" stroke="#EAECEF" stroke-width="1.66667" stroke-linecap="round" stroke-linejoin="round"/>
<line x1="14.8445" y1="13.6665" x2="30.1652" y2="28.9872" stroke="#F84135" stroke-width="1.66667" stroke-linecap="round"/>
</svg>
