<svg width="36" height="44" viewBox="0 0 36 44" fill="none" xmlns="http://www.w3.org/2000/svg">
<rect width="36" height="44" fill="#1E2329"/>
<path d="M24.4961 16.167C24.4961 14.7863 23.3768 13.667 21.9961 13.667C20.6154 13.667 19.4961 14.7863 19.4961 16.167V20.3337C19.4961 21.7144 20.6154 22.8337 21.9961 22.8337C23.3768 22.8337 24.4961 21.7144 24.4961 20.3337V16.167Z" stroke="#EAECEF" stroke-width="1.66667" stroke-linecap="round" stroke-linejoin="round"/>
<path d="M16.1641 20.3335C16.1641 21.8806 16.7786 23.3643 17.8726 24.4583C18.9666 25.5522 20.4503 26.1668 21.9974 26.1668M21.9974 26.1668C23.5445 26.1668 25.0282 25.5522 26.1222 24.4583C27.2161 23.3643 27.8307 21.8806 27.8307 20.3335M21.9974 26.1668V29.5002M18.6641 29.5002H25.3307" stroke="#EAECEF" stroke-width="1.66667" stroke-linecap="round" stroke-linejoin="round"/>
</svg>
