<svg width="25" height="25" viewBox="0 0 25 25" fill="none" xmlns="http://www.w3.org/2000/svg">
<path fill-rule="evenodd" clip-rule="evenodd" d="M5.2854 12.1176C5.2854 11.1972 6.03159 10.451 6.95207 10.451C7.87254 10.451 8.61873 11.1972 8.61873 12.1176C8.61873 13.0381 7.87254 13.7843 6.95207 13.7843C6.03159 13.7843 5.2854 13.0381 5.2854 12.1176Z" fill="#474D57"/>
<path fill-rule="evenodd" clip-rule="evenodd" d="M11.1187 12.1176C11.1187 11.1972 11.8648 10.451 12.7853 10.451C13.7058 10.451 14.452 11.1972 14.452 12.1176C14.452 13.0381 13.7058 13.7843 12.7853 13.7843C11.8648 13.7843 11.1187 13.0381 11.1187 12.1176Z" fill="#474D57"/>
<path fill-rule="evenodd" clip-rule="evenodd" d="M16.9521 12.1176C16.9521 11.1972 17.6983 10.451 18.6188 10.451C19.5393 10.451 20.2855 11.1972 20.2855 12.1176C20.2855 13.0381 19.5393 13.7843 18.6188 13.7843C17.6983 13.7843 16.9521 13.0381 16.9521 12.1176Z" fill="#474D57"/>
</svg>
