<svg width="120" height="106" viewBox="0 0 120 106" fill="none" xmlns="http://www.w3.org/2000/svg">
  <g filter="url(#filter0_iiiiif_1751_8666)">
    <path d="M52.4959 54.7256C41.4513 53.7482 31.6014 61.6694 30.373 72.6251C29.1266 83.7412 37.2282 93.7719 48.4684 95.0293C59.5463 96.2686 69.5385 88.5234 71.0178 77.6579C72.2969 66.2788 64.1054 56.0211 52.7253 54.7512L52.4959 54.7256Z" fill="#FFADC6"/>
    <path d="M41.0653 74.9145C40.3923 80.9243 44.1645 85.2441 50.2923 85.9304C51.7682 86.0957 52.7142 86.0821 53.3546 85.9147C53.9333 85.7643 54.2039 85.4838 54.2621 84.9643C54.3268 84.3857 54.0268 83.9695 53.2829 83.8862C53.0822 83.8638 52.892 83.8544 52.6768 83.8542C52.1231 83.8879 51.6206 83.8913 50.8767 83.808C45.8706 83.2474 42.966 79.9333 43.491 75.2459C44.012 70.5939 47.4926 67.8037 52.0383 68.3128C56.277 68.7875 58.8827 71.7812 58.3921 76.1616C58.1647 78.1924 57.3619 79.4893 56.3465 79.3756C55.6853 79.3015 55.363 78.7633 55.4569 77.925L55.9845 73.214C56.089 72.2812 55.6512 71.7062 54.7421 71.6044C53.8448 71.5039 53.2789 71.9665 53.1744 72.8993L53.1506 73.1118L52.9381 73.088C52.5861 71.9607 51.6369 71.2566 50.3499 71.1125C48.0357 70.8533 46.263 72.5915 45.9403 75.4724C45.6058 78.4596 47.0103 80.6493 49.4662 80.9243C50.8122 81.075 51.8032 80.5524 52.4078 79.4246L52.6203 79.4484C52.8475 80.6215 53.886 81.3834 55.4091 81.554C58.3727 81.8859 60.4423 79.7386 60.8496 76.1021C61.4446 70.7889 57.9463 66.7986 52.2789 66.1639C46.3164 65.4961 41.7239 69.0346 41.0653 74.9145ZM50.5192 78.5675C49.4329 78.4459 48.8972 77.4653 49.0704 75.9186C49.2423 74.3837 49.9948 73.5355 51.0693 73.6558C52.1437 73.7761 52.7123 74.7842 52.5417 76.3074C52.3698 77.8423 51.6054 78.6892 50.5192 78.5675Z" fill="#FF4274"/>
    <path d="M51.6156 57.5713C43.4729 66.6046 29.3253 66.6777 21.0897 57.7289L19.7267 56.2479C10.1313 45.8216 12.303 34.0669 20.9785 26.0827C30.1498 17.6423 44.427 18.2348 52.8674 27.4061C60.8516 36.0817 60.2912 49.5871 51.6156 57.5713Z" fill="#2CDAD3"/>
    <path opacity="0.8" d="M24.5306 40.7998C29.9318 42.0386 35.9776 36.5483 33.2578 32.9858C31.7903 31.0637 28.7252 31.4081 30.0022 34.7809C32.1555 40.4679 43.3683 41.7402 48.6133 30.5588" stroke="white" stroke-width="2.46049" stroke-linecap="round" stroke-linejoin="round"/>
    <line opacity="0.8" x1="26.4346" y1="49.4126" x2="49.627" y2="43.1983" stroke="white" stroke-width="2.46049" stroke-linecap="round"/>
    <line opacity="0.8" x1="28.3716" y1="56.1936" x2="51.564" y2="49.9793" stroke="white" stroke-width="2.46049" stroke-linecap="round"/>
    <rect x="75.1248" y="69.7392" width="10.3327" height="29.5729" rx="5.16635" transform="rotate(-15 75.1248 69.7392)" fill="#328AFD"/>
    <path d="M100.185 33.3937C104.262 48.6084 95.483 63.9853 80.8588 67.9039C66.2346 71.8224 50.9434 62.895 46.8667 47.6804C42.7899 32.4657 51.5688 17.0888 66.193 13.1703C80.8172 9.25171 96.1084 18.1791 100.185 33.3937Z" stroke="#328AFD" stroke-width="9.84195"/>
    <path d="M23.1785 67.8146L22.8226 59.491L30.209 63.3446L23.1785 67.8146Z" fill="#2CDAD3"/>
    <path d="M67.6955 85.7378L69.8432 77.027L76.3131 83.2423L67.6955 85.7378Z" fill="#FFADC6"/>
  </g>
  <defs>
    <filter id="filter0_iiiiif_1751_8666" x="6.05995" y="-0.0571203" width="107.426" height="104.583" filterUnits="userSpaceOnUse" color-interpolation-filters="sRGB">
      <feFlood flood-opacity="0" result="BackgroundImageFix"/>
      <feBlend mode="normal" in="SourceGraphic" in2="BackgroundImageFix" result="shape"/>
      <feColorMatrix in="SourceAlpha" type="matrix" values="0 0 0 0 0 0 0 0 0 0 0 0 0 0 0 0 0 0 127 0" result="hardAlpha"/>
      <feOffset dx="-7.38146" dy="7.38146"/>
      <feGaussianBlur stdDeviation="4.92097"/>
      <feComposite in2="hardAlpha" operator="arithmetic" k2="-1" k3="1"/>
      <feColorMatrix type="matrix" values="0 0 0 0 1 0 0 0 0 1 0 0 0 0 1 0 0 0 0.24 0"/>
      <feBlend mode="overlay" in2="shape" result="effect1_innerShadow_1751_8666"/>
      <feColorMatrix in="SourceAlpha" type="matrix" values="0 0 0 0 0 0 0 0 0 0 0 0 0 0 0 0 0 0 127 0" result="hardAlpha"/>
      <feOffset dx="-7.38146" dy="7.38146"/>
      <feGaussianBlur stdDeviation="7.38146"/>
      <feComposite in2="hardAlpha" operator="arithmetic" k2="-1" k3="1"/>
      <feColorMatrix type="matrix" values="0 0 0 0 1 0 0 0 0 1 0 0 0 0 1 0 0 0 0.48 0"/>
      <feBlend mode="overlay" in2="effect1_innerShadow_1751_8666" result="effect2_innerShadow_1751_8666"/>
      <feColorMatrix in="SourceAlpha" type="matrix" values="0 0 0 0 0 0 0 0 0 0 0 0 0 0 0 0 0 0 127 0" result="hardAlpha"/>
      <feOffset dy="-2.46049"/>
      <feGaussianBlur stdDeviation="7.38146"/>
      <feComposite in2="hardAlpha" operator="arithmetic" k2="-1" k3="1"/>
      <feColorMatrix type="matrix" values="0 0 0 0 1 0 0 0 0 1 0 0 0 0 1 0 0 0 0.48 0"/>
      <feBlend mode="overlay" in2="effect2_innerShadow_1751_8666" result="effect3_innerShadow_1751_8666"/>
      <feColorMatrix in="SourceAlpha" type="matrix" values="0 0 0 0 0 0 0 0 0 0 0 0 0 0 0 0 0 0 127 0" result="hardAlpha"/>
      <feOffset dy="-2.46049"/>
      <feGaussianBlur stdDeviation="3.69073"/>
      <feComposite in2="hardAlpha" operator="arithmetic" k2="-1" k3="1"/>
      <feColorMatrix type="matrix" values="0 0 0 0 0 0 0 0 0 0 0 0 0 0 0 0 0 0 0.32 0"/>
      <feBlend mode="overlay" in2="effect3_innerShadow_1751_8666" result="effect4_innerShadow_1751_8666"/>
      <feColorMatrix in="SourceAlpha" type="matrix" values="0 0 0 0 0 0 0 0 0 0 0 0 0 0 0 0 0 0 127 0" result="hardAlpha"/>
      <feOffset dx="7.38146" dy="-7.38146"/>
      <feGaussianBlur stdDeviation="19.6839"/>
      <feComposite in2="hardAlpha" operator="arithmetic" k2="-1" k3="1"/>
      <feColorMatrix type="matrix" values="0 0 0 0 0 0 0 0 0 0 0 0 0 0 0 0 0 0 0.64 0"/>
      <feBlend mode="overlay" in2="effect4_innerShadow_1751_8666" result="effect5_innerShadow_1751_8666"/>
      <feGaussianBlur stdDeviation="0.246049" result="effect6_foregroundBlur_1751_8666"/>
    </filter>
  </defs>
</svg>
