<svg width="16" height="17" viewBox="0 0 16 17" fill="none" xmlns="http://www.w3.org/2000/svg">
<path d="M6.3335 2.66667C6.3335 2.22464 6.50909 1.80072 6.82165 1.48816C7.13421 1.17559 7.55814 1 8.00016 1C8.44219 1 8.86611 1.17559 9.17867 1.48816C9.49123 1.80072 9.66683 2.22464 9.66683 2.66667C10.6238 3.11919 11.4397 3.82361 12.0269 4.70442C12.6141 5.58523 12.9505 6.60923 13.0002 7.66667V10.1667C13.0629 10.6848 13.2464 11.1809 13.5358 11.6151C13.8253 12.0493 14.2127 12.4095 14.6668 12.6667H1.3335C1.78761 12.4095 2.175 12.0493 2.46449 11.6151C2.75397 11.1809 2.93745 10.6848 3.00016 10.1667V7.66667C3.0498 6.60923 3.38625 5.58523 3.97345 4.70442C4.56066 3.82361 5.37649 3.11919 6.3335 2.66667M5.50016 12.6667V13.5C5.50016 14.163 5.76355 14.7989 6.2324 15.2678C6.70124 15.7366 7.33712 16 8.00016 16C8.6632 16 9.29909 15.7366 9.76793 15.2678C10.2368 14.7989 10.5002 14.163 10.5002 13.5V12.6667" stroke="#474D57" stroke-width="1.5" stroke-linecap="round" stroke-linejoin="round"/>
</svg>
