<?xml version="1.0" encoding="utf-8"?>
<!-- Generator: Adobe Illustrator 23.1.1, SVG Export Plug-In . SVG Version: 6.00 Build 0)  -->
<svg version="1.1" id="图层_1" xmlns="http://www.w3.org/2000/svg" xmlns:xlink="http://www.w3.org/1999/xlink" x="0px" y="0px"
	 viewBox="0 0 200 200" style="enable-background:new 0 0 200 200;" xml:space="preserve">
<style type="text/css">
	.st0{fill:#8DD35F;}
	.st1{opacity:0.25;enable-background:new    ;}
	.st2{fill:#FFFFFF;}
</style>
<g>
	<path class="st0" d="M48.8-1h64.8l56.5,60.3V179c0,11-9,19.9-19.9,19.9H48.8c-11,0-19.9-9-19.9-19.9V19C28.9,8,37.8-1,48.8-1z"/>
	<path class="st1" d="M113.6-1l56.5,60.3l-41-0.3c-9.4,0-15.6-6.2-15.6-15.6L113.6-1L113.6-1z"/>
</g>
<g>
	<path class="st2" d="M82.2,154.1h-5.5c-1.4,0-2.6-1.2-2.6-2.6v-28.7c0-1.4,1.2-2.6,2.6-2.6h5.5c1.4,0,2.6,1.2,2.6,2.6v28.7
		C84.7,153,83.6,154.1,82.2,154.1z"/>
	<path class="st2" d="M102.4,154.1h-4.8c-1.6,0-2.9-1.3-2.9-2.9v-38.1c0-1.6,1.3-2.9,2.9-2.9h4.8c1.6,0,2.9,1.3,2.9,2.9v38.1
		C105.3,152.8,104,154.1,102.4,154.1z"/>
	<path class="st2" d="M122.4,154.1h-3.6c-2,0-3.5-1.6-3.5-3.5V93.7c0-2,1.6-3.5,3.5-3.5h3.6c2,0,3.5,1.6,3.5,3.5v56.9
		C125.9,152.6,124.3,154.1,122.4,154.1z"/>
</g>
</svg>
