<svg width="50" height="44" viewBox="0 0 50 44" fill="none" xmlns="http://www.w3.org/2000/svg">
<rect width="50" height="44" rx="22" fill="#D9271E"/>
<path d="M34.2397 23.4832L31.7758 26.1623L27.4639 24.153L28.0799 21.4739C26.0826 20.7368 23.9174 20.7368 21.9201 21.4739L22.5361 24.153L18.2242 26.1623L15.7603 23.4832C15.4336 23.1279 15.25 22.6461 15.25 22.1437C15.25 21.6412 15.4336 21.1594 15.7603 20.8041C18.3091 18.3503 21.5957 16.9956 25 16.9956C28.4043 16.9956 31.6909 18.3503 34.2397 20.8041C34.5664 21.1594 34.75 21.6412 34.75 22.1437C34.75 22.6461 34.5664 23.1279 34.2397 23.4832Z" stroke="white" stroke-width="1.6875" stroke-linecap="round" stroke-linejoin="round"/>
</svg>
