<?xml version="1.0" encoding="utf-8"?>
<!-- Generator: Adobe Illustrator 23.1.1, SVG Export Plug-In . SVG Version: 6.00 Build 0)  -->
<svg version="1.1" id="图层_1" xmlns="http://www.w3.org/2000/svg" xmlns:xlink="http://www.w3.org/1999/xlink" x="0px" y="0px"
	 viewBox="0 0 200 200" style="enable-background:new 0 0 200 200;" xml:space="preserve">
<style type="text/css">
	.st0{fill:#FFAA00;}
	.st1{opacity:0.25;enable-background:new    ;}
	.st2{fill:#FFFFFF;}
</style>
<g>
	<path class="st0" d="M48.8-1h64.8l56.5,60.3V179c0,11-9,19.9-19.9,19.9H48.8c-11,0-19.9-9-19.9-19.9V19C28.9,8,37.8-1,48.8-1z"/>
	<path class="st1" d="M113.6-1l56.5,60.3l-41-0.3c-9.4,0-15.6-6.2-15.6-15.6L113.6-1L113.6-1z"/>
</g>
<g>
	<path class="st2" d="M81.5,141.8c1.4,0.1,2.8-0.3,4-1.3l0.4-0.1l-12.2-12.2l-0.1,0.4c-1,1.1-1.4,2.6-1.3,4l-4.3,13.6L81.5,141.8
		L81.5,141.8L81.5,141.8z M125.7,92.3l-4-4c-2.2-2.2-5.8-2.2-8,0l-3.9,3.9l12,12l3.9-3.9C127.9,98.1,127.9,94.5,125.7,92.3
		L125.7,92.3L125.7,92.3z M117.7,108.3l-12-12l-27.8,27.8l12,12L117.7,108.3L117.7,108.3L117.7,108.3z"/>
	<path class="st2" d="M64.2,149.8h70.5v5H64.2V149.8z"/>
</g>
</svg>
