<svg width="24" height="24" viewBox="0 0 24 24" fill="none" xmlns="http://www.w3.org/2000/svg">
<path fill-rule="evenodd" clip-rule="evenodd" d="M11.4108 4.74407C12.2301 3.92475 13.3414 3.46446 14.5001 3.46446C15.6588 3.46446 16.77 3.92475 17.5893 4.74407C18.4087 5.5634 18.8689 6.67463 18.8689 7.83333C18.8689 8.99203 18.4087 10.1033 17.5893 10.9226L12.1727 16.3393C11.6849 16.8271 11.0233 17.1011 10.3334 17.1011C9.64356 17.1011 8.98196 16.8271 8.49416 16.3393C8.00636 15.8515 7.73231 15.1899 7.73231 14.5C7.73231 13.8101 8.00636 13.1485 8.49416 12.6607L13.9108 7.24407C14.2363 6.91864 14.7639 6.91864 15.0893 7.24407C15.4148 7.56951 15.4148 8.09715 15.0893 8.42259L9.67267 13.8393C9.49743 14.0145 9.39898 14.2522 9.39898 14.5C9.39898 14.7478 9.49743 14.9855 9.67267 15.1607C9.84791 15.336 10.0856 15.4344 10.3334 15.4344C10.5812 15.4344 10.8189 15.336 10.9942 15.1607L16.4108 9.74407C16.9176 9.23731 17.2023 8.55 17.2023 7.83333C17.2023 7.11666 16.9176 6.42935 16.4108 5.92259C15.9041 5.41582 15.2167 5.13113 14.5001 5.13113C13.7834 5.13113 13.0961 5.41582 12.5893 5.92259L7.17267 11.3393C6.33439 12.1775 5.86344 13.3145 5.86344 14.5C5.86344 15.6855 6.33439 16.8225 7.17267 17.6607C8.01095 18.499 9.1479 18.97 10.3334 18.97C11.5189 18.97 12.6559 18.499 13.4942 17.6607L18.9108 12.2441C19.2363 11.9186 19.7639 11.9186 20.0893 12.2441C20.4148 12.5695 20.4148 13.0971 20.0893 13.4226L14.6727 18.8393C13.5218 19.9901 11.9609 20.6366 10.3334 20.6366C8.70588 20.6366 7.145 19.9901 5.99416 18.8393C4.84331 17.6884 4.19678 16.1275 4.19678 14.5C4.19678 12.8725 4.84331 11.3116 5.99416 10.1607L11.4108 4.74407Z" fill="#848E9C"/>
</svg>
