<?xml version="1.0" encoding="utf-8"?>
<!-- Generator: Adobe Illustrator 23.1.1, SVG Export Plug-In . SVG Version: 6.00 Build 0)  -->
<svg version="1.1" id="图层_1" xmlns="http://www.w3.org/2000/svg" xmlns:xlink="http://www.w3.org/1999/xlink" x="0px" y="0px"
	 viewBox="0 0 200 200" style="enable-background:new 0 0 200 200;" xml:space="preserve">
<style type="text/css">
	.st0{fill:#E44343;}
	.st1{opacity:0.25;enable-background:new    ;}
	.st2{fill:#FFFFFF;}
</style>
<g>
	<path class="st0" d="M49.3-1h64.8l56.5,60.3V179c0,11-9,19.9-19.9,19.9H49.3c-11,0-19.9-9-19.9-19.9V19C29.4,8,38.3-1,49.3-1z"/>
	<path class="st1" d="M114.1-1l56.5,60.3l-41-0.3c-9.4,0-15.6-6.2-15.6-15.6V-1L114.1-1z"/>
</g>
<path class="st2" d="M62.6,101.8H47c-2.2,0-3.9,1.8-3.9,3.9v44.6c0,2.2,1.8,3.9,3.9,3.9c2.2,0,3.9-1.8,3.9-3.9v-15.9h11.7
	c9,0,16.3-7.3,16.3-16.3S71.6,101.8,62.6,101.8z M62.6,126.6H50.9v-17h11.7c4.7,0,8.4,3.8,8.4,8.4C71.1,122.8,67.3,126.6,62.6,126.6
	z M153,126.6h-21.2v-17H153c2.2,0,3.9-1.8,3.9-3.9c0-2.2-1.8-3.9-3.9-3.9h-25.1c-2.2,0-3.9,1.8-3.9,3.9v44.6c0,2.2,1.8,3.9,3.9,3.9
	c2.1,0,3.9-1.8,3.9-3.9v-15.9H153c2.2,0,3.9-1.8,3.9-3.9S155.1,126.6,153,126.6z M92.4,101.8h-5.2c-2.2,0-3.9,1.8-3.9,3.9v44.6
	c0,2.2,1.8,3.9,3.9,3.9h5.2c14.4,0,26.2-11.8,26.2-26.2S106.8,101.8,92.4,101.8z M92.4,146.4h-1.3v-36.7h1.3
	c10.2,0,18.3,8.3,18.3,18.3S102.6,146.4,92.4,146.4z"/>
</svg>
