<?xml version="1.0" encoding="utf-8"?>
<!-- Generator: Adobe Illustrator 23.1.0, SVG Export Plug-In . SVG Version: 6.00 Build 0)  -->
<svg version="1.1" id="图层_1" xmlns="http://www.w3.org/2000/svg" xmlns:xlink="http://www.w3.org/1999/xlink" x="0px" y="0px"
	 viewBox="0 0 11.5 11.5" style="enable-background:new 0 0 11.5 11.5;" xml:space="preserve">
<style type="text/css">
	.st0{fill:#ADADAD;}
</style>
<path id="固定消息图标" class="st0" d="M4,7.9l1.8,1.8c0,0,0,0,0,0c0.1,0.1,0.3,0.1,0.5,0c0,0,0,0,0,0C7,8.8,7.2,7.7,6.9,6.7
	l1.4-1.8c0.6,0.1,1.1-0.1,1.5-0.5l0,0c0,0,0,0,0,0C10,4.2,10,4,9.9,3.9L7.7,1.7c0,0,0,0,0,0c-0.1-0.1-0.3-0.1-0.5,0
	C6.8,2.1,6.6,2.7,6.7,3.2L4.9,4.6C3.9,4.2,2.7,4.4,1.8,5.2C1.8,5.2,1.7,5.3,1.7,5.4l0,0c0,0.1,0,0.2,0.1,0.2l1.7,1.7L1.7,9.3l0,0
	c-0.1,0.1-0.1,0.3,0,0.5l0,0c0.1,0.1,0.3,0.1,0.5,0L4,7.9z"/>
</svg>
