<svg width="16" height="16" viewBox="0 0 16 16" fill="none" xmlns="http://www.w3.org/2000/svg">
<path fill-rule="evenodd" clip-rule="evenodd" d="M2.44434 8.55569C2.44434 7.94204 2.9418 7.44458 3.55545 7.44458H5.77767C6.39132 7.44458 6.88878 7.94204 6.88878 8.55569V11.889C6.88878 12.5027 6.39132 13.0001 5.77767 13.0001H3.55545C2.9418 13.0001 2.44434 12.5027 2.44434 11.889V8.55569ZM5.77767 8.55569H3.55545V11.889H5.77767V8.55569Z" fill="#474D57"/>
<path fill-rule="evenodd" clip-rule="evenodd" d="M5.77832 6.33303C5.77832 5.71939 6.27578 5.22192 6.88943 5.22192H9.11165C9.7253 5.22192 10.2228 5.71939 10.2228 6.33303V11.8886C10.2228 12.5022 9.7253 12.9997 9.11165 12.9997H6.88943C6.27578 12.9997 5.77832 12.5022 5.77832 11.8886V6.33303ZM9.11165 6.33303H6.88943V11.8886H9.11165V6.33303Z" fill="#474D57"/>
<path fill-rule="evenodd" clip-rule="evenodd" d="M9.11133 4.11111C9.11133 3.49746 9.60879 3 10.2224 3H12.4447C13.0583 3 13.5558 3.49746 13.5558 4.11111V11.8889C13.5558 12.5025 13.0583 13 12.4447 13H10.2224C9.60879 13 9.11133 12.5025 9.11133 11.8889V4.11111ZM12.4447 4.11111H10.2224V11.8889H12.4447V4.11111Z" fill="#474D57"/>
<path fill-rule="evenodd" clip-rule="evenodd" d="M3 12.4442C3 12.1374 3.24873 11.8887 3.55556 11.8887H11.3333C11.6402 11.8887 11.8889 12.1374 11.8889 12.4442C11.8889 12.7511 11.6402 12.9998 11.3333 12.9998H3.55556C3.24873 12.9998 3 12.7511 3 12.4442Z" fill="#474D57"/>
</svg>
