<?xml version="1.0" encoding="utf-8"?>
<!-- Generator: Adobe Illustrator 23.1.1, SVG Export Plug-In . SVG Version: 6.00 Build 0)  -->
<svg version="1.1" id="图层_1" xmlns="http://www.w3.org/2000/svg" xmlns:xlink="http://www.w3.org/1999/xlink" x="0px" y="0px"
	 viewBox="0 0 200 200" style="enable-background:new 0 0 200 200;" xml:space="preserve">
<style type="text/css">
	.st0{fill:#EE6240;}
	.st1{opacity:0.25;enable-background:new    ;}
	.st2{fill:#FFFFFF;}
</style>
<g>
	<path class="st0" d="M48.8-1h64.8l56.5,60.3V179c0,11-9,19.9-19.9,19.9H48.8c-11,0-19.9-9-19.9-19.9V19C28.9,8,37.8-1,48.8-1z"/>
	<path class="st1" d="M113.6-1l56.5,60.3l-41-0.3c-9.4,0-15.6-6.2-15.6-15.6V-1L113.6-1z"/>
</g>
<path class="st2" d="M104.2,97.2H83.3c-2.9,0-5.3,2.4-5.3,5.3v50.2c0,2.9,2.4,5.3,5.3,5.3c2.9,0,5.3-2.4,5.3-5.3V133h15.6l0,0
	c9.9,0,17.8-8,17.8-17.8C122,105.2,114.1,97.2,104.2,97.2z M104.2,122.4H88.5v-14.6h15.6l0,0c4,0,7.3,3.3,7.3,7.3
	C111.5,119.1,108.2,122.4,104.2,122.4z"/>
</svg>
