<svg width="24" height="24" viewBox="0 0 24 24" fill="none" xmlns="http://www.w3.org/2000/svg">
  <path fill-rule="evenodd" clip-rule="evenodd" d="M11.3076 5.835C10.1874 5.835 9.27083 6.74988 9.27083 7.88889C9.27083 9.0279 10.1874 9.94278 11.3076 9.94278C12.4279 9.94278 13.3444 9.0279 13.3444 7.88889C13.3444 6.74988 12.4279 5.835 11.3076 5.835ZM7.60083 7.88889C7.60083 5.83692 9.25575 4.165 11.3076 4.165C13.3595 4.165 15.0144 5.83692 15.0144 7.88889C15.0144 9.94086 13.3595 11.6128 11.3076 11.6128C9.25575 11.6128 7.60083 9.94086 7.60083 7.88889Z" fill="#848E9C"/>
  <path fill-rule="evenodd" clip-rule="evenodd" d="M14.6017 4.88562C14.7167 4.43904 15.172 4.17026 15.6186 4.28528C16.4169 4.4909 17.1235 4.95772 17.6276 5.61101C18.1317 6.26422 18.4048 7.06691 18.4048 7.8925C18.4048 8.7181 18.1317 9.52078 17.6276 10.174C17.1235 10.8273 16.4169 11.2941 15.6186 11.4997C15.172 11.6147 14.7167 11.346 14.6017 10.8994C14.4867 10.4528 14.7554 9.99753 15.202 9.8825C15.6392 9.76991 16.0276 9.51393 16.3055 9.15379C16.5834 8.79356 16.7348 8.34982 16.7348 7.8925C16.7348 7.43518 16.5834 6.99145 16.3055 6.63122C16.0276 6.27108 15.6392 6.01509 15.202 5.9025C14.7554 5.78748 14.4867 5.33221 14.6017 4.88562ZM9.87183 14.5017C9.33325 14.5017 8.81571 14.7168 8.43335 15.1015C8.05083 15.4863 7.83504 16.0092 7.83504 16.5556V17.165H14.7804V16.5556C14.7804 16.0092 14.5646 15.4863 14.1821 15.1015C13.7998 14.7168 13.2822 14.5017 12.7436 14.5017H9.87183ZM7.24898 13.9241C7.94376 13.2252 8.88713 12.8317 9.87183 12.8317H12.7436C13.7283 12.8317 14.6717 13.2252 15.3665 13.9241C16.0611 14.6229 16.4504 15.5695 16.4504 16.5556V18C16.4504 18.4612 16.0766 18.835 15.6154 18.835H7.00004C6.53888 18.835 6.16504 18.4612 6.16504 18V16.5556C6.16504 15.5695 6.55438 14.6229 7.24898 13.9241ZM16.038 13.5651C16.1539 13.1188 16.6097 12.8509 17.0561 12.9668C17.8492 13.1728 18.5514 13.6367 19.0537 14.2852C19.5559 14.9335 19.8303 15.7301 19.835 16.5508L19.8351 16.5556L19.835 18C19.835 18.4612 19.4612 18.835 19 18.835C18.5389 18.835 18.165 18.4612 18.165 18V16.5582C18.162 16.1044 18.01 15.6648 17.7334 15.3079C17.4566 14.9504 17.0706 14.696 16.6363 14.5832C16.1899 14.4673 15.9221 14.0115 16.038 13.5651Z" fill="#848E9C"/>
  <path fill-rule="evenodd" clip-rule="evenodd" d="M4.5 9C4.96024 9 5.33333 9.3731 5.33333 9.83333V10.6667H6.16667C6.6269 10.6667 7 11.0398 7 11.5C7 11.9602 6.6269 12.3333 6.16667 12.3333H5.33333V13.1667C5.33333 13.6269 4.96024 14 4.5 14C4.03976 14 3.66667 13.6269 3.66667 13.1667V12.3333H2.83333C2.3731 12.3333 2 11.9602 2 11.5C2 11.0398 2.3731 10.6667 2.83333 10.6667H3.66667V9.83333C3.66667 9.3731 4.03976 9 4.5 9Z" fill="#848E9C"/>
</svg>
