<svg width="16" height="16" viewBox="0 0 16 16" fill="none" xmlns="http://www.w3.org/2000/svg">
  <rect width="16" height="16" rx="2" fill="white"/>
  <rect width="16" height="16" rx="2" fill="#6F24C7" fill-opacity="0.1"/>
  <path d="M7.88672 12.1709C8.5638 12.1709 9.14811 12.0195 9.63965 11.7168C10.1344 11.4141 10.5137 10.9876 10.7773 10.4375C11.041 9.88411 11.1729 9.23145 11.1729 8.47949V8.46973C11.1729 7.71452 11.0394 7.06185 10.7725 6.51172C10.5088 5.95833 10.1312 5.5319 9.63965 5.23242C9.14811 4.93294 8.5638 4.7832 7.88672 4.7832C7.21289 4.7832 6.62858 4.93294 6.13379 5.23242C5.64225 5.5319 5.26302 5.95671 4.99609 6.50684C4.72917 7.05697 4.5957 7.71126 4.5957 8.46973V8.47949C4.5957 9.23145 4.72754 9.88411 4.99121 10.4375C5.25488 10.9909 5.63249 11.4189 6.12402 11.7217C6.61556 12.0212 7.20312 12.1709 7.88672 12.1709ZM7.88672 11.1992C7.43424 11.1992 7.04525 11.0869 6.71973 10.8623C6.39746 10.6377 6.14844 10.3219 5.97266 9.91504C5.80013 9.50488 5.71387 9.02637 5.71387 8.47949V8.46973C5.71387 7.91634 5.80339 7.4362 5.98242 7.0293C6.16146 6.6224 6.41211 6.30827 6.73438 6.08691C7.0599 5.86556 7.44401 5.75488 7.88672 5.75488C8.32943 5.75488 8.71354 5.86556 9.03906 6.08691C9.36458 6.30827 9.61523 6.6224 9.79102 7.0293C9.9668 7.4362 10.0547 7.91634 10.0547 8.46973V8.47949C10.0547 9.02637 9.9668 9.50488 9.79102 9.91504C9.61523 10.3219 9.36458 10.6377 9.03906 10.8623C8.71354 11.0869 8.32943 11.1992 7.88672 11.1992Z" fill="#6F24C7"/>
  <rect x="0.5" y="0.5" width="15" height="15" rx="1.5" stroke="#6F24C7" stroke-opacity="0.2"/>
</svg>
