<svg width="16" height="16" viewBox="0 0 16 16" fill="none" xmlns="http://www.w3.org/2000/svg">
  <rect width="16" height="16" rx="2" fill="white"/>
  <rect width="16" height="16" rx="2" fill="#D9271E" fill-opacity="0.1"/>
  <path d="M4.88379 12H7.42773C8.13086 12 8.72819 11.8617 9.21973 11.585C9.71452 11.305 10.0921 10.9014 10.3525 10.374C10.6162 9.84668 10.748 9.21029 10.748 8.46484V8.45508C10.748 7.71615 10.6162 7.08626 10.3525 6.56543C10.0921 6.0446 9.71452 5.64583 9.21973 5.36914C8.72493 5.09245 8.1276 4.9541 7.42773 4.9541H4.88379V12ZM5.97754 11.0527V5.90137H7.30566C7.79395 5.90137 8.21061 6.00228 8.55566 6.2041C8.90072 6.40592 9.16439 6.69889 9.34668 7.08301C9.53223 7.46712 9.625 7.92936 9.625 8.46973V8.47949C9.625 9.02311 9.53385 9.48698 9.35156 9.87109C9.17253 10.2552 8.90885 10.5482 8.56055 10.75C8.21549 10.9518 7.7972 11.0527 7.30566 11.0527H5.97754Z" fill="#D9271E"/>
  <rect x="0.5" y="0.5" width="15" height="15" rx="1.5" stroke="#D9271E" stroke-opacity="0.2"/>
</svg>
