<svg width="16" height="16" viewBox="0 0 16 16" fill="none" xmlns="http://www.w3.org/2000/svg">
  <rect width="16" height="16" rx="2" fill="#45E386" fill-opacity="0.15"/>
  <path d="M5.93066 9.59277H8.12793C8.59017 9.59277 8.99544 9.49674 9.34375 9.30469C9.69531 9.10938 9.97038 8.83757 10.1689 8.48926C10.3675 8.1377 10.4668 7.73242 10.4668 7.27344V7.26367C10.4668 6.80469 10.3675 6.40267 10.1689 6.05762C9.97038 5.70931 9.69531 5.43913 9.34375 5.24707C8.99544 5.05176 8.59017 4.9541 8.12793 4.9541H5.93066V5.87695H7.85449C8.32975 5.87695 8.69759 5.99902 8.95801 6.24316C9.22168 6.4873 9.35352 6.83073 9.35352 7.27344V7.2832C9.35352 7.7194 9.22168 8.0612 8.95801 8.30859C8.69759 8.55273 8.32975 8.6748 7.85449 8.6748H5.93066V9.59277ZM5.38379 12H6.47754V4.9541H5.38379V12Z" fill="#45E386"/>
  <rect x="0.5" y="0.5" width="15" height="15" rx="1.5" stroke="#45E386" stroke-opacity="0.4"/>
</svg>
