<svg width="16" height="16" viewBox="0 0 16 16" fill="none" xmlns="http://www.w3.org/2000/svg">
  <rect width="16" height="16" rx="2" fill="#82C1FC" fill-opacity="0.2"/>
  <path d="M5.38379 12H6.47754V9.29004H7.96191C7.97168 9.29004 7.98145 9.29004 7.99121 9.29004C8.00098 9.29004 8.01074 9.29004 8.02051 9.29004L9.45605 12H10.7207L9.14355 9.12402C9.57324 8.97754 9.90853 8.72526 10.1494 8.36719C10.3903 8.00586 10.5107 7.58757 10.5107 7.1123V7.10254C10.5107 6.66634 10.4147 6.28874 10.2227 5.96973C10.0339 5.64746 9.76367 5.39844 9.41211 5.22266C9.06055 5.04362 8.64388 4.9541 8.16211 4.9541H5.38379V12ZM6.47754 8.40137V5.87207H8.02051C8.44694 5.87207 8.77897 5.98438 9.0166 6.20898C9.25749 6.43359 9.37793 6.74121 9.37793 7.13184V7.1416C9.37793 7.54199 9.26237 7.85286 9.03125 8.07422C8.80013 8.29232 8.47461 8.40137 8.05469 8.40137H6.47754Z" fill="#B1DCFD"/>
  <rect x="0.5" y="0.5" width="15" height="15" rx="1.5" stroke="#82C1FC" stroke-opacity="0.4"/>
</svg>
