<svg width="19" height="18" viewBox="0 0 19 18" fill="none" xmlns="http://www.w3.org/2000/svg">
  <path fill-rule="evenodd" clip-rule="evenodd" d="M9.1958 4.00024C6.43438 4.00024 4.1958 6.23882 4.1958 9.00025C4.1958 11.7617 6.43438 14.0002 9.1958 14.0002C11.9572 14.0002 14.1958 11.7617 14.1958 9.00025C14.1958 6.23882 11.9572 4.00024 9.1958 4.00024ZM2.9458 9.00025C2.9458 5.54846 5.74402 2.75024 9.1958 2.75024C12.6476 2.75024 15.4458 5.54846 15.4458 9.00025C15.4458 12.452 12.6476 15.2502 9.1958 15.2502C5.74402 15.2502 2.9458 12.452 2.9458 9.00025Z" fill="#474D57"/>
  <path fill-rule="evenodd" clip-rule="evenodd" d="M6.6958 7.75C6.6958 7.40482 6.97562 7.125 7.3208 7.125H7.32705C7.67223 7.125 7.95205 7.40482 7.95205 7.75C7.95205 8.09518 7.67223 8.375 7.32705 8.375H7.3208C6.97562 8.375 6.6958 8.09518 6.6958 7.75ZM10.4458 7.75C10.4458 7.40482 10.7256 7.125 11.0708 7.125H11.0771C11.4222 7.125 11.7021 7.40482 11.7021 7.75C11.7021 8.09518 11.4222 8.375 11.0771 8.375H11.0708C10.7256 8.375 10.4458 8.09518 10.4458 7.75ZM7.19589 10.4286C7.44245 10.187 7.83816 10.191 8.07973 10.4376C8.22521 10.5861 8.39886 10.704 8.5905 10.7846C8.78214 10.8651 8.98793 10.9066 9.1958 10.9066C9.40367 10.9066 9.60946 10.8651 9.8011 10.7846C9.99274 10.704 10.1664 10.5861 10.3119 10.4376C10.5534 10.191 10.9492 10.187 11.1957 10.4286C11.4423 10.6701 11.4463 11.0659 11.2047 11.3124C10.9429 11.5797 10.6303 11.792 10.2853 11.937C9.94039 12.0819 9.56997 12.1566 9.1958 12.1566C8.82163 12.1566 8.45122 12.0819 8.10626 11.937C7.7613 11.792 7.44874 11.5797 7.18687 11.3124C6.9453 11.0659 6.94934 10.6701 7.19589 10.4286Z" fill="#474D57"/>
</svg>
