<?xml version="1.0" encoding="UTF-8" standalone="no"?>
<svg
   xmlns:dc="http://purl.org/dc/elements/1.1/"
   xmlns:cc="http://creativecommons.org/ns#"
   xmlns:rdf="http://www.w3.org/1999/02/22-rdf-syntax-ns#"
   xmlns:svg="http://www.w3.org/2000/svg"
   xmlns="http://www.w3.org/2000/svg"
   xmlns:sodipodi="http://sodipodi.sourceforge.net/DTD/sodipodi-0.dtd"
   xmlns:inkscape="http://www.inkscape.org/namespaces/inkscape"
   width="12px"
   height="12px"
   viewBox="0 0 12 12"
   version="1.1"
   id="svg849"
   sodipodi:docname="read-count.svg"
   inkscape:version="1.0.2 (e86c8708, 2021-01-15)">
  <metadata
     id="metadata853">
    <rdf:RDF>
      <cc:Work
         rdf:about="">
        <dc:format>image/svg+xml</dc:format>
        <dc:type
           rdf:resource="http://purl.org/dc/dcmitype/StillImage" />
        <dc:title>check</dc:title>
      </cc:Work>
    </rdf:RDF>
  </metadata>
  <sodipodi:namedview
     pagecolor="#ffffff"
     bordercolor="#666666"
     borderopacity="1"
     objecttolerance="10"
     gridtolerance="10"
     guidetolerance="10"
     inkscape:pageopacity="0"
     inkscape:pageshadow="2"
     inkscape:window-width="1748"
     inkscape:window-height="1067"
     id="namedview851"
     showgrid="false"
     inkscape:zoom="58.477573"
     inkscape:cx="6.090544"
     inkscape:cy="6.1402794"
     inkscape:window-x="14"
     inkscape:window-y="25"
     inkscape:window-maximized="0"
     inkscape:current-layer="Android-Light" />
  <!-- Generator: Sketch 50.2 (55047) - http://www.bohemiancoding.com/sketch -->
  <title
     id="title840">check</title>
  <desc
     id="desc842">Created with Sketch.</desc>
  <defs
     id="defs844" />
  <g
     id="Android-Light"
     stroke="none"
     stroke-width="1"
     fill="none"
     fill-rule="evenodd">
    <path
       d="m 6,0 c 3.312,0 6,2.688 6,6 0,3.312 -2.688,6 -6,6 C 2.688,12 0,9.312 0,6 0,2.688 2.688,0 6,0 Z M 6,1 C 3.24,1 1,3.24 1,6 1,8.76 3.24,11 6,11 8.76,11 11,8.76 11,6 11,3.24 8.76,1 6,1 Z M 5.323584,6.2826003 v 0 0 0 0 z"
       id="check"
       sodipodi:nodetypes="ssssssssssccccccc"
       style="fill:#000000;fill-rule:nonzero" />
  </g>
</svg>
