<?xml version="1.0" encoding="UTF-8" standalone="no"?>
<svg
   xmlns:dc="http://purl.org/dc/elements/1.1/"
   xmlns:cc="http://creativecommons.org/ns#"
   xmlns:rdf="http://www.w3.org/1999/02/22-rdf-syntax-ns#"
   xmlns:svg="http://www.w3.org/2000/svg"
   xmlns="http://www.w3.org/2000/svg"
   xmlns:sodipodi="http://sodipodi.sourceforge.net/DTD/sodipodi-0.dtd"
   xmlns:inkscape="http://www.inkscape.org/namespaces/inkscape"
   width="20"
   height="21.5"
   viewBox="0 0 20 21.5"
   version="1.1"
   id="svg845"
   sodipodi:docname="已读圈圈超过100条.svg"
   inkscape:version="1.0.2 (e86c8708, 2021-01-15)">
  <metadata
     id="metadata851">
    <rdf:RDF>
      <cc:Work
         rdf:about="">
        <dc:format>image/svg+xml</dc:format>
        <dc:type
           rdf:resource="http://purl.org/dc/dcmitype/StillImage" />
      </cc:Work>
    </rdf:RDF>
  </metadata>
  <defs
     id="defs849" />
  <sodipodi:namedview
     pagecolor="#ffffff"
     bordercolor="#666666"
     borderopacity="1"
     objecttolerance="10"
     gridtolerance="10"
     guidetolerance="10"
     inkscape:pageopacity="0"
     inkscape:pageshadow="2"
     inkscape:window-width="1746"
     inkscape:window-height="1067"
     id="namedview847"
     showgrid="false"
     inkscape:zoom="34.186047"
     inkscape:cx="10"
     inkscape:cy="10.75"
     inkscape:window-x="0"
     inkscape:window-y="25"
     inkscape:window-maximized="1"
     inkscape:current-layer="g837" />
  <g
     transform="translate(-301,2.5)"
     id="g843">
    <g
       transform="translate(301,-1)"
       fill="none"
       id="g837">
      <path
         d="M 10,0 A 10,10 0 1 1 0,10 10,10 0 0 1 10,0 Z"
         stroke="none"
         id="path833"
         style="fill:none;fill-opacity:1" />
      <path
         d="m 10,1.5 c -4.6869202,0 -8.5,3.8130798 -8.5,8.5 0,4.68692 3.8130798,8.5 8.5,8.5 4.68692,0 8.5,-3.81308 8.5,-8.5 C 18.5,5.3130798 14.68692,1.5 10,1.5 M 10,0 C 15.52285,0 20,4.47715 20,10 20,15.52285 15.52285,20 10,20 4.47715,20 0,15.52285 0,10 0,4.47715 4.47715,0 10,0 Z"
         stroke="none"
         id="path835"
         style="fill:#000000;fill-opacity:1" />
    </g>
    <text
       transform="translate(311,10.5)"
       font-size="12px"
       font-family="PingFangSC-Semibold, 'PingFang SC'"
       font-weight="600"
       id="text841"><tspan
         x="-6"
         y="0"
         id="tspan839">…</tspan></text>
  </g>
</svg>
