<svg width="12" height="12" viewBox="0 0 12 12" fill="none" xmlns="http://www.w3.org/2000/svg">
<path d="M6.66667 5.73333L8.33333 7.4C8.45556 7.52222 8.51667 7.67778 8.51667 7.86667C8.51667 8.05556 8.45556 8.21111 8.33333 8.33333C8.21111 8.45556 8.05556 8.51667 7.86667 8.51667C7.67778 8.51667 7.52222 8.45556 7.4 8.33333L5.53333 6.46667C5.46667 6.4 5.41667 6.32489 5.38333 6.24133C5.35 6.15822 5.33333 6.07222 5.33333 5.98333V3.33333C5.33333 3.14444 5.39733 2.986 5.52533 2.858C5.65289 2.73044 5.81111 2.66667 6 2.66667C6.18889 2.66667 6.34733 2.73044 6.47533 2.858C6.60289 2.986 6.66667 3.14444 6.66667 3.33333V5.73333ZM6 12C5.16667 12 4.38622 11.8418 3.65867 11.5253C2.93067 11.2084 2.29733 10.7804 1.75867 10.2413C1.21956 9.70267 0.791556 9.06933 0.474667 8.34133C0.158222 7.61378 0 6.83333 0 6C0 5.16667 0.158222 4.386 0.474667 3.658C0.791556 2.93044 1.21956 2.29711 1.75867 1.758C2.29733 1.21933 2.93067 0.791556 3.65867 0.474667C4.38622 0.158222 5.16667 0 6 0C6.91111 0 7.77511 0.194444 8.592 0.583333C9.40844 0.972222 10.1 1.52222 10.6667 2.23333V1.33333C10.6667 1.14444 10.7307 0.986 10.8587 0.858C10.9862 0.730445 11.1444 0.666667 11.3333 0.666667C11.5222 0.666667 11.6804 0.730445 11.808 0.858C11.936 0.986 12 1.14444 12 1.33333V4C12 4.18889 11.936 4.34711 11.808 4.47467C11.6804 4.60267 11.5222 4.66667 11.3333 4.66667H8.66667C8.47778 4.66667 8.31956 4.60267 8.192 4.47467C8.064 4.34711 8 4.18889 8 4C8 3.81111 8.064 3.65267 8.192 3.52467C8.31956 3.39711 8.47778 3.33333 8.66667 3.33333H9.83333C9.37778 2.71111 8.81667 2.22222 8.15 1.86667C7.48333 1.51111 6.76667 1.33333 6 1.33333C4.7 1.33333 3.59733 1.786 2.692 2.69133C1.78622 3.59711 1.33333 4.7 1.33333 6C1.33333 7.3 1.78622 8.40267 2.692 9.308C3.59733 10.2138 4.7 10.6667 6 10.6667C7.02222 10.6667 7.94733 10.3667 8.77533 9.76667C9.60289 9.16667 10.1611 8.37778 10.45 7.4C10.5056 7.21111 10.6084 7.05267 10.7587 6.92467C10.9084 6.79711 11.0778 6.75556 11.2667 6.8C11.4667 6.84444 11.6138 6.95556 11.708 7.13333C11.8027 7.31111 11.8222 7.5 11.7667 7.7C11.4 8.97778 10.6833 10.0138 9.61667 10.808C8.55 11.6027 7.34444 12 6 12Z" fill="white"/>
</svg>
