<svg width="24" height="24" viewBox="0 0 24 24" fill="none" xmlns="http://www.w3.org/2000/svg">
  <path fill-rule="evenodd" clip-rule="evenodd" d="M12.0001 5.33333C8.31818 5.33333 5.33341 8.3181 5.33341 12C5.33341 15.6819 8.31818 18.6667 12.0001 18.6667C15.682 18.6667 18.6667 15.6819 18.6667 12C18.6667 8.3181 15.682 5.33333 12.0001 5.33333ZM3.66675 12C3.66675 7.39762 7.39771 3.66666 12.0001 3.66666C16.6025 3.66666 20.3334 7.39762 20.3334 12C20.3334 16.6024 16.6025 20.3333 12.0001 20.3333C7.39771 20.3333 3.66675 16.6024 3.66675 12Z" fill="#848E9C"/>
  <path d="M9.30005 15.2874H11.1109V12.8425H11.9645C11.9777 12.8425 11.9908 12.8425 12.004 12.8425C12.0204 12.8425 12.0352 12.8425 12.0484 12.8425L13.2672 15.2874H15.3L13.879 12.5757C14.2672 12.4076 14.5665 12.144 14.777 11.785C14.9875 11.426 15.0928 11.0331 15.0928 10.6062V10.5965C15.0928 10.1146 14.9892 9.70231 14.782 9.35951C14.5747 9.01347 14.2704 8.74828 13.8691 8.56394C13.4711 8.37961 12.9793 8.28744 12.3938 8.28744H9.30005V15.2874ZM11.1109 11.6201V9.63117H12.1816C12.5073 9.63117 12.7655 9.72333 12.9563 9.90767C13.1471 10.0888 13.2425 10.3265 13.2425 10.6208V10.6305C13.2425 10.9345 13.1487 11.1754 12.9612 11.3533C12.7737 11.5311 12.5172 11.6201 12.1915 11.6201H11.1109Z" fill="#848E9C"/>
</svg>
