<svg width="19" height="18" viewBox="0 0 19 18" fill="none" xmlns="http://www.w3.org/2000/svg">
  <path fill-rule="evenodd" clip-rule="evenodd" d="M4.25585 4.90795C4.51706 4.64675 4.87133 4.5 5.24073 4.5H7.32998C7.69939 4.5 8.05366 4.64675 8.31486 4.90795C8.57607 5.16916 8.72282 5.52343 8.72282 5.89283V10.0713C8.72282 11.1177 8.45951 12.0377 7.87387 12.7697C7.29 13.4996 6.44333 13.9705 5.4097 14.229C5.03657 14.3223 4.65844 14.0955 4.56513 13.7224C4.47181 13.3493 4.69864 12.9711 5.07177 12.8778C5.89548 12.6718 6.44164 12.3304 6.78627 11.8996C7.12913 11.4711 7.32998 10.8823 7.32998 10.0713V9.37492H5.24073C4.87133 9.37492 4.51706 9.22817 4.25585 8.96697C3.99465 8.70576 3.8479 8.35149 3.8479 7.98208V5.89283C3.8479 5.52343 3.99465 5.16916 4.25585 4.90795ZM7.32998 7.98208V5.89283L5.24073 5.89283L5.24073 7.98208H7.32998ZM10.5236 4.90795C10.7848 4.64675 11.1391 4.5 11.5085 4.5H13.5977C13.9671 4.5 14.3214 4.64674 14.5826 4.90795C14.8438 5.16916 14.9906 5.52343 14.9906 5.89283V10.0713C14.9906 11.1177 14.7273 12.0377 14.1416 12.7697C13.5577 13.4996 12.7111 13.9705 11.6774 14.229C11.3043 14.3223 10.9262 14.0955 10.8329 13.7224C10.7396 13.3493 10.9664 12.9711 11.3395 12.8778C12.1632 12.6718 12.7094 12.3304 13.054 11.8996C13.3969 11.4711 13.5977 10.8823 13.5977 10.0713V9.37492H11.5085C11.1391 9.37492 10.7848 9.22817 10.5236 8.96697C10.2624 8.70576 10.1156 8.35149 10.1156 7.98208V5.89283C10.1156 5.52343 10.2624 5.16916 10.5236 4.90795ZM13.5977 7.98208V5.89283H11.5085V7.98208H13.5977Z" fill="#474D57"/>
</svg>
