<svg xmlns="http://www.w3.org/2000/svg" width="26" height="26" viewBox="0 0 26 26">
  <defs>
    <style>
      .cls-1, .cls-2 {
        fill: none;
      }

      .cls-3, .cls-4 {
        stroke: none;
      }

      .cls-4 {
        fill: #3d98f1;
      }
    </style>
  </defs>
  <g id="聊天" transform="translate(-0.237 -0.723)">
    <rect id="矩形_136" data-name="矩形 136" class="cls-1" width="26" height="26" transform="translate(0.237 0.723)"/>
    <g id="聊天图标" class="cls-2" transform="translate(-10.127 -16.027)">
      <path class="cls-3" d="M23.333,19.824c-5.982,0-10.833,4.2-10.833,9.375a8.785,8.785,0,0,0,3.25,6.7v3.782l4-1.627a12.324,12.324,0,0,0,3.584.525c5.982,0,10.833-4.2,10.833-9.375S29.316,19.824,23.333,19.824Z"/>
      <path class="cls-4" d="M 23.33330345153809 21.12399291992188 C 18.07662391662598 21.12399291992188 13.80000305175781 24.74651336669922 13.80000305175781 29.19920349121094 C 13.80000305175781 31.34936332702637 14.79137420654297 33.37542343139648 16.59149360656738 34.9041633605957 L 17.04998397827148 35.29353332519531 L 17.04998397827148 35.89505004882812 L 17.04998397827148 37.74458312988281 L 19.25968360900879 36.84545135498047 L 19.68662261962891 36.67172241210938 L 20.12764358520508 36.80575180053711 C 21.15093421936035 37.11672210693359 22.22947311401367 37.2744026184082 23.33330345153809 37.2744026184082 C 28.5899829864502 37.2744026184082 32.86660385131836 33.65188217163086 32.86660385131836 29.19920349121094 C 32.86660385131836 24.74651336669922 28.5899829864502 21.12399291992188 23.33330345153809 21.12399291992188 M 23.33330345153809 19.82399368286133 C 29.31575393676758 19.82399368286133 34.16660308837891 24.02188110351562 34.16660308837891 29.19920349121094 C 34.16660308837891 34.37641143798828 29.31575393676758 38.57440185546875 23.33330345153809 38.57440185546875 C 22.07824325561523 38.57440185546875 20.87160301208496 38.39054107666016 19.74964332580566 38.04958343505859 L 15.7499828338623 39.67705535888672 L 15.7499828338623 35.89505004882812 C 13.74539184570312 34.19267272949219 12.50000381469727 31.82284355163574 12.50000381469727 29.19920349121094 C 12.50000381469727 24.02188110351562 17.35084342956543 19.82399368286133 23.33330345153809 19.82399368286133 Z"/>
    </g>
  </g>
</svg>
