<svg width="24" height="24" viewBox="0 0 24 24" fill="none" xmlns="http://www.w3.org/2000/svg">
  <path fill-rule="evenodd" clip-rule="evenodd" d="M10.5368 6.32926C8.21308 6.32926 6.32933 8.21293 6.32933 10.5366C6.32933 12.8602 8.21308 14.7438 10.5368 14.7438C12.8605 14.7438 14.7443 12.8602 14.7443 10.5366C14.7443 8.21293 12.8605 6.32926 10.5368 6.32926ZM4.5 10.5366C4.5 7.20266 7.20277 4.5 10.5368 4.5C13.8708 4.5 16.5736 7.20266 16.5736 10.5366C16.5736 13.8704 13.8708 16.5731 10.5368 16.5731C7.20277 16.5731 4.5 13.8704 4.5 10.5366Z" fill="#848E9C"/>
  <path fill-rule="evenodd" clip-rule="evenodd" d="M13.5482 13.5484C13.9054 13.1912 14.4845 13.1912 14.8417 13.5484L19.2321 17.9386C19.5893 18.2958 19.5893 18.8749 19.2321 19.2321C18.8749 19.5893 18.2958 19.5893 17.9386 19.2321L13.5482 14.8419C13.191 14.4847 13.191 13.9056 13.5482 13.5484Z" fill="#848E9C"/>
</svg>
