<svg width="16" height="16" viewBox="0 0 16 16" fill="none" xmlns="http://www.w3.org/2000/svg">
  <g clip-path="url(#clip0_2747_38056)">
    <path fill-rule="evenodd" clip-rule="evenodd" d="M3.52876 3.52851C3.78911 3.26816 4.21122 3.26816 4.47157 3.52851L8.00016 7.05711L11.5288 3.52851C11.7891 3.26816 12.2112 3.26816 12.4716 3.52851C12.7319 3.78886 12.7319 4.21097 12.4716 4.47132L8.94297 7.99992L12.4716 11.5285C12.7319 11.7889 12.7319 12.211 12.4716 12.4713C12.2112 12.7317 11.7891 12.7317 11.5288 12.4713L8.00016 8.94273L4.47157 12.4713C4.21122 12.7317 3.78911 12.7317 3.52876 12.4713C3.26841 12.211 3.26841 11.7889 3.52876 11.5285L7.05735 7.99992L3.52876 4.47132C3.26841 4.21097 3.26841 3.78886 3.52876 3.52851Z" fill="#B7BDC6"/>
    <rect width="16" height="16" rx="2" fill="#474D57"/>
    <path fill-rule="evenodd" clip-rule="evenodd" d="M4.69043 11.2082L4.68944 11.2092L6.10366 12.6234L6.10464 12.6224L6.10473 12.6225L7.51895 11.2083L7.51886 11.2082L13.6461 5.08096L12.2319 3.66675L6.10464 9.79402L3.74771 7.43709L2.3335 8.8513L4.69043 11.2082Z" fill="#5E6673"/>
  </g>
  <defs>
    <clipPath id="clip0_2747_38056">
      <rect width="16" height="16" fill="white"/>
    </clipPath>
  </defs>
</svg>
