<svg width="45" height="44" viewBox="0 0 45 44" fill="none" xmlns="http://www.w3.org/2000/svg">
<rect x="0.0546875" width="44" height="44" rx="22" fill="#1E2329"/>
<path d="M19.8321 21.2594C21.4685 21.2594 22.7951 19.9329 22.7951 18.2965C22.7951 16.6601 21.4685 15.3335 19.8321 15.3335C18.1957 15.3335 16.8691 16.6601 16.8691 18.2965C16.8691 19.9329 18.1957 21.2594 19.8321 21.2594Z" stroke="white" stroke-width="1.66667" stroke-linecap="round" stroke-linejoin="round"/>
<path d="M25.0183 15.4298C25.6556 15.593 26.2206 15.9637 26.624 16.4834C27.0274 17.0031 27.2463 17.6423 27.2463 18.3002C27.2463 18.9581 27.0274 19.5973 26.624 20.117C26.2206 20.6367 25.6556 21.0074 25.0183 21.1706M28.722 28.6668V27.1854C28.7182 26.5314 28.4982 25.8971 28.0963 25.3812C27.6943 24.8654 27.133 24.497 26.4998 24.3335M15.3887 28.6668V27.1854C15.3887 26.3995 15.7008 25.6459 16.2565 25.0902C16.8122 24.5346 17.5658 24.2224 18.3516 24.2224H21.3146C22.1004 24.2224 22.8541 24.5346 23.4097 25.0902C23.9654 25.6459 24.2776 26.3995 24.2776 27.1854V28.6668H15.3887Z" stroke="white" stroke-width="1.66667" stroke-linecap="round" stroke-linejoin="round"/>
</svg>
