<svg width="24" height="24" viewBox="0 0 24 24" fill="none" xmlns="http://www.w3.org/2000/svg">
  <path fill-rule="evenodd" clip-rule="evenodd" d="M12.0001 5.33333C8.31818 5.33333 5.33341 8.3181 5.33341 12C5.33341 15.6819 8.31818 18.6667 12.0001 18.6667C15.682 18.6667 18.6667 15.6819 18.6667 12C18.6667 8.3181 15.682 5.33333 12.0001 5.33333ZM3.66675 12C3.66675 7.39762 7.39771 3.66666 12.0001 3.66666C16.6025 3.66666 20.3334 7.39762 20.3334 12C20.3334 16.6024 16.6025 20.3333 12.0001 20.3333C7.39771 20.3333 3.66675 16.6024 3.66675 12Z" fill="#848E9C"/>
  <path fill-rule="evenodd" clip-rule="evenodd" d="M8.66675 10.3333C8.66675 9.8731 9.03984 9.5 9.50008 9.5H9.50841C9.96865 9.5 10.3417 9.8731 10.3417 10.3333C10.3417 10.7936 9.96865 11.1667 9.50841 11.1667H9.50008C9.03984 11.1667 8.66675 10.7936 8.66675 10.3333ZM13.6667 10.3333C13.6667 9.8731 14.0398 9.5 14.5001 9.5H14.5084C14.9687 9.5 15.3417 9.8731 15.3417 10.3333C15.3417 10.7936 14.9687 11.1667 14.5084 11.1667H14.5001C14.0398 11.1667 13.6667 10.7936 13.6667 10.3333ZM9.33354 13.9048C9.66228 13.5827 10.1899 13.588 10.512 13.9168C10.706 14.1148 10.9375 14.272 11.193 14.3794C11.4485 14.4868 11.7229 14.5421 12.0001 14.5421C12.2772 14.5421 12.5516 14.4868 12.8071 14.3794C13.0627 14.272 13.2942 14.1148 13.4882 13.9168C13.8103 13.588 14.3379 13.5827 14.6666 13.9048C14.9954 14.2269 15.0008 14.7545 14.6787 15.0832C14.3295 15.4396 13.9127 15.7227 13.4528 15.9159C12.9929 16.1092 12.499 16.2088 12.0001 16.2088C11.5012 16.2088 11.0073 16.1092 10.5474 15.9159C10.0874 15.7227 9.67067 15.4396 9.32151 15.0832C8.99941 14.7545 9.0048 14.2269 9.33354 13.9048Z" fill="#848E9C"/>
</svg>
