<svg width="24" height="24" viewBox="0 0 24 24" fill="none" xmlns="http://www.w3.org/2000/svg">
<path d="M17.5 8.3C17.5 7.85817 17.8582 7.5 18.3 7.5H20.2C20.6418 7.5 21 7.85817 21 8.3C21 8.74183 20.6418 9.1 20.2 9.1H18.3C17.8582 9.1 17.5 8.74183 17.5 8.3ZM17.5 11.5C17.5 11.0582 17.8582 10.7 18.3 10.7H20.2C20.6418 10.7 21 11.0582 21 11.5C21 11.9418 20.6418 12.3 20.2 12.3H18.3C17.8582 12.3 17.5 11.9418 17.5 11.5ZM17.5 14.7C17.5 14.2582 17.8582 13.9 18.3 13.9H20.2C20.6418 13.9 21 14.2582 21 14.7C21 15.1418 20.6418 15.5 20.2 15.5H18.3C17.8582 15.5 17.5 15.1418 17.5 14.7Z" fill="#707A8A"/>
<circle cx="11.5" cy="10.5" r="2.5" stroke="#707A8A" stroke-width="2"/>
<path d="M7.05614 15.6696C6.87369 16.1909 7.14837 16.7614 7.66965 16.9439C8.19093 17.1263 8.76141 16.8516 8.94386 16.3304L7.05614 15.6696ZM14.1362 16.5039C14.4145 16.9809 15.0268 17.1421 15.5039 16.8638C15.9809 16.5855 16.1421 15.9732 15.8638 15.4961L14.1362 16.5039ZM8.94386 16.3304C8.94153 16.337 8.97845 16.2442 9.09014 16.0922C9.19469 15.95 9.34704 15.7805 9.55235 15.6187C9.95234 15.3034 10.5733 15 11.5 15V13C8.66224 13 7.32389 14.9047 7.05614 15.6696L8.94386 16.3304ZM11.5 15C12.361 15 13.0138 15.3646 13.4742 15.7593C13.7046 15.9568 13.878 16.155 13.9919 16.3014C14.0484 16.3741 14.0889 16.4322 14.1133 16.4688C14.1254 16.487 14.1334 16.4996 14.1373 16.5058C14.1392 16.5089 14.1401 16.5104 14.1399 16.5101C14.1398 16.51 14.1395 16.5094 14.1389 16.5084C14.1385 16.5078 14.1382 16.5072 14.1377 16.5065C14.1375 16.5061 14.1373 16.5057 14.137 16.5053C14.1369 16.505 14.1367 16.5047 14.1366 16.5046C14.1364 16.5042 14.1362 16.5039 15 16C15.8638 15.4961 15.8636 15.4958 15.8633 15.4954C15.8633 15.4952 15.863 15.4948 15.8629 15.4946C15.8625 15.494 15.8622 15.4934 15.8618 15.4928C15.8611 15.4916 15.8603 15.4902 15.8594 15.4887C15.8577 15.4858 15.8556 15.4823 15.8533 15.4784C15.8485 15.4706 15.8426 15.4608 15.8354 15.4492C15.821 15.4261 15.8017 15.3958 15.7774 15.3594C15.7288 15.2865 15.6599 15.1884 15.5706 15.0736C15.3928 14.845 15.1287 14.5432 14.7758 14.2407C14.0695 13.6354 12.9723 13 11.5 13V15Z" fill="#707A8A"/>
<path d="M17 20H6V22H17V20ZM5 19L5 5L3 5L3 19H5ZM6 4H17V2H6V4ZM18 16.9453C18 18.0902 18 18.4472 18 18.9997H20C20 18.4477 20 18.0897 20 16.9453H18ZM18 5L18 6.17647H20L20 5H18ZM17 4C17.5523 4 18 4.44771 18 5H20C20 3.34314 18.6569 2 17 2V4ZM5 5C5 4.44771 5.44772 4 6 4V2C4.34315 2 3 3.34315 3 5L5 5ZM6 20C5.44772 20 5 19.5523 5 19H3C3 20.6569 4.34315 22 6 22V20ZM17 22C18.6571 22 20 20.6563 20 18.9997H18C18 19.5522 17.5521 20 17 20V22Z" fill="#707A8A"/>
</svg>
