<svg width="24" height="24" viewBox="0 0 24 24" fill="none" xmlns="http://www.w3.org/2000/svg">
<path d="M3.24811 20.3649C2.90456 20.4159 2.61487 20.1098 2.68483 19.7696L3.42892 16.1513C2.18053 14.0742 1.72892 11.6144 2.15806 9.22921C2.58719 6.84407 3.86788 4.69593 5.76199 3.18418C7.6561 1.67244 10.0348 0.899966 12.4557 1.01039C14.8766 1.12082 17.175 2.10664 18.9236 3.78454C20.6723 5.46245 21.7521 7.71826 21.9623 10.1326C22.1725 12.5469 21.4988 14.9554 20.0665 16.9102C18.6342 18.8651 16.5407 20.2333 14.1753 20.7605C11.8099 21.2877 9.33358 20.938 7.20669 19.7763L3.24811 20.3649ZM16.4289 11.0263C16.4289 11.0312 16.4289 11.0388 16.4289 11.0388Z" fill="url(#paint0_linear_212_3025)"/>
<circle cx="8" cy="11" r="1" fill="white"/>
<circle cx="12" cy="11" r="1" fill="white"/>
<circle cx="16" cy="11" r="1" fill="white"/>
<circle cx="19" cy="17" r="4" fill="url(#paint1_linear_212_3025)"/>
<defs>
<linearGradient id="paint0_linear_212_3025" x1="22.0351" y1="19.6957" x2="1.55762" y2="19.1979" gradientUnits="userSpaceOnUse">
<stop stop-color="#1773EB"/>
<stop offset="1" stop-color="#4DA0FF"/>
</linearGradient>
<linearGradient id="paint1_linear_212_3025" x1="23.014" y1="20.4783" x2="14.823" y2="20.2791" gradientUnits="userSpaceOnUse">
<stop stop-color="#009BFF" stop-opacity="0.25"/>
<stop offset="1" stop-color="#AAE0FF"/>
</linearGradient>
</defs>
</svg>
