<svg width="21" height="20" viewBox="0 0 21 20" fill="none" xmlns="http://www.w3.org/2000/svg">
  <path d="M9.13977 11.6666C9.41134 11.9438 9.73548 12.164 10.0932 12.3143C10.4509 12.4646 10.8351 12.542 11.2231 12.542C11.6111 12.542 11.9953 12.4646 12.353 12.3143C12.7107 12.164 13.0349 11.9438 13.3064 11.6666L16.6398 8.33326C17.1923 7.78073 17.5027 7.03133 17.5027 6.24993C17.5027 5.46853 17.1923 4.71913 16.6398 4.16659C16.0872 3.61406 15.3378 3.30365 14.5564 3.30365C13.775 3.30365 13.0256 3.61406 12.4731 4.16659L12.0564 4.58326" stroke="#848E9C" stroke-width="1.67016" stroke-linecap="round" stroke-linejoin="round"/>
  <path d="M12.4742 8.33325C12.2026 8.05608 11.8785 7.83589 11.5208 7.68557C11.163 7.53525 10.7789 7.45782 10.3909 7.45782C10.0028 7.45782 9.61872 7.53525 9.26098 7.68557C8.90325 7.83589 8.57911 8.05608 8.30755 8.33325L4.97421 11.6666C4.42168 12.2191 4.11127 12.9685 4.11127 13.7499C4.11127 14.5313 4.42168 15.2807 4.97421 15.8333C5.52675 16.3858 6.27614 16.6962 7.05755 16.6962C7.83895 16.6962 8.58834 16.3858 9.14088 15.8333L9.55755 15.4166" stroke="#848E9C" stroke-width="1.67016" stroke-linecap="round" stroke-linejoin="round"/>
</svg>
