<svg width="21" height="20" viewBox="0 0 21 20" fill="none" xmlns="http://www.w3.org/2000/svg">
  <path d="M17.0695 9.16665C16.8657 7.70016 16.1854 6.34136 15.1334 5.29956C14.0814 4.25776 12.716 3.59074 11.2476 3.40127C9.77919 3.2118 8.28922 3.51038 7.00721 4.25102C5.72519 4.99165 4.72225 6.13326 4.15287 7.49998M3.73621 4.16665V7.49998H7.06954M3.73621 10.8333C3.94001 12.2998 4.62032 13.6586 5.67234 14.7004C6.72437 15.7422 8.08974 16.4092 9.55815 16.5987C11.0266 16.7882 12.5165 16.4896 13.7985 15.7489C15.0806 15.0083 16.0835 13.8667 16.6529 12.5M17.0695 15.8333V12.5H13.7362" stroke="#848E9C" stroke-width="1.67016" stroke-linecap="round" stroke-linejoin="round"/>
</svg>
