<svg width="21" height="20" viewBox="0 0 21 20" fill="none" xmlns="http://www.w3.org/2000/svg">
  <g clip-path="url(#clip0_713_5738)">
    <path d="M18.1175 8.75256L13.3558 3.66839C13.2087 3.50934 13.016 3.39962 12.8041 3.35422C12.5956 3.31102 12.3786 3.33554 12.185 3.42422C11.9857 3.5162 11.8186 3.66566 11.705 3.85339C11.5883 4.04506 11.525 4.27006 11.525 4.49922V7.05756C9.37497 7.23839 7.3183 8.07839 5.5933 9.48006C3.86831 10.8817 2.54664 12.7867 1.78331 14.9717C1.76837 15.0176 1.76693 15.0667 1.77914 15.1134C1.79069 15.1595 1.81597 15.2011 1.85164 15.2326C1.88546 15.2627 1.92842 15.2805 1.97362 15.2832C2.01882 15.286 2.06362 15.2734 2.10081 15.2476C4.94831 13.3642 8.19164 12.2951 11.525 12.1417V14.6676C11.525 14.8976 11.5875 15.1217 11.705 15.3134C11.8225 15.5051 11.99 15.6542 12.185 15.7426C12.3808 15.8317 12.5966 15.8559 12.8041 15.8126C13.0125 15.7692 13.2041 15.6601 13.3558 15.4984L18.1175 10.4151C18.2191 10.3059 18.2991 10.1767 18.3541 10.0334C18.4654 9.74371 18.4654 9.42307 18.3541 9.13339C18.3003 8.99248 18.22 8.8632 18.1175 8.75256Z" stroke="#848E9C" stroke-width="1.67016"/>
  </g>
  <defs>
    <clipPath id="clip0_713_5738">
      <rect width="20" height="20" fill="white" transform="translate(0.104492)"/>
    </clipPath>
  </defs>
</svg>
