<svg width="28" height="16" viewBox="0 0 28 16" fill="none" xmlns="http://www.w3.org/2000/svg">
  <path d="M4.88379 12H9.35645V11.0527H5.97754V8.86523H9.17578V7.95703H5.97754V5.90137H9.35645V4.9541H4.88379V12ZM10.4844 12H11.7002L13.7266 8.91406L12.999 9.31445H13.5068L15.2598 12H16.5439L13.9365 8.10352L14.2002 8.97266V8.47461L16.5879 4.9541H15.3477L13.3457 8.08887L14.0635 7.68359H13.5605L11.8174 4.9541H10.5088L12.8281 8.44043V8.93359L13.0869 8.06445L10.4844 12ZM19.6982 12H20.792V5.90137H23.0088V4.9541H17.4814V5.90137H19.6982V12Z" fill="#FF8800"/>
  <rect x="0.5" y="0.5" width="27" height="15" rx="1.5" stroke="#FF8800" stroke-opacity="0.4"/>
</svg>
