<?xml version="1.0" encoding="utf-8"?>
<!-- Generator: Adobe Illustrator 23.1.1, SVG Export Plug-In . SVG Version: 6.00 Build 0)  -->
<svg version="1.1" id="图层_1" xmlns="http://www.w3.org/2000/svg" xmlns:xlink="http://www.w3.org/1999/xlink" x="0px" y="0px"
	 viewBox="0 0 19.7 19.9" style="enable-background:new 0 0 19.7 19.9;" xml:space="preserve">
<style type="text/css">
	.st0{fill:#6C6C6C;}
	.st1{fill:none;stroke:#707070;stroke-width:1.5;stroke-linecap:round;stroke-linejoin:round;}
	.st2{fill:none;}
	.st3{fill:none;stroke:#707070;stroke-width:1.5;}
</style>
<g id="创建任务" transform="translate(-0.154)">
	<path id="路径_1022" class="st0" d="M8.6,18.3H3c-0.8,0-1.4-0.6-1.4-1.4c0,0,0,0,0,0V2.8C1.6,2,2.2,1.4,3,1.4h12.7
		C16.4,1.4,17,2,17,2.8c0,0,0,0,0,0v4.8c0.5,0.2,1,0.5,1.4,0.8V2.8c0-1.6-1.3-2.8-2.8-2.8H3C1.4,0,0.2,1.3,0.2,2.8v14.1
		c0,1.6,1.3,2.8,2.8,2.8H10C9.5,19.3,9,18.8,8.6,18.3z"/>
	<path id="路径_1023" class="st0" d="M14.3,8.7c-3.1,0-5.6,2.5-5.6,5.6c0,3.1,2.5,5.6,5.6,5.6c3.1,0,5.6-2.5,5.6-5.6
		C19.9,11.2,17.4,8.7,14.3,8.7L14.3,8.7z M14.3,18.5c-2.3,0-4.2-1.9-4.2-4.2c0-2.3,1.9-4.2,4.2-4.2c2.3,0,4.2,1.9,4.2,4.2
		c0,0,0,0,0,0C18.5,16.6,16.6,18.5,14.3,18.5L14.3,18.5L14.3,18.5z"/>
	<path id="路径_1024" class="st0" d="M9,3.7C8.7,3.4,8.3,3.4,8,3.7L5.5,6.2l-1-1c-0.3-0.3-0.7-0.3-1,0c-0.3,0.3-0.3,0.7,0,1
		c0,0,0,0,0,0l1.4,1.4c0,0.1,0.1,0.1,0.1,0.2C5.1,8,5.3,8,5.5,8C5.7,8,5.9,7.9,6,7.8c0,0,0,0,0-0.1l3-3C9.3,4.5,9.3,4,9,3.7
		C9,3.7,9,3.7,9,3.7L9,3.7z M11.5,5c-0.4,0-0.8,0.3-0.8,0.8c0,0.4,0.3,0.8,0.8,0.8c0,0,0,0,0,0H16c0.4,0,0.8-0.3,0.8-0.8
		C16.8,5.3,16.5,5,16,5H11.5z"/>
	<polyline id="直线_46_2_" class="st1" points="16.4,13.1 14.1,16.1 12.4,14.7 	"/>
	<g id="椭圆_33" transform="translate(3.788 10.89)">
		<circle class="st2" cx="2" cy="2" r="2"/>
		<circle class="st3" cx="2" cy="2" r="1.2"/>
	</g>
</g>
</svg>
