<svg width="16" height="16" viewBox="0 0 16 16" fill="none" xmlns="http://www.w3.org/2000/svg">
<path fill-rule="evenodd" clip-rule="evenodd" d="M3.2518 3.2518C3.62687 2.87673 4.13558 2.66602 4.66602 2.66602H5.99935C6.36754 2.66602 6.66602 2.96449 6.66602 3.33268C6.66602 3.70087 6.36754 3.99935 5.99935 3.99935H4.66602C4.4892 3.99935 4.31964 4.06959 4.19461 4.19461C4.06959 4.31964 3.99935 4.4892 3.99935 4.66602V12.666C3.99935 12.8428 4.06959 13.0124 4.19461 13.1374C4.31964 13.2624 4.4892 13.3327 4.66602 13.3327H11.3327C11.5095 13.3327 11.6791 13.2624 11.8041 13.1374C11.9291 13.0124 11.9993 12.8428 11.9993 12.666V4.66602C11.9993 4.4892 11.9291 4.31964 11.8041 4.19461C11.6791 4.06959 11.5095 3.99935 11.3327 3.99935H9.99935C9.63116 3.99935 9.33268 3.70087 9.33268 3.33268C9.33268 2.96449 9.63116 2.66602 9.99935 2.66602H11.3327C11.8631 2.66602 12.3718 2.87673 12.7469 3.2518C13.122 3.62687 13.3327 4.13558 13.3327 4.66602V12.666C13.3327 13.1964 13.122 13.7052 12.7469 14.0802C12.3718 14.4553 11.8631 14.666 11.3327 14.666H4.66602C4.13558 14.666 3.62687 14.4553 3.2518 14.0802C2.87673 13.7052 2.66602 13.1964 2.66602 12.666V4.66602C2.66602 4.13558 2.87673 3.62687 3.2518 3.2518Z" fill="#474D57"/>
<path fill-rule="evenodd" clip-rule="evenodd" d="M7.33301 2.66634C6.96482 2.66634 6.66634 2.96482 6.66634 3.33301C6.66634 3.7012 6.96482 3.99967 7.33301 3.99967H8.66634C9.03453 3.99967 9.33301 3.7012 9.33301 3.33301C9.33301 2.96482 9.03453 2.66634 8.66634 2.66634H7.33301ZM5.33301 3.33301C5.33301 2.22844 6.22844 1.33301 7.33301 1.33301H8.66634C9.77091 1.33301 10.6663 2.22844 10.6663 3.33301C10.6663 4.43758 9.77091 5.33301 8.66634 5.33301H7.33301C6.22844 5.33301 5.33301 4.43758 5.33301 3.33301Z" fill="#474D57"/>
<path fill-rule="evenodd" clip-rule="evenodd" d="M5.33301 7.99967C5.33301 7.63148 5.63148 7.33301 5.99967 7.33301H9.99967C10.3679 7.33301 10.6663 7.63148 10.6663 7.99967C10.6663 8.36786 10.3679 8.66634 9.99967 8.66634H5.99967C5.63148 8.66634 5.33301 8.36786 5.33301 7.99967ZM5.33301 10.6663C5.33301 10.2982 5.63148 9.99967 5.99967 9.99967H9.99967C10.3679 9.99967 10.6663 10.2982 10.6663 10.6663C10.6663 11.0345 10.3679 11.333 9.99967 11.333H5.99967C5.63148 11.333 5.33301 11.0345 5.33301 10.6663Z" fill="#474D57"/>
</svg>
