<?xml version="1.0" encoding="utf-8"?>
<!-- Generator: Adobe Illustrator 23.1.1, SVG Export Plug-In . SVG Version: 6.00 Build 0)  -->
<svg version="1.1" id="图层_1" xmlns="http://www.w3.org/2000/svg" xmlns:xlink="http://www.w3.org/1999/xlink" x="0px" y="0px"
	 viewBox="0 0 19.7 19.9" style="enable-background:new 0 0 19.7 19.9;" xml:space="preserve">
<style type="text/css">
	.st0{fill:#6C6C6C;}
</style>
<path class="st0" d="M17.7,18.3c0.2,0,0.4-0.1,0.4-0.1c0,0,0.1,0,0.1-0.2l0-0.5c0-0.3-0.3-0.7-0.7-0.8l0,0l0,0L13.2,15
	c-0.3-0.1-1.1-0.5-1.6-0.9c-0.6-0.6-0.7-1.5-0.4-2.7c0.1-0.4,0.3-0.7,0.7-1.3c0.6-0.9,1.6-2.4,1.6-3.6c0-1.3-0.4-2.6-1.2-3.5
	c-0.7-0.8-1.6-1.3-2.5-1.3C8.9,1.7,8,2.1,7.3,3C6.6,3.9,6.2,5.2,6.2,6.5c0,1.3,1.2,3.3,1.7,4C8,10.7,8.1,10.9,8.2,11
	c0.6,1.1,0.3,2.4-0.2,3c-0.4,0.5-1.3,0.8-1.9,1l-3.8,1.7l0,0l0,0c-0.4,0.1-0.7,0.5-0.7,0.8V18c0,0.1,0,0.1,0.1,0.2
	c0.1,0.1,0.2,0.1,0.4,0.1h6.5h2.2H17.7 M17.7,19.7h-6.9H8.5H2c-1,0-1.9-0.6-1.9-1.7v-0.5c0-1,0.7-1.8,1.6-2.1l3.9-1.7
	c0,0,1-0.3,1.3-0.6c0.2-0.2,0.2-0.9,0-1.4c-0.2-0.5-2.2-3-2.2-5.2c0-3.5,2.3-6.3,5.1-6.3c2.8,0,5.1,2.8,5.1,6.3
	c0,2.2-2.2,4.7-2.4,5.3c-0.2,0.6-0.2,1.1,0,1.3c0.3,0.3,1.1,0.6,1.1,0.6l4.3,1.7c0.9,0.3,1.6,1.2,1.6,2.2l0,0.5
	C19.6,19.1,18.7,19.7,17.7,19.7z"/>
</svg>
