<?xml version="1.0" encoding="utf-8"?>
<!-- Generator: Adobe Illustrator 23.1.1, SVG Export Plug-In . SVG Version: 6.00 Build 0)  -->
<svg version="1.1" id="图层_1" xmlns="http://www.w3.org/2000/svg" xmlns:xlink="http://www.w3.org/1999/xlink" x="0px" y="0px"
	 viewBox="0 0 19.7 19.9" style="enable-background:new 0 0 19.7 19.9;" xml:space="preserve">
<style type="text/css">
	.st0{fill:#6C6C6C;}
</style>
<g>
	<path class="st0" d="M17.6,3.4h-4.1v-2c0-0.7-0.5-1.2-1.2-1.2H7.4c-0.7,0-1.2,0.5-1.2,1.2v2H2.1c-0.4,0-0.8,0.4-0.8,0.8
		s0.4,0.8,0.8,0.8h0.4v10.8c0,2.1,1.6,3.9,3.5,3.9h8c1.7,0,3.1-1.5,3.1-3.5V5.1h0.4c0.4,0,0.8-0.4,0.8-0.8S18.1,3.4,17.6,3.4
		L17.6,3.4z M7.8,1.8h4.1V3H7.8V1.8z M15.6,16.3c0,0.9-0.6,1.8-1.5,1.8H6c-1.1,0-1.9-1.1-1.9-2.2V5.1h11.4L15.6,16.3L15.6,16.3z"/>
	<path class="st0" d="M6.6,16.1c0.4,0,0.8-0.4,0.8-0.8V7.9c0-0.4-0.4-0.8-0.8-0.8c-0.4,0-0.8,0.4-0.8,0.8v7.3
		C5.8,15.7,6.2,16.1,6.6,16.1L6.6,16.1z M9.9,16.1c0.4,0,0.8-0.4,0.8-0.8V7.9c0-0.4-0.4-0.8-0.8-0.8c-0.4,0-0.8,0.4-0.8,0.8v7.3
		C9.1,15.7,9.4,16.1,9.9,16.1L9.9,16.1z M13.1,16.1c0.4,0,0.8-0.4,0.8-0.8V7.9c0-0.4-0.4-0.8-0.8-0.8c-0.4,0-0.8,0.4-0.8,0.8v7.3
		C12.3,15.7,12.7,16.1,13.1,16.1L13.1,16.1z"/>
</g>
</svg>
