<?xml version="1.0" encoding="utf-8"?>
<!-- Generator: Adobe Illustrator 23.1.1, SVG Export Plug-In . SVG Version: 6.00 Build 0)  -->
<svg version="1.1" id="图层_1" xmlns="http://www.w3.org/2000/svg" xmlns:xlink="http://www.w3.org/1999/xlink" x="0px" y="0px"
	 viewBox="0 0 19.7 19.9" style="enable-background:new 0 0 19.7 19.9;" xml:space="preserve">
<style type="text/css">
	.st0{fill:#6C6C6C;}
</style>
<path class="st0" d="M9.9,1.6c4.6,0,8.4,3.7,8.4,8.4s-3.7,8.4-8.4,8.4s-8.4-3.7-8.4-8.4S5.2,1.6,9.9,1.6 M9.9,0.1
	C4.4,0.1,0,4.5,0,9.9s4.4,9.9,9.9,9.9s9.9-4.4,9.9-9.9S15.3,0.1,9.9,0.1L9.9,0.1z"/>
<path class="st0" d="M9.3,13.8c-0.1,0-0.3,0-0.4-0.1l-3.2-2.1c-0.3-0.2-0.4-0.7-0.2-1c0.2-0.3,0.7-0.4,1-0.2l2.6,1.7l4.7-5.9
	c0.3-0.3,0.7-0.4,1.1-0.1c0.3,0.3,0.4,0.7,0.1,1.1l-5.1,6.4C9.7,13.7,9.5,13.8,9.3,13.8z"/>
</svg>
