<?xml version="1.0" encoding="utf-8"?>
<!-- Generator: Adobe Illustrator 23.1.1, SVG Export Plug-In . SVG Version: 6.00 Build 0)  -->
<svg version="1.1" id="图层_1" xmlns="http://www.w3.org/2000/svg" xmlns:xlink="http://www.w3.org/1999/xlink" x="0px" y="0px"
	 viewBox="0 0 19.7 19.9" style="enable-background:new 0 0 19.7 19.9;" xml:space="preserve">
<style type="text/css">
	.st0{fill:#6C6C6C;}
	.st1{fill:#707070;}
</style>
<g id="创建任务" transform="translate(-0.154)">
	<path id="路径_1023" class="st0" d="M16.5,13.1c-1.9,0-3.4,1.5-3.4,3.4c0,1.9,1.5,3.4,3.4,3.4c1.9,0,3.4-1.5,3.4-3.4
		C19.9,14.6,18.4,13.1,16.5,13.1L16.5,13.1z M16.5,19c-1.4,0-2.5-1.1-2.5-2.5c0-1.4,1.1-2.5,2.5-2.5c1.4,0,2.5,1.1,2.5,2.5
		c0,0,0,0,0,0C19,17.9,17.9,19,16.5,19L16.5,19L16.5,19z"/>
	<path class="st1" d="M16.5,18.2c-0.3,0-0.5-0.2-0.5-0.5v-2.4c0-0.3,0.2-0.5,0.5-0.5c0.3,0,0.5,0.2,0.5,0.5v2.4
		C16.9,18,16.7,18.2,16.5,18.2z"/>
	<path class="st1" d="M17.7,17h-2.4c-0.3,0-0.5-0.2-0.5-0.5c0-0.3,0.2-0.5,0.5-0.5h2.4c0.3,0,0.5,0.2,0.5,0.5
		C18.1,16.8,17.9,17,17.7,17z"/>
</g>
<path class="st0" d="M12.6,18.3H11H8.8H2.3c-0.2,0-0.3,0-0.4-0.1c-0.1-0.1-0.1-0.1-0.1-0.2v-0.5c0-0.3,0.3-0.7,0.7-0.8L6.3,15
	c0.6-0.2,1.5-0.5,1.9-1c0.5-0.6,0.8-1.9,0.2-3c-0.1-0.1-0.2-0.3-0.3-0.5c-0.5-0.7-1.7-2.7-1.7-4c0-1.3,0.4-2.6,1.1-3.5
	C8.2,2.1,9.1,1.7,10,1.7c0.9,0,1.8,0.5,2.5,1.3c0.8,0.9,1.2,2.2,1.2,3.5c0,1.2-1,2.7-1.6,3.6c-0.4,0.6-0.6,0.9-0.7,1.3
	c-0.3,1.2-0.2,2.1,0.4,2.7c0.2,0.2,0.5,0.4,0.8,0.5c0.2-0.4,0.5-0.8,0.8-1.1c-0.2-0.1-0.5-0.3-0.7-0.4c-0.2-0.2-0.2-0.7,0-1.3
	c0.2-0.6,2.4-3.1,2.4-5.3c0-3.5-2.3-6.3-5.1-6.3C7.2,0.2,4.9,3,4.9,6.5c0,2.2,2,4.7,2.2,5.2s0.2,1.2,0,1.4c-0.3,0.3-1.3,0.6-1.3,0.6
	l-3.9,1.7c-0.9,0.3-1.6,1.1-1.6,2.1V18c0,1.1,0.9,1.7,1.9,1.7h6.5H11h2.7C13.2,19.3,12.8,18.8,12.6,18.3z"/>
</svg>
