<svg width="160" height="100" viewBox="0 0 160 100" fill="none" xmlns="http://www.w3.org/2000/svg">
<path d="M17.1602 0.5H157.203C158.032 0.5 158.703 1.17157 158.703 2V98C158.703 98.8284 158.032 99.5 157.203 99.5H17.1602V0.5Z" fill="white" stroke="#EAECEF"/>
<rect x="17.1602" y="0.5" width="50.8339" height="99" fill="#FAFAFA" stroke="#EAECEF"/>
<path d="M2 0.5H18.0121V99.5H2C1.17157 99.5 0.5 98.8284 0.5 98V2C0.5 1.17157 1.17157 0.5 2 0.5Z" fill="#001C4E" stroke="#EAECEF"/>
<mask id="mask0_1525_51197" style="mask-type:alpha" maskUnits="userSpaceOnUse" x="0" y="0" width="160" height="100">
<path d="M0 100L160 0V100H7.16418H0Z" fill="#D9D9D9"/>
</mask>
<g mask="url(#mask0_1525_51197)">
<path d="M22.707 0.5H157.197C158.025 0.5 158.697 1.17157 158.697 2V98C158.697 98.8284 158.025 99.5 157.197 99.5H22.707V0.5Z" fill="#181A20" stroke="#474D57"/>
<rect x="17.1602" y="0.5" width="50.8339" height="99" fill="#1E2329" stroke="#474D57"/>
<path d="M2 0.5H18.0121V99.5H2C1.17157 99.5 0.5 98.8284 0.5 98V2C0.5 1.17157 1.17157 0.5 2 0.5Z" fill="black" stroke="#474D57"/>
</g>
</svg>
