<svg width="24" height="24" viewBox="0 0 24 24" fill="none" xmlns="http://www.w3.org/2000/svg">
<path fill-rule="evenodd" clip-rule="evenodd" d="M12.0001 5.33333C8.31818 5.33333 5.33341 8.3181 5.33341 12C5.33341 15.6819 8.31818 18.6667 12.0001 18.6667C15.682 18.6667 18.6667 15.6819 18.6667 12C18.6667 8.3181 15.682 5.33333 12.0001 5.33333ZM3.66675 12C3.66675 7.39762 7.39771 3.66666 12.0001 3.66666C16.6025 3.66666 20.3334 7.39762 20.3334 12C20.3334 16.6024 16.6025 20.3333 12.0001 20.3333C7.39771 20.3333 3.66675 16.6024 3.66675 12Z" fill="#848E9C"/>
<path d="M10.9798 15.4667H13.0204V10.3457H15.3334V8.8H8.66675V10.3457H10.9798V15.4667Z" fill="#848E9C"/>
</svg>
