<svg width="19" height="18" viewBox="0 0 19 18" fill="none" xmlns="http://www.w3.org/2000/svg">
  <path fill-rule="evenodd" clip-rule="evenodd" d="M8.76025 3.36255C8.76025 3.01737 9.04008 2.73755 9.38525 2.73755C11.0429 2.73755 12.6326 3.39603 13.8047 4.56813C14.9768 5.74023 15.6353 7.32995 15.6353 8.98755C15.6353 9.33273 15.3554 9.61255 15.0103 9.61255C14.6651 9.61255 14.3853 9.33273 14.3853 8.98755C14.3853 7.66147 13.8585 6.3897 12.9208 5.45202C11.9831 4.51433 10.7113 3.98755 9.38525 3.98755C9.04008 3.98755 8.76025 3.70773 8.76025 3.36255ZM3.76025 8.36255C4.10543 8.36255 4.38525 8.64237 4.38525 8.98755C4.38525 10.3136 4.91204 11.5854 5.84972 12.5231C6.7874 13.4608 8.05917 13.9876 9.38525 13.9876C9.73043 13.9876 10.0103 14.2674 10.0103 14.6126C10.0103 14.9577 9.73043 15.2376 9.38525 15.2376C7.72765 15.2376 6.13794 14.5791 4.96584 13.407C3.79373 12.2349 3.13525 10.6452 3.13525 8.98755C3.13525 8.64237 3.41508 8.36255 3.76025 8.36255Z" fill="#474D57"/>
  <path d="M14.8922 11.4645C14.721 11.4144 14.5423 11.5109 14.4791 11.6777C13.9775 13.0011 13.0703 13.8203 11.6957 14.2814C11.4967 14.3482 11.422 14.6146 11.5314 14.7938C11.6071 14.9179 11.7498 14.9677 11.8868 14.9193C13.4318 14.3738 14.4823 13.4243 15.1022 11.8837C15.1722 11.7099 15.0721 11.517 14.8922 11.4645ZM12.7622 11.6965C12.6998 11.5412 12.531 11.4534 12.3708 11.5019C12.2014 11.5533 12.1088 11.7364 12.1749 11.9007C12.7817 13.4101 13.7382 14.4367 15.3659 14.9288C15.4918 14.9668 15.6194 14.9185 15.6904 14.8078C15.8121 14.6183 15.7265 14.3162 15.5123 14.2466C14.1386 13.8003 13.2463 12.9009 12.7622 11.6965ZM11.6535 11.0467C11.4892 11.0467 11.356 11.1799 11.356 11.3442C11.356 11.5085 11.4892 11.6417 11.6535 11.6417H15.6288C15.7931 11.6417 15.9263 11.5085 15.9263 11.3442C15.9263 11.1799 15.7931 11.0467 15.6288 11.0467H11.6535ZM13.6262 10.25C13.4553 10.25 13.3168 10.3885 13.3168 10.5593V11.1004C13.3168 11.2713 13.4553 11.4098 13.6262 11.4098C13.797 11.4098 13.9355 11.2713 13.9355 11.1004V10.5593C13.9355 10.3885 13.797 10.25 13.6262 10.25Z" fill="#474D57"/>
  <path fill-rule="evenodd" clip-rule="evenodd" d="M15.0973 11.6418C15.1305 11.7156 15.1354 11.8018 15.1024 11.8839C15.1006 11.8882 15.0989 11.8925 15.0971 11.8968C14.8762 12.4425 14.601 12.9137 14.2688 13.3189C14.2146 13.385 14.1588 13.4493 14.1016 13.5119C14.1686 13.5641 14.2376 13.6146 14.3087 13.6632C14.6594 13.9034 15.0597 14.0996 15.5124 14.2467C15.7266 14.3163 15.8123 14.6184 15.6905 14.808C15.6195 14.9186 15.4919 14.9669 15.366 14.9289C14.755 14.7442 14.2385 14.4841 13.7996 14.1515C13.7302 14.0988 13.6626 14.0443 13.597 13.988C13.5299 14.0426 13.4611 14.0955 13.3907 14.1467C12.9539 14.4648 12.4537 14.7193 11.887 14.9194C11.7499 14.9678 11.6072 14.918 11.5315 14.7939C11.4222 14.6148 11.4968 14.3483 11.6958 14.2816C12.1611 14.1255 12.5728 13.9283 12.9334 13.6845C13.0046 13.6364 13.0737 13.5865 13.1409 13.5347C13.0853 13.4707 13.0313 13.4051 12.9789 13.3377C12.6559 12.9226 12.3929 12.4428 12.175 11.9008C12.1744 11.8995 12.1739 11.8981 12.1734 11.8968C12.1396 11.8093 12.1506 11.7167 12.1939 11.6418H11.6536C11.4893 11.6418 11.3561 11.5086 11.3561 11.3443C11.3561 11.18 11.4893 11.0468 11.6536 11.0468H13.3169V10.5595C13.3169 10.3886 13.4554 10.2501 13.6263 10.2501C13.7971 10.2501 13.9356 10.3886 13.9356 10.5595V11.0468H15.6289C15.7933 11.0468 15.9264 11.18 15.9264 11.3443C15.9264 11.5086 15.7933 11.6418 15.6289 11.6418H15.0973ZM14.1906 10.7918H15.6289C15.9341 10.7918 16.1814 11.0392 16.1814 11.3443C16.1814 11.6495 15.9341 11.8968 15.6289 11.8968H15.3651C15.3586 11.9243 15.3499 11.9518 15.3389 11.9791C15.1093 12.5496 14.8222 13.0434 14.4758 13.4685C14.8013 13.688 15.1721 13.868 15.5912 14.0042C15.7959 14.0707 15.9203 14.2409 15.9713 14.4078C16.0222 14.5743 16.0133 14.7773 15.9051 14.9458C15.7736 15.1505 15.5293 15.2446 15.2923 15.173C14.6257 14.9715 14.0657 14.6835 13.5931 14.3143C13.1236 14.6652 12.584 14.9437 11.9719 15.1598C11.7226 15.2478 11.4531 15.155 11.3138 14.9268C11.2169 14.7679 11.2055 14.5797 11.2542 14.4208C11.3033 14.2609 11.4226 14.1043 11.6147 14.0398C12.0506 13.8936 12.4351 13.7109 12.7715 13.4862C12.4359 13.0531 12.1631 12.5549 11.9384 11.9959C11.9252 11.9631 11.9154 11.9299 11.9088 11.8968H11.6536C11.3484 11.8968 11.1011 11.6495 11.1011 11.3443C11.1011 11.0392 11.3484 10.7918 11.6536 10.7918H13.0619V10.5595C13.0619 10.2478 13.3146 9.99512 13.6263 9.99512C13.938 9.99512 14.1906 10.2478 14.1906 10.5595V10.7918ZM12.7342 11.6418C12.7451 11.659 12.7545 11.6773 12.7623 11.6966C12.7895 11.7643 12.818 11.8311 12.8478 11.8968C13.0125 12.2601 13.2169 12.5931 13.4633 12.8914C13.5178 12.9573 13.5742 13.0216 13.6328 13.0841C13.6905 13.0212 13.7462 12.9564 13.8 12.8894C14.0332 12.5989 14.2296 12.2693 14.3905 11.8968C14.4214 11.8254 14.4509 11.7524 14.4792 11.6778C14.4839 11.6654 14.4893 11.6534 14.4952 11.6418H12.7342ZM14.1113 11.8968H13.1294C13.2687 12.1844 13.4351 12.4505 13.6304 12.6928C13.816 12.4556 13.9758 12.191 14.1113 11.8968Z" fill="#474D57"/>
  <path d="M3.4254 6.53621C3.27971 7.01293 3.61989 7.5 4.09853 7.5C4.42271 7.5 4.70532 7.26935 4.78404 6.94053L5.56378 3.68332C5.58936 3.57649 5.68117 3.50156 5.78649 3.50156C5.91327 3.50156 6.01606 3.39409 6.01606 3.26152L6.17941 2.25C6.17941 2.25 5.74811 2.25 5.41758 2.25H5.27583C4.95381 2.25 4.66874 2.46768 4.57073 2.7884L3.4254 6.53621ZM4.34103 5.75502C4.24046 6.10414 4.49042 6.45582 4.83912 6.45582H6.38909C6.73779 6.45582 6.98775 6.10414 6.88718 5.75502C6.82098 5.52525 6.6186 5.36798 6.38909 5.36798H4.83912C4.60962 5.36798 4.40723 5.52525 4.34103 5.75502ZM6.49868 6.94053C6.5774 7.26935 6.86 7.5 7.18419 7.5C7.66282 7.5 8.003 7.01293 7.85732 6.53621L6.65948 2.61657C6.59274 2.39821 6.39865 2.25 6.17941 2.25C5.90106 2.25 5.67542 2.48593 5.67542 2.77697V3.36423C5.67542 3.45544 5.68613 3.5463 5.70731 3.63478L6.49868 6.94053Z" fill="#474D57"/>
</svg>
