<svg width="25" height="25" viewBox="0 0 25 25" fill="none" xmlns="http://www.w3.org/2000/svg">
  <path fill-rule="evenodd" clip-rule="evenodd" d="M11.3474 5.13329C11.3486 4.57909 11.7989 4.13083 12.3531 4.13206C14.7504 4.13739 17.0493 5.0854 18.7437 6.77065C20.4385 8.45624 21.3894 10.7415 21.3841 13.1243C21.3829 13.6785 20.9326 14.1267 20.3784 14.1255C19.8242 14.1243 19.3759 13.674 19.3772 13.1198C19.3813 11.2757 18.6455 9.50352 17.3285 8.19359C16.0111 6.88333 14.22 6.14314 12.3486 6.13898C11.7944 6.13774 11.3462 5.68748 11.3474 5.13329ZM4.28787 12.0828C4.84206 12.084 5.29033 12.5343 5.28909 13.0885C5.28499 14.9325 6.02077 16.7047 7.3378 18.0147C8.65516 19.3249 10.4463 20.0651 12.3176 20.0693C12.8718 20.0705 13.3201 20.5208 13.3189 21.075C13.3176 21.6292 12.8674 22.0774 12.3132 22.0762C9.9159 22.0709 7.61692 21.1229 5.92253 19.4376C4.22781 17.752 3.27688 15.4668 3.28218 13.084C3.28341 12.5298 3.73367 12.0816 4.28787 12.0828Z" fill="#056FFA"/>
  <path d="M20.202 16.6298C19.9583 16.5587 19.7038 16.6953 19.6125 16.9322C18.8906 18.805 17.59 19.9624 15.622 20.6112C15.3383 20.7047 15.2318 21.0847 15.3878 21.3394C15.4948 21.5142 15.6951 21.5841 15.8888 21.517C18.1017 20.7501 19.6084 19.4097 20.5012 17.2311C20.6032 16.9823 20.4601 16.7051 20.202 16.6298ZM17.1568 16.9532C17.0676 16.7323 16.8279 16.6069 16.5997 16.6748C16.3562 16.7473 16.2227 17.01 16.3178 17.2455C17.1821 19.3842 18.5482 20.8402 20.8764 21.5412C21.0537 21.5946 21.233 21.5276 21.3341 21.3724C21.5087 21.104 21.3884 20.6728 21.0838 20.5741C19.1196 19.9376 17.8457 18.6608 17.1568 16.9532ZM15.5681 16.0284C15.3354 16.0279 15.1462 16.2161 15.1457 16.4489C15.1452 16.6817 15.3335 16.8708 15.5662 16.8713L21.262 16.884C21.4948 16.8845 21.6839 16.6962 21.6844 16.4635C21.6849 16.2307 21.4966 16.0416 21.2639 16.0411L15.5681 16.0284ZM18.3971 14.906C18.1527 14.9055 17.9541 15.1032 17.9535 15.3476L17.9519 16.1054C17.9513 16.3499 18.149 16.5485 18.3934 16.549C18.6379 16.5495 18.8365 16.3518 18.837 16.1074L18.8387 15.3496C18.8392 15.1052 18.6415 14.9066 18.3971 14.906Z" fill="#056FFA"/>
  <path fill-rule="evenodd" clip-rule="evenodd" d="M20.4948 16.8822C20.5429 16.9885 20.5497 17.1129 20.5013 17.231C20.493 17.2513 20.4847 17.2715 20.4763 17.2916C20.1687 18.0273 19.79 18.6664 19.3365 19.2192C19.2494 19.3254 19.1595 19.4284 19.0669 19.5283C19.1747 19.6118 19.2861 19.6923 19.4013 19.7694C19.8933 20.0991 20.4529 20.3696 21.0838 20.574C21.3885 20.6727 21.5088 21.1039 21.3341 21.3723C21.2331 21.5276 21.0538 21.5945 20.8764 21.5411C20.0184 21.2828 19.2911 20.9219 18.6714 20.4621C18.5585 20.3784 18.4492 20.2914 18.3434 20.2011C18.2349 20.2881 18.1234 20.3721 18.0089 20.4531C17.3909 20.8903 16.6856 21.2408 15.8888 21.5169C15.6952 21.584 15.4948 21.5141 15.3878 21.3394C15.2318 21.0846 15.3384 20.7046 15.6221 20.6111C16.2718 20.3969 16.8488 20.1272 17.3563 19.7947C17.4719 19.7189 17.5839 19.6399 17.6924 19.5575C17.6028 19.455 17.5162 19.3495 17.4324 19.2409C16.9933 18.6713 16.6331 18.0175 16.3329 17.2823C16.3279 17.2701 16.3229 17.2578 16.3179 17.2454C16.2663 17.1177 16.2819 16.982 16.3459 16.873L15.5663 16.8712C15.3335 16.8707 15.1453 16.6816 15.1458 16.4488C15.1463 16.2161 15.3354 16.0278 15.5682 16.0283L17.9521 16.0336L17.9536 15.3475C17.9541 15.1031 18.1527 14.9054 18.3971 14.9059C18.6416 14.9065 18.8393 15.1051 18.8387 15.3495L18.8372 16.0356L21.2639 16.041C21.4967 16.0415 21.685 16.2306 21.6845 16.4634C21.6839 16.6961 21.4948 16.8844 21.2621 16.8839L20.4948 16.8822ZM19.2475 15.6271L21.2648 15.6316C21.7237 15.6326 22.0949 16.0054 22.0939 16.4643C22.0928 16.9232 21.72 17.2943 21.2611 17.2933L20.9125 17.2925C20.9037 17.3239 20.8929 17.3551 20.8801 17.3863C20.5562 18.1769 20.1538 18.8636 19.6709 19.457C20.1218 19.7534 20.6336 19.9977 21.21 20.1845C21.5202 20.285 21.7058 20.5428 21.7807 20.7914C21.8554 21.0392 21.8416 21.3431 21.6773 21.5956C21.4785 21.9011 21.1124 22.0398 20.7584 21.9332C19.8098 21.6475 19.0112 21.2413 18.3361 20.722C17.6643 21.2125 16.8942 21.6018 16.0229 21.9038C15.6506 22.0327 15.2478 21.8948 15.0386 21.5532C14.8924 21.3142 14.8757 21.0318 14.9487 20.7944C15.0223 20.5553 15.202 20.3185 15.4939 20.2223C16.0958 20.0238 16.6284 19.7772 17.0965 19.4754C16.6314 18.8688 16.2518 18.1747 15.9383 17.3988C15.9226 17.3599 15.91 17.3206 15.9004 17.2814L15.5654 17.2806C15.1065 17.2796 14.7353 16.9068 14.7364 16.4479C14.7374 15.989 15.1102 15.6179 15.5691 15.6189L17.5436 15.6233L17.5442 15.3466C17.5452 14.8761 17.9275 14.4955 18.3981 14.4965C18.8686 14.4976 19.2492 14.8799 19.2481 15.3504L19.2475 15.6271ZM17.1165 16.8747C17.1321 16.8992 17.1456 16.9254 17.1568 16.9531C17.2021 17.0655 17.25 17.1759 17.3004 17.2845C17.5243 17.7664 17.7986 18.2104 18.126 18.6112C18.2128 18.7174 18.3032 18.8206 18.3975 18.9207C18.4908 18.8205 18.5805 18.7167 18.6667 18.6091C18.9784 18.2199 19.2435 17.7814 19.464 17.2893C19.516 17.1733 19.5655 17.0542 19.6125 16.9321C19.6194 16.9143 19.6273 16.897 19.6359 16.8803L17.1165 16.8747ZM19.0129 17.2883L17.7555 17.2855C17.9366 17.6464 18.1492 17.9829 18.3949 18.2925C18.63 17.9898 18.8355 17.6559 19.0129 17.2883Z" fill="#056FFA"/>
  <path d="M3.8145 9.61242C3.60457 10.2873 4.08972 10.9784 4.77448 10.9799C5.23829 10.9809 5.64333 10.6551 5.75698 10.1895L6.8828 5.57769C6.91972 5.42644 7.05131 5.32058 7.20198 5.32091C7.38338 5.32132 7.53076 5.1694 7.53118 4.98159L7.76806 3.54915C7.76806 3.54915 7.15102 3.54778 6.67814 3.54673L6.47535 3.54628C6.01465 3.54525 5.60612 3.85272 5.46488 4.30676L3.8145 9.61242ZM5.12693 8.50867C4.98194 9.00292 5.33844 9.50193 5.83732 9.50304L8.05481 9.50797C8.55368 9.50907 8.9124 9.01166 8.76961 8.51677C8.67563 8.19105 8.38658 7.96762 8.05823 7.96689L5.84074 7.96196C5.5124 7.96123 5.22235 8.18337 5.12693 8.50867ZM8.21006 10.195C8.32165 10.6611 8.72523 10.9887 9.18904 10.9897C9.8738 10.9912 10.362 10.3023 10.1551 9.62652L8.45373 4.06998C8.35894 3.76042 8.08173 3.54985 7.76806 3.54915C7.36985 3.54827 7.04629 3.88178 7.04537 4.29408L7.04352 5.12601C7.04323 5.25522 7.05827 5.38398 7.08829 5.50939L8.21006 10.195Z" fill="#056FFA"/>
</svg>
