<?xml version="1.0" encoding="utf-8"?>
<!-- Generator: Adobe Illustrator 23.1.1, SVG Export Plug-In . SVG Version: 6.00 Build 0)  -->
<svg version="1.1" id="图层_1" xmlns="http://www.w3.org/2000/svg" xmlns:xlink="http://www.w3.org/1999/xlink" x="0px" y="0px"
	 viewBox="0 0 200 200" style="enable-background:new 0 0 200 200;" xml:space="preserve">
<style type="text/css">
	.st0{fill:#F1F2F3;}
	.st1{opacity:0.25;enable-background:new    ;}
	.st2{fill:#D8D9DA;}
</style>
<g>
	<path class="st0" d="M48.8-1h64.8l56.5,60.3V179c0,11-9,19.9-19.9,19.9H48.8c-11,0-19.9-9-19.9-19.9V19C28.9,8,37.8-1,48.8-1z"/>
	<path class="st1" d="M113.6-1l56.5,60.3l-41-0.3c-9.4,0-15.6-6.2-15.6-15.6V-1L113.6-1z"/>
</g>
<g>
	<path class="st2" d="M99.9,147.6c-3.1-0.2-5.8,2.2-6,5.3c0.2,3.1,2.9,5.5,6,5.3c3.1,0.2,5.8-2.2,6-5.3
		C105.7,149.7,103.1,147.4,99.9,147.6z"/>
	<path class="st2" d="M99.7,106.1c2.7-0.1,5.3,0.8,7.3,2.5c1.8,1.4,2.9,3.5,3,5.9c0,1.2-0.4,2.4-1,3.3c-1.4,1.7-3,3.3-4.8,4.6
		c-2,1.5-3.9,3.2-5.6,4.9c-1.4,1.4-2.4,3-3.3,4.8c-0.9,1.6-1.4,3.4-1.4,5.3v0.9c0.2,2.8,2.6,5,5.4,4.8c1.4,0,2.6-0.5,3.7-1.3
		c1-0.8,1.6-1.9,1.7-3.2c0.1-0.8,0.2-1.7,0.5-2.5c0.3-1,0.8-1.9,1.4-2.7c1.4-1.5,3-2.9,4.6-4.1c3-2.2,5.6-4.8,7.8-7.8
		c1.4-2.2,2.1-4.8,2.1-7.3c-0.1-4.6-2.3-9-6-11.7c-4.5-3.4-10.1-5.1-15.7-4.8c-5.3-0.3-10.6,1.4-14.9,4.4c-2.7,2.2-4.8,5.1-5.8,8.4
		c-0.5,1.4-0.2,3,0.7,4.2c1,1.3,2.4,2.1,4,2.2c0.3,0,0.5,0,0.6,0c1.2,0,2.4-0.4,3.4-1c0.9-0.6,1.6-1.5,2-2.6
		c0.5-1.9,1.6-3.6,3.1-4.9C94.7,106.7,97.2,105.9,99.7,106.1L99.7,106.1z"/>
</g>
</svg>
