<svg xmlns="http://www.w3.org/2000/svg" width="24" height="24" viewBox="0 0 24 24">
  <defs>
    <style>
      .cls-1 {
        fill: rgba(227,227,227,0);
      }

      .cls-2 {
        fill: #d7d8d9;
      }
    </style>
  </defs>
  <g id="取消固定" transform="translate(-128 -630)">
    <rect id="矩形" class="cls-1" width="24" height="24" transform="translate(128 630)"/>
    <g id="取消固定-2" data-name="取消固定" transform="translate(129.31 629.727)">
      <path id="路径_1073" data-name="路径 1073" class="cls-2" d="M18.053,19.442a.626.626,0,0,1-.438-.179L3.556,5.494a.627.627,0,1,1,.877-.9L18.491,18.368a.627.627,0,0,1-.438,1.074Z" transform="translate(0 0.067)"/>
      <g id="组_250" data-name="组 250" transform="translate(4.919 2.89)">
        <path id="路径_1074" data-name="路径 1074" class="cls-2" d="M7.763,9.866l1.074,1.052a.582.582,0,0,0,.058-.153l.6-4.866a.6.6,0,0,0-.285-.59A2.144,2.144,0,0,1,8.292,4.1h4.118a2.14,2.14,0,0,1-.916,1.211.606.606,0,0,0-.279.6l.58,4.735a.616.616,0,0,0,.38.494,4.539,4.539,0,0,1,2.71,3.181l-.005,0H12.309l1.255,1.228H15.59a.6.6,0,0,0,.431-.176l.019-.02a.593.593,0,0,0,.159-.461,5.776,5.776,0,0,0-3.238-4.735l-.5-4.039A3.332,3.332,0,0,0,13.711,3.5a.6.6,0,0,0-.592-.609H7.58a.6.6,0,0,0-.608.592V3.5A3.369,3.369,0,0,0,8.22,6.115Z" transform="translate(-4.76 -2.89)"/>
        <path id="路径_1075" data-name="路径 1075" class="cls-2" d="M10.612,13.984H6.183a4.523,4.523,0,0,1,1.749-2.626l-.891-.872A5.761,5.761,0,0,0,4.856,14.55a.134.134,0,0,0,0,.05.6.6,0,0,0,.592.609h4.51l.011,4.907a.6.6,0,0,0,.592.609h.017a.608.608,0,0,0,.608-.609v-4.9h.68Z" transform="translate(-4.853 -2.556)"/>
      </g>
    </g>
  </g>
</svg>
