<?xml version="1.0" standalone="no"?><!DOCTYPE svg PUBLIC "-//W3C//DTD SVG 1.1//EN" "http://www.w3.org/Graphics/SVG/1.1/DTD/svg11.dtd"><svg t="1631354575467" class="icon" viewBox="0 0 1024 1024" version="1.1" xmlns="http://www.w3.org/2000/svg" p-id="5111" xmlns:xlink="http://www.w3.org/1999/xlink" width="200" height="200"><defs><style type="text/css"></style></defs><path d="M512 8.85685797c14.2410203 0 26.05174725 4.77629217 35.77766956 14.58888348l352.21682087 352.13133913a48.6296116 48.6296116 0 0 1 14.5022145 35.77648232 48.97747479 48.97747479 0 0 1-50.36655305 50.36655304 48.71628057 48.71628057 0 0 1-35.68981332-14.58888347l-266.07378551-266.50713044v784.15248696c0 13.89434434-4.95081739 25.70388406-14.76222145 35.51647536A48.10841043 48.10841043 0 0 1 512 1015.05647305a48.28174841 48.28174841 0 0 1-35.6043316-14.7634087 48.36841739 48.36841739 0 0 1-14.76222145-35.51647536v-784.15248696l-266.07378551 266.59379941a48.71628057 48.71628057 0 0 1-35.77648231 14.5022145 49.06414377 49.06414377 0 0 1-50.27988406-50.36655304c0-14.2410203 4.86296116-26.05056 14.5022145-35.77648232l352.13015188-352.13133913A48.19507942 48.19507942 0 0 1 512 8.85685797z" p-id="5112"></path></svg>