<svg width="20" height="20" viewBox="0 0 20 20" fill="none" xmlns="http://www.w3.org/2000/svg">
<path d="M20 10C20 15.5228 15.5228 20 10 20C4.47715 20 0 15.5228 0 10C0 4.47715 4.47715 0 10 0C15.5228 0 20 4.47715 20 10Z" fill="#FF8800"/>
<path fill-rule="evenodd" clip-rule="evenodd" d="M4.99902 11.1529L5.00134 11.1525L5.00134 11.2474L8.60761 11.2474L9.62883 12.1304C10.6285 11.4801 11.4828 10.6252 12.1326 9.62504L11.2548 8.61053L11.2548 4.99952L13.7544 4.99952C13.7544 4.9996 13.7544 4.99968 13.7544 4.99975L14.9993 4.99975C14.9993 10.5226 10.5232 14.9998 5.00159 14.9998L5.00159 13.7461L4.99902 13.7461L4.99902 11.1529Z" fill="white"/>
</svg>
