<?xml version="1.0" standalone="no"?><!DOCTYPE svg PUBLIC "-//W3C//DTD SVG 1.1//EN" "http://www.w3.org/Graphics/SVG/1.1/DTD/svg11.dtd"><svg t="1644547381805" class="icon" viewBox="0 0 1024 1024" version="1.1" xmlns="http://www.w3.org/2000/svg" p-id="5160" xmlns:xlink="http://www.w3.org/1999/xlink" width="200" height="200"><defs><style type="text/css"></style></defs><path d="M31.37391304 764.69951691c-20.55652174-20.55652174-20.55652174-53.94782609 0-74.50434783l446.81739131-446.8173913c20.55652174-20.55652174 53.94782609-20.55652174 74.50434782 0 20.55652174 20.55652174 20.55652174 53.94782609 0 74.50434783L105.87826087 764.69951691c-20.55652174 20.55652174-53.94782609 20.55652174-74.50434783 0z" p-id="5161"></path><path d="M478.19130435 243.37777778c20.55652174-20.55652174 53.94782609-20.55652174 74.50434782 0l446.81739131 446.8173913c20.55652174 20.55652174 20.55652174 53.94782609 0 74.50434783-20.55652174 20.55652174-53.94782609 20.55652174-74.50434783 0L478.19130435 317.88212561c-20.55652174-20.66086957-20.55652174-53.94782609 0-74.50434783z" p-id="5162"></path></svg>