<svg width="36" height="44" viewBox="0 0 36 44" fill="none" xmlns="http://www.w3.org/2000/svg">
<rect width="36" height="44" fill="#2B3139"/>
<path d="M24.5 20.3332L28.2942 18.4365C28.4212 18.3731 28.5623 18.3431 28.7042 18.3495C28.846 18.3559 28.9839 18.3984 29.1047 18.473C29.2255 18.5477 29.3252 18.6519 29.3944 18.7759C29.4636 18.8999 29.4999 19.0395 29.5 19.1815V24.8182C29.4999 24.9602 29.4636 25.0998 29.3944 25.2238C29.3252 25.3478 29.2255 25.4521 29.1047 25.5267C28.9839 25.6013 28.846 25.6438 28.7042 25.6502C28.5623 25.6566 28.4212 25.6267 28.2942 25.5632L24.5 23.6665V20.3332Z" stroke="#F5F5F5" stroke-width="1.66667" stroke-linecap="round" stroke-linejoin="round"/>
<path d="M22.8333 17H16.1667C15.2462 17 14.5 17.7462 14.5 18.6667V25.3333C14.5 26.2538 15.2462 27 16.1667 27H22.8333C23.7538 27 24.5 26.2538 24.5 25.3333V18.6667C24.5 17.7462 23.7538 17 22.8333 17Z" stroke="#F5F5F5" stroke-width="1.66667" stroke-linecap="round" stroke-linejoin="round"/>
<line x1="14.8445" y1="13.6665" x2="30.1652" y2="28.9872" stroke="#F84135" stroke-width="1.66667" stroke-linecap="round"/>
</svg>
