<svg xmlns="http://www.w3.org/2000/svg" width="24" height="24" viewBox="0 0 24 24">
  <defs>
    <style>
      .cls-1 {
        fill: rgba(255,255,255,0);
      }

      .cls-2 {
        fill: #c4c4c4;
      }
    </style>
  </defs>
  <g id="加号" transform="translate(-14.5 -215)">
    <rect id="矩形_96" data-name="矩形 96" class="cls-1" width="24" height="24" transform="translate(14.5 215)"/>
    <path id="路径_1060" data-name="路径 1060" class="cls-2" d="M11.9,3a9,9,0,1,0,9,9A8.963,8.963,0,0,0,11.9,3ZM16,13.2H12.8v3.2a.789.789,0,0,1-.8.8.736.736,0,0,1-.8-.8V13.2H8a.789.789,0,0,1-.8-.8.736.736,0,0,1,.8-.8h3.2V8.4a.789.789,0,0,1,.8-.8.736.736,0,0,1,.8.8v3.2H16a.8.8,0,0,1,0,1.6Z" transform="translate(14.6 215)"/>
  </g>
</svg>
