<svg width="98" height="98" viewBox="0 0 98 98" fill="none" xmlns="http://www.w3.org/2000/svg">
<g filter="url(#filter0_iiif_680_6547)">
<g opacity="0.7">
<path fill-rule="evenodd" clip-rule="evenodd" d="M49 89C71.0914 89 89 71.0914 89 49C89 26.9086 71.0914 9 49 9C26.9086 9 9 26.9086 9 49C9 71.0914 26.9086 89 49 89ZM34 38.1984L44.6066 48.6946L34 59.1907L38.2426 63.3891L48.8492 52.893L59.4558 63.3891L63.6985 59.1907L53.0919 48.6946L63.6985 38.1984L59.4558 34L48.8492 44.4961L38.2426 34L34 38.1984Z" fill="url(#paint0_linear_680_6547)"/>
<path fill-rule="evenodd" clip-rule="evenodd" d="M49 89C71.0914 89 89 71.0914 89 49C89 26.9086 71.0914 9 49 9C26.9086 9 9 26.9086 9 49C9 71.0914 26.9086 89 49 89ZM34 38.1984L44.6066 48.6946L34 59.1907L38.2426 63.3891L48.8492 52.893L59.4558 63.3891L63.6985 59.1907L53.0919 48.6946L63.6985 38.1984L59.4558 34L48.8492 44.4961L38.2426 34L34 38.1984Z" fill="url(#paint1_linear_680_6547)" fill-opacity="0.2"/>
</g>
<path d="M49.1582 19.7368C65.1745 19.7368 78.1582 32.7206 78.1582 48.7368C78.1582 64.7531 65.1745 77.7368 49.1582 77.7368C33.142 77.7368 20.1582 64.7531 20.1582 48.7368C20.1582 32.7206 33.1419 19.7368 49.1582 19.7368Z" fill="#FDD142"/>
<g opacity="0.9">
<path d="M52.1575 66.7368L46.1575 66.7368L46.1575 60.7368L52.1575 60.7368L52.1575 66.7368Z" fill="#1E2329"/>
<path d="M46.1575 54.7368L46.1575 30.7368L52.1575 30.7368L52.1575 54.7368L46.1575 54.7368Z" fill="#1E2329"/>
</g>
</g>
<defs>
<filter id="filter0_iiif_680_6547" x="-5.05004" y="-1.01668" width="102.15" height="104.067" filterUnits="userSpaceOnUse" color-interpolation-filters="sRGB">
<feFlood flood-opacity="0" result="BackgroundImageFix"/>
<feBlend mode="normal" in="SourceGraphic" in2="BackgroundImageFix" result="shape"/>
<feColorMatrix in="SourceAlpha" type="matrix" values="0 0 0 0 0 0 0 0 0 0 0 0 0 0 0 0 0 0 127 0" result="hardAlpha"/>
<feOffset dx="-6.05004" dy="6.05004"/>
<feGaussianBlur stdDeviation="4.03336"/>
<feComposite in2="hardAlpha" operator="arithmetic" k2="-1" k3="1"/>
<feColorMatrix type="matrix" values="0 0 0 0 1 0 0 0 0 1 0 0 0 0 1 0 0 0 0.24 0"/>
<feBlend mode="overlay" in2="shape" result="effect1_innerShadow_680_6547"/>
<feColorMatrix in="SourceAlpha" type="matrix" values="0 0 0 0 0 0 0 0 0 0 0 0 0 0 0 0 0 0 127 0" result="hardAlpha"/>
<feOffset dx="-6.05004" dy="6.05004"/>
<feGaussianBlur stdDeviation="6.05004"/>
<feComposite in2="hardAlpha" operator="arithmetic" k2="-1" k3="1"/>
<feColorMatrix type="matrix" values="0 0 0 0 1 0 0 0 0 1 0 0 0 0 1 0 0 0 0.48 0"/>
<feBlend mode="overlay" in2="effect1_innerShadow_680_6547" result="effect2_innerShadow_680_6547"/>
<feColorMatrix in="SourceAlpha" type="matrix" values="0 0 0 0 0 0 0 0 0 0 0 0 0 0 0 0 0 0 127 0" result="hardAlpha"/>
<feOffset dy="-2.01668"/>
<feGaussianBlur stdDeviation="6.05004"/>
<feComposite in2="hardAlpha" operator="arithmetic" k2="-1" k3="1"/>
<feColorMatrix type="matrix" values="0 0 0 0 1 0 0 0 0 1 0 0 0 0 1 0 0 0 0.48 0"/>
<feBlend mode="overlay" in2="effect2_innerShadow_680_6547" result="effect3_innerShadow_680_6547"/>
<feGaussianBlur stdDeviation="0.05" result="effect4_foregroundBlur_680_6547"/>
</filter>
<linearGradient id="paint0_linear_680_6547" x1="24.3289" y1="83.5395" x2="210.184" y2="-85.3202" gradientUnits="userSpaceOnUse">
<stop stop-color="#FFC814"/>
<stop offset="1" stop-color="#FFC300" stop-opacity="0.3"/>
</linearGradient>
<linearGradient id="paint1_linear_680_6547" x1="95.6009" y1="12.2675" x2="-22.272" y2="112.596" gradientUnits="userSpaceOnUse">
<stop stop-color="white"/>
<stop offset="1" stop-color="white" stop-opacity="0"/>
</linearGradient>
</defs>
</svg>
