<?xml version="1.0" encoding="utf-8"?>
<!-- Generator: Adobe Illustrator 23.1.1, SVG Export Plug-In . SVG Version: 6.00 Build 0)  -->
<svg version="1.1" id="图层_1" xmlns="http://www.w3.org/2000/svg" xmlns:xlink="http://www.w3.org/1999/xlink" x="0px" y="0px"
	 viewBox="0 0 200 200" style="enable-background:new 0 0 200 200;" xml:space="preserve">
<style type="text/css">
	.st0{fill:#29559B;}
	.st1{opacity:0.25;enable-background:new    ;}
	.st2{fill:#FFFFFF;}
</style>
<g>
	<path class="st0" d="M49.3,0.1h64.8l56.5,60.3v119.7c0,11-9,19.9-19.9,19.9H49.3c-11,0-19.9-9-19.9-19.9V20
		C29.4,9,38.3,0.1,49.3,0.1z"/>
	<path class="st1" d="M114.1,0.1l56.5,60.3l-41-0.3c-9.4,0-15.6-6.2-15.6-15.6V0.1L114.1,0.1z"/>
</g>
<path class="st2" d="M100.6,120.6l12.1,33.9c2.5,4.8,9.7,4.8,10.9,0l18.2-48.4c1.2-3.6,0-6.1-3.6-7.3c-3.6-1.2-6.1,0-7.3,2.5
	l-12.1,33.9l-12.1-33.9c-2.5-4.9-9.7-4.9-12.2-0.1l-12.1,34l-12.2-34c-1.2-2.5-4.8-4.8-8.4-3.6c-3.6,1.2-4.8,4.8-3.6,8.4l18.2,48.4
	c2.5,4.8,9.7,4.8,10.9,0L100.6,120.6z"/>
</svg>
