<?xml version="1.0" encoding="utf-8"?>
<!-- Generator: Adobe Illustrator 23.1.1, SVG Export Plug-In . SVG Version: 6.00 Build 0)  -->
<svg version="1.1" id="图层_1" xmlns="http://www.w3.org/2000/svg" xmlns:xlink="http://www.w3.org/1999/xlink" x="0px" y="0px"
	 viewBox="0 0 200 200" style="enable-background:new 0 0 200 200;" xml:space="preserve">
<style type="text/css">
	.st0{fill:#21724A;}
	.st1{opacity:0.25;enable-background:new    ;}
	.st2{fill:#FFFFFF;}
</style>
<g>
	<path class="st0" d="M48.8-1h64.8l56.5,60.3V179c0,11-9,19.9-19.9,19.9H48.8c-11,0-19.9-9-19.9-19.9V19C28.9,8,37.8-1,48.8-1z"/>
	<path class="st1" d="M113.6-1l56.5,60.3l-41-0.3c-9.4,0-15.6-6.2-15.6-15.6L113.6-1L113.6-1z"/>
</g>
<path class="st2" d="M78.9,99l0.3,0.3l20.9,20.9l20.9-20.9l0.3-0.3c2.2-1.9,5.5-1.6,7.4,0.3c2.2,2.2,2.2,5.5,0,7.7l-20.9,20.9
	l20.9,20.9c2.2,2.2,2.2,5.5,0,7.7c-1.9,1.9-5.2,2.2-7.4,0.3l-0.3-0.3l-20.9-21l-20.9,20.9l-0.3,0.3c-2.2,1.9-5.5,1.6-7.4-0.3
	c-2.2-2.2-2.2-5.5,0-7.7l20.9-20.9l-20.9-20.9c-2.2-2.2-2.2-5.5,0-7.7C73.4,97,76.7,97,78.9,99z"/>
</svg>
